<svg width="24" height="19" viewBox="0 0 24 19" fill="none" xmlns="http://www.w3.org/2000/svg">
<path d="M0.889999 1.96997C0.959999 1.63997 1.07 1.32997 1.3 1.07997C1.61 0.729968 2 0.509968 2.47 0.489968C2.88 0.469968 3.28 0.489968 3.69 0.489968C3.66 0.529968 3.62 0.529967 3.57 0.539967C2.79 0.729967 2.31 1.39997 2.3 2.01997C2.28 3.42997 2.3 4.83996 2.3 6.25996C1.83 6.25996 1.36 6.25996 0.9 6.25996V1.96997H0.889999Z" fill="#ECB3C2"/>
<path d="M0.889999 6.26001C1.36 6.26001 1.83 6.26001 2.29 6.26001C2.29 6.44001 2.3 6.61001 2.29 6.77001C2.27 6.97001 2.34 7.01001 2.53 7.01001C4.34 7.01001 6.14 7.01001 7.95 7.01001C8.02 7.01001 8.08 7.01001 8.15 7.01001C8.37 7.03001 8.5 7.17001 8.5 7.36001C8.5 7.53001 8.35 7.69001 8.15 7.71001C8.09 7.71001 8.03 7.71001 7.98 7.71001C6.3 7.71001 4.61 7.71001 2.93 7.71001C2.85 7.71001 2.77 7.71001 2.69 7.71001C2.57 7.71001 2.55 7.74001 2.63 7.85001C2.84 8.15001 3.13 8.33001 3.46 8.45001C3.51 8.47001 3.56 8.47001 3.57 8.53001C3.13 8.52001 2.68 8.59001 2.25 8.49001C1.55 8.33001 1.12 7.88001 0.950001 7.18001C0.950001 7.16001 0.93 7.15001 0.91 7.13001C0.91 6.84001 0.91 6.55001 0.91 6.26001H0.889999Z" fill="#FFC8DA"/>
<path d="M2.29 6.24998C2.29 4.83998 2.27 3.41998 2.29 2.00998C2.29 1.38998 2.79001 0.71998 3.56001 0.52998C3.60001 0.51998 3.65 0.52998 3.68 0.47998C8.11 0.47998 12.54 0.47998 16.96 0.47998C18.54 0.47998 20.12 0.47998 21.7 0.47998C22.33 0.47998 23.01 1.01998 23.19 1.63998C23.25 1.84998 23.27 2.05998 23.27 2.27998C23.27 3.60998 23.27 4.92998 23.27 6.25998C23.2 6.25998 23.12 6.25998 23.05 6.25998C16.2 6.25998 9.35001 6.25998 2.49001 6.25998C2.42001 6.25998 2.34 6.25998 2.27 6.25998L2.29 6.24998ZM22.15 5.16998C22.37 5.09998 22.42 4.91998 22.4 4.71998C22.38 4.54998 22.34 4.38998 22.13 4.34998C21.92 4.24998 21.71 4.28998 21.58 4.44998C21.45 4.60998 21.44 4.87998 21.57 5.03998C21.71 5.21998 21.92 5.25998 22.15 5.15998V5.16998ZM12.11 2.71998C12.43 2.71998 12.75 2.71998 13.07 2.71998C13.32 2.71998 13.47 2.58998 13.48 2.38998C13.48 2.19998 13.32 2.02998 13.09 2.02998C12.43 2.02998 11.76 2.02998 11.1 2.03998C10.87 2.03998 10.74 2.19998 10.76 2.40998C10.77 2.59998 10.91 2.71998 11.14 2.71998C11.46 2.71998 11.78 2.71998 12.1 2.71998H12.11ZM19.69 4.74998C19.69 5.02998 19.89 5.22998 20.16 5.22998C20.4 5.22998 20.61 5.01998 20.61 4.76998C20.61 4.49998 20.41 4.28998 20.16 4.28998C19.89 4.28998 19.69 4.47998 19.69 4.74998Z" fill="#EE2F66"/>
<path d="M2.28 6.26C2.35 6.26 2.43 6.26 2.5 6.26C9.35 6.26 16.2 6.26 23.06 6.26C23.13 6.26 23.21 6.26 23.28 6.26C23.28 6.51 23.28 6.76 23.28 7C23.26 7 23.24 7 23.21 7C18.68 7 14.14 7 9.61 7C9.57 7 9.52 7 9.48 7C9.34 7.05 9.21 7.12 9.2 7.29C9.19 7.47 9.25 7.6 9.43 7.66C9.53 7.69 9.63 7.69 9.73 7.69C14.06 7.69 18.39 7.69 22.72 7.69C22.82 7.69 22.92 7.69 23.03 7.69C22.74 8.2 22.29 8.45 21.72 8.51C21.58 8.53 21.44 8.51 21.3 8.51C15.44 8.51 9.58 8.51 3.73 8.51C3.67 8.51 3.61 8.51 3.56 8.51C3.56 8.44 3.5 8.44 3.45 8.43C3.12 8.31 2.83 8.13 2.62 7.83C2.55 7.73 2.56 7.69 2.68 7.69C2.76 7.69 2.84 7.69 2.92 7.69C4.6 7.69 6.29 7.69 7.97 7.69C8.03 7.69 8.09 7.69 8.14 7.69C8.34 7.67 8.49 7.52 8.49 7.34C8.49 7.15 8.36 7.02 8.14 6.99C8.08 6.99 8.01 6.99 7.94 6.99C6.13 6.99 4.33 6.99 2.52 6.99C2.33 6.99 2.26 6.94 2.28 6.75C2.3 6.58 2.28 6.42 2.28 6.25V6.26Z" fill="#ECB3C2"/>
<path d="M23.02 7.71001C22.92 7.71001 22.82 7.71001 22.71 7.71001C18.38 7.71001 14.05 7.71001 9.72 7.71001C9.62 7.71001 9.52 7.71001 9.42 7.68001C9.23 7.62001 9.17 7.50001 9.19 7.31001C9.2 7.13001 9.32 7.06001 9.47 7.02001C9.51 7.01001 9.56 7.02001 9.6 7.02001C14.13 7.02001 18.67 7.02001 23.2 7.02001C23.22 7.02001 23.24 7.02001 23.27 7.02001C23.25 7.27001 23.18 7.51001 23.02 7.72001V7.71001Z" fill="#FFC8DA"/>
<path d="M9.62 14.56C9.62 14.35 9.62 14.14 9.62 13.93C9.62 13.77 9.56 13.77 9.45 13.84C9.11 14.05 8.77 14.27 8.43 14.47C8.21 14.6 7.99 14.57 7.87 14.4C7.74 14.21 7.8 13.99 8.02 13.85C8.36 13.63 8.71 13.42 9.06 13.2C9.28 13.06 9.28 13.06 9.06 12.93C8.72 12.72 8.38 12.51 8.04 12.3C7.8 12.15 7.73 11.96 7.85 11.76C7.96 11.56 8.17 11.51 8.41 11.65C8.75 11.85 9.08 12.06 9.41 12.27C9.57 12.37 9.61 12.34 9.61 12.16C9.61 11.78 9.61 11.41 9.61 11.03C9.61 10.73 9.75 10.57 9.98 10.56C10.22 10.56 10.36 10.72 10.37 11.03C10.37 11.39 10.37 11.75 10.37 12.11C10.37 12.18 10.33 12.27 10.4 12.31C10.47 12.35 10.53 12.28 10.59 12.24C10.91 12.04 11.23 11.85 11.55 11.65C11.64 11.59 11.73 11.55 11.84 11.57C12.01 11.59 12.12 11.69 12.16 11.85C12.21 12.04 12.12 12.18 11.96 12.27C11.61 12.49 11.26 12.72 10.9 12.92C10.71 13.03 10.74 13.09 10.9 13.19C11.24 13.39 11.57 13.6 11.9 13.81C12.17 13.98 12.24 14.18 12.11 14.39C11.99 14.58 11.74 14.6 11.49 14.45C11.19 14.26 10.89 14.08 10.59 13.89C10.52 13.85 10.46 13.76 10.38 13.81C10.31 13.85 10.35 13.96 10.35 14.04C10.35 14.39 10.35 14.75 10.35 15.1C10.35 15.42 10.21 15.58 9.96 15.57C9.71 15.57 9.59 15.41 9.58 15.09C9.58 14.91 9.58 14.74 9.58 14.56H9.62Z" fill="#EE2F66"/>
<path d="M14.91 16.27C14.91 16.03 14.91 15.85 14.91 15.67C14.91 15.44 15.06 15.3 15.26 15.29C15.47 15.29 15.62 15.4 15.65 15.63C15.67 15.83 15.65 16.02 15.65 16.27C15.84 16.15 15.99 16.06 16.14 15.97C16.36 15.85 16.58 15.88 16.69 16.06C16.81 16.24 16.75 16.45 16.54 16.6C16.37 16.72 16.19 16.82 15.99 16.95C16.18 17.07 16.35 17.17 16.51 17.28C16.74 17.43 16.8 17.64 16.69 17.83C16.58 18.01 16.35 18.05 16.12 17.92C15.98 17.84 15.84 17.75 15.65 17.64C15.65 17.85 15.65 18.01 15.65 18.17C15.64 18.46 15.49 18.62 15.26 18.62C15.03 18.62 14.9 18.45 14.9 18.17C14.9 18.01 14.9 17.85 14.9 17.67C14.71 17.7 14.59 17.83 14.44 17.91C14.21 18.04 13.98 18.02 13.86 17.84C13.73 17.64 13.79 17.43 14.04 17.27C14.19 17.17 14.34 17.08 14.49 16.99C14.5 16.99 14.51 16.97 14.52 16.95C14.39 16.82 14.22 16.75 14.06 16.64C13.8 16.46 13.72 16.27 13.86 16.06C13.99 15.86 14.21 15.84 14.47 16.01C14.6 16.09 14.73 16.17 14.89 16.27H14.91Z" fill="#EE2F66"/>
<path d="M12.11 2.72001C11.79 2.72001 11.47 2.72001 11.15 2.72001C10.92 2.72001 10.78 2.60001 10.77 2.41001C10.75 2.20001 10.88 2.05001 11.11 2.04001C11.77 2.02001 12.44 2.02001 13.1 2.03001C13.33 2.03001 13.49 2.21001 13.49 2.39001C13.49 2.59001 13.33 2.72001 13.08 2.72001C12.76 2.72001 12.44 2.72001 12.12 2.72001H12.11Z" fill="#FFC8DA"/>
<path d="M19.69 4.74998C19.69 4.47998 19.89 4.28998 20.16 4.28998C20.41 4.28998 20.61 4.50998 20.61 4.76998C20.61 5.01998 20.4 5.23998 20.16 5.22998C19.88 5.22998 19.68 5.01998 19.69 4.74998Z" fill="#FFC8DA"/>
<path d="M22.15 5.17C21.92 5.27 21.71 5.23 21.57 5.05C21.45 4.89 21.45 4.62 21.58 4.46C21.71 4.3 21.92 4.26 22.13 4.36C21.86 4.68 21.86 4.85 22.15 5.17Z" fill="#ECB3C2"/>
<path d="M22.15 5.16998C21.87 4.83998 21.86 4.67999 22.13 4.35999C22.34 4.38999 22.38 4.55998 22.4 4.72998C22.42 4.92998 22.37 5.09999 22.15 5.17999V5.16998Z" fill="#FFC8DA"/>
</svg>
