<svg width="33" height="33" viewBox="0 0 33 33" fill="none" xmlns="http://www.w3.org/2000/svg">
<path d="M5.70999 20.1C5.70999 15.1 5.70999 10.1 5.70999 5.09C5.70999 2.54 7.69999 0.550003 10.26 0.550003C14.59 0.550003 18.92 0.550003 23.24 0.550003C25.4 0.550003 27.27 2.13 27.64 4.26C27.69 4.56 27.71 4.86 27.71 5.17C27.71 10.15 27.71 15.12 27.71 20.1C27.61 20.1 27.51 20.1 27.41 20.1C20.28 20.1 13.14 20.1 6.00999 20.1C5.90999 20.1 5.80999 20.1 5.70999 20.1Z" fill="#ECB3C2"/>
<path d="M5.70999 20.1C5.80999 20.1 5.90998 20.1 6.00998 20.1C13.14 20.1 20.28 20.1 27.41 20.1C27.51 20.1 27.61 20.1 27.71 20.1C28.88 20.1 30.05 20.1 31.22 20.11C32.03 20.11 32.59 20.61 32.59 21.33C32.59 22.03 32.06 22.54 31.27 22.55C31.03 22.55 30.97 22.63 30.97 22.86C30.97 25.1 30.97 27.34 30.97 29.58C30.97 29.84 31.06 29.89 31.3 29.9C32.07 29.9 32.61 30.44 32.59 31.15C32.57 31.84 32.02 32.34 31.27 32.34C21.56 32.34 11.84 32.34 2.12999 32.34C1.37999 32.34 0.829986 31.84 0.809986 31.15C0.789986 30.44 1.32999 29.91 2.09999 29.9C2.33999 29.9 2.42999 29.84 2.42999 29.58C2.42999 27.34 2.42999 25.1 2.42999 22.86C2.42999 22.63 2.35999 22.56 2.12999 22.55C1.33999 22.53 0.809986 22.03 0.809986 21.33C0.809986 20.61 1.36999 20.12 2.17999 20.11C3.34999 20.11 4.51999 20.11 5.68999 20.1H5.70999ZM8.98999 26.23C8.98999 25.12 8.98999 24.01 8.98999 22.91C8.98999 22.65 8.93999 22.55 8.65999 22.56C7.50999 22.58 6.36999 22.57 5.21999 22.56C4.94999 22.56 4.87999 22.65 4.87999 22.91C4.87999 25.13 4.87999 27.34 4.87999 29.56C4.87999 29.81 4.92999 29.92 5.20999 29.91C6.35999 29.89 7.49999 29.9 8.64999 29.91C8.91999 29.91 8.98999 29.82 8.98999 29.56C8.97999 28.45 8.98999 27.34 8.98999 26.24V26.23ZM28.54 26.19C28.54 25.1 28.54 24 28.54 22.91C28.54 22.65 28.49 22.55 28.21 22.56C27.06 22.58 25.92 22.57 24.77 22.56C24.5 22.56 24.43 22.65 24.43 22.91C24.43 25.13 24.43 27.34 24.43 29.56C24.43 29.81 24.48 29.92 24.76 29.91C25.91 29.89 27.05 29.9 28.2 29.91C28.47 29.91 28.54 29.82 28.54 29.56C28.53 28.44 28.54 27.32 28.54 26.2V26.19ZM11.43 26.23C11.43 27.34 11.43 28.44 11.43 29.55C11.43 29.8 11.48 29.91 11.76 29.9C12.9 29.88 14.05 29.89 15.19 29.9C15.42 29.9 15.5 29.85 15.5 29.61C15.5 27.36 15.5 25.11 15.5 22.86C15.5 22.62 15.42 22.56 15.19 22.57C14.06 22.57 12.93 22.59 11.79 22.57C11.47 22.57 11.42 22.68 11.42 22.96C11.43 24.05 11.42 25.15 11.42 26.24L11.43 26.23ZM22 26.23C22 25.12 21.99 24.02 22 22.91C22 22.62 21.92 22.55 21.64 22.55C20.51 22.57 19.38 22.56 18.24 22.55C18.02 22.55 17.93 22.59 17.93 22.84C17.93 25.09 17.93 27.34 17.93 29.59C17.93 29.83 18 29.89 18.23 29.89C19.37 29.88 20.52 29.88 21.66 29.89C21.93 29.89 22 29.8 22 29.54C21.99 28.43 22 27.33 22 26.22V26.23Z" fill="#EE2F66"/>
</svg>
