<svg width="39" height="30" viewBox="0 0 39 30" fill="none" xmlns="http://www.w3.org/2000/svg">
<path d="M0.779999 25.88V12.77C3.24 12.77 5.7 12.77 8.16 12.77C9.11 12.77 10.07 12.77 11.02 12.76V12.79C11.02 16.18 11.02 19.56 11.02 22.95C10.54 22.95 10.06 22.95 9.59 22.96C9.13 22.96 8.88 23.16 8.88 23.52C8.88 23.88 9.12 24.08 9.59 24.09C10.07 24.09 10.55 24.09 11.02 24.09C11.02 24.68 11.02 25.27 11.02 25.86V25.88C7.61 25.88 4.2 25.88 0.789999 25.88H0.779999ZM9.4 19.11C9.4 18.93 9.4 18.74 9.4 18.56C9.37 18.04 9.16 17.79 8.65 17.73C8.33 17.69 8.01 17.69 7.69 17.71C6.21 17.78 5.17 18.58 4.84 19.88C4.73 20.31 4.67 20.75 4.7 21.19C4.72 21.46 4.69 21.68 4.47 21.88C4.22 22.11 4.24 22.46 4.45 22.67C4.68 22.9 4.98 22.92 5.23 22.66C5.44 22.44 5.67 22.38 5.95 22.41C6.12 22.43 6.29 22.41 6.47 22.41C7.91 22.34 8.92 21.56 9.28 20.24C9.38 19.87 9.4 19.49 9.39 19.11H9.4ZM3.93 14.6C3.67 14.6 3.42 14.6 3.16 14.6C2.82 14.61 2.59 14.83 2.58 15.13C2.58 15.4 2.8 15.68 3.11 15.69C3.66 15.71 4.21 15.71 4.76 15.69C5.07 15.68 5.28 15.4 5.26 15.11C5.24 14.82 5.02 14.61 4.7 14.6C4.44 14.6 4.19 14.6 3.93 14.6ZM3.5 18.04C3.65 18.04 3.8 18.05 3.94 18.04C4.28 18 4.48 17.76 4.47 17.45C4.45 17.14 4.25 16.95 3.91 16.94C3.65 16.94 3.4 16.94 3.14 16.94C2.82 16.95 2.59 17.17 2.59 17.46C2.59 17.77 2.77 17.96 3.07 18.03C3.21 18.06 3.36 18.03 3.51 18.03L3.5 18.04Z" fill="#F9C5D5"/>
<path d="M0.779999 25.88C4.19 25.88 7.61 25.88 11.02 25.88C11.02 26.44 11.02 27.01 11.02 27.57C11.02 27.94 10.93 28.29 10.79 28.63C10.54 29.23 10.01 29.51 9.48 29.78C7.2 29.78 4.92 29.8 2.65 29.76C1.85 29.75 1.3 29.25 0.949999 28.54C0.899999 28.43 0.909999 28.3 0.789999 28.22V25.86L0.779999 25.88Z" fill="#ECB3C2"/>
<path d="M11.03 12.76C10.08 12.76 9.12001 12.77 8.17001 12.77C5.71001 12.77 3.25001 12.77 0.790009 12.77V11.37C1.00001 11.08 1.00001 10.7 1.23001 10.42C2.29001 10.42 3.34001 10.42 4.40001 10.42C6.22001 10.42 8.03001 10.42 9.85001 10.41L10.15 10.44C10.15 10.54 10.13 10.64 10.2 10.72C10.77 11.29 10.93 12.01 11.03 12.77V12.76Z" fill="#ECB3C2"/>
<path d="M34.59 29.79C32.32 29.79 30.05 29.8 27.79 29.78C26.92 29.78 26.23 29.12 25.97 28.17C25.9 28.04 25.9 27.89 25.9 27.74C25.9 27.12 25.9 26.5 25.9 25.88C28.04 25.88 30.18 25.88 32.32 25.88C33.59 25.88 34.86 25.88 36.14 25.87V25.9C36.14 26.47 36.13 27.05 36.14 27.62C36.15 28.26 35.95 28.8 35.48 29.25C35.22 29.51 34.88 29.6 34.59 29.8V29.79Z" fill="#ECB3C2"/>
<path d="M22 29.79C21.76 29.87 21.52 29.79 21.28 29.79C19.4 29.79 17.51 29.79 15.63 29.79C14.37 29.79 13.72 29.29 13.37 28.08C13.37 27.35 13.37 26.62 13.37 25.89C14.37 25.89 15.38 25.89 16.38 25.89C18.77 25.89 21.15 25.89 23.54 25.9C23.54 26.57 23.54 27.25 23.54 27.92C23.54 28.28 23.4 28.6 23.21 28.91C22.93 29.39 22.44 29.56 21.99 29.8L22 29.79Z" fill="#ECB3C2"/>
<path d="M28.26 5.61999C28.15 5.61999 28.04 5.61999 27.93 5.60999C27.43 5.57999 27.11 5.25999 27.1 4.75999C27.09 3.75999 27.08 2.74999 27.1 1.74999C27.1 1.18999 27.43 0.899994 27.99 0.899994C29.89 0.899994 31.79 0.899994 33.69 0.899994C33.89 0.899994 34.1 0.899994 34.3 0.899994C34.7 1.16999 34.85 1.53999 34.82 2.02999C34.79 2.63999 34.81 3.26 34.82 3.87C34.82 4.48 34.9 5.09999 34.45 5.60999C34.23 5.60999 34.01 5.62 33.78 5.63C31.94 5.63 30.1 5.63 28.26 5.63V5.61999Z" fill="#ECB3C2"/>
<path d="M3.13999 5.62C3.00999 5.62 2.86999 5.62 2.73999 5.6C2.29999 5.56 1.97999 5.25 1.96999 4.81C1.95999 3.76 1.95999 2.7 1.96999 1.65C1.96999 1.19 2.31999 0.889999 2.82999 0.889999C4.72999 0.889999 6.63 0.889999 8.53 0.889999C8.75 0.889999 8.96 0.889999 9.18 0.889999C9.58 1.15 9.67999 1.56 9.68999 1.99C9.69999 2.5 9.68999 3.02 9.68999 3.53C9.68999 4.25 9.79999 4.99 9.24999 5.6C9.04999 5.6 8.84999 5.61 8.65999 5.62C6.81999 5.62 4.97999 5.62 3.13999 5.62Z" fill="#ECB3C2"/>
<path d="M15.74 5.62C15.62 5.62 15.5 5.62 15.37 5.61C14.86 5.58 14.55 5.28 14.55 4.77C14.55 3.75 14.55 2.73 14.55 1.72C14.55 1.18 14.83 0.909996 15.37 0.909996C17.48 0.909996 19.59 0.909996 21.7 0.909996C22.11 1.17 22.26 1.54 22.23 2.03C22.19 2.74 22.21 3.45 22.23 4.16C22.23 4.7 22.29 5.24 21.79 5.62C21.59 5.62 21.39 5.62 21.2 5.63C19.38 5.63 17.57 5.63 15.75 5.63L15.74 5.62Z" fill="#ECB3C2"/>
<path d="M38.49 12.76C38.49 17.14 38.49 21.51 38.49 25.89C37.71 25.89 36.92 25.89 36.14 25.89V25.86C36.14 25.27 36.14 24.68 36.14 24.09C36.45 24.02 36.69 23.85 36.69 23.51C36.69 23.17 36.45 23 36.14 22.93C36.14 19.55 36.14 16.16 36.14 12.78V12.75C36.92 12.75 37.71 12.75 38.49 12.75V12.76Z" fill="#EE2F66"/>
<path d="M3.14 5.62C4.98 5.62 6.82 5.62 8.66 5.62C8.66 6.7 8.66 7.78 8.66 8.86C8.66 9.33 8.85 9.67 9.24 9.93C9.45 10.07 9.7 10.16 9.84 10.4C8.02 10.4 6.21 10.41 4.39 10.41C3.33 10.41 2.28 10.41 1.22 10.41C1.6 9.76 2.19 9.33 2.82 8.95C3.05 8.81 3.15 8.65 3.14 8.37C3.12 7.46 3.14 6.54 3.14 5.62Z" fill="#F9C5D5"/>
<path d="M28.26 5.62C30.1 5.62 31.94 5.62 33.78 5.62C33.78 6.68 33.78 7.74 33.78 8.81C33.78 9.17 33.9 9.46 34.16 9.73C34.41 9.99 34.78 10.09 34.96 10.41C33.71 10.41 32.47 10.42 31.22 10.42C29.62 10.42 28.02 10.42 26.41 10.41C26.61 9.89 27.02 9.55 27.48 9.31C28.11 8.98 28.34 8.54 28.27 7.83C28.2 7.1 28.25 6.37 28.25 5.63L28.26 5.62Z" fill="#F9C5D5"/>
<path d="M15.74 5.62C17.56 5.62 19.37 5.62 21.19 5.62C21.19 6.62 21.19 7.63 21.19 8.63C21.19 9.25 21.42 9.74 21.99 10.04C22.16 10.13 22.32 10.24 22.44 10.4C19.57 10.4 16.69 10.4 13.82 10.4C14.1 9.76 14.66 9.42 15.21 9.09C15.6 8.86 15.77 8.59 15.75 8.12C15.71 7.29 15.74 6.45 15.74 5.62Z" fill="#F9C5D5"/>
<path d="M26.42 10.4C28.02 10.4 29.62 10.41 31.23 10.41C32.48 10.41 33.72 10.41 34.97 10.4C35.04 10.4 35.12 10.41 35.19 10.42C35.19 10.55 35.29 10.61 35.36 10.69C35.86 11.29 36.14 11.97 36.14 12.75V12.78C35.98 12.78 35.82 12.77 35.66 12.77C32.41 12.77 29.15 12.77 25.9 12.77C25.91 12.35 25.85 11.92 25.96 11.51C26.04 11.11 26.11 10.71 26.41 10.41L26.42 10.4Z" fill="#ECB3C2"/>
<path d="M13.82 10.41C16.69 10.41 19.57 10.41 22.44 10.41C22.49 10.41 22.54 10.42 22.59 10.43C22.59 10.52 22.65 10.58 22.71 10.65C23.26 11.25 23.57 11.94 23.55 12.77C23.45 12.77 23.35 12.78 23.26 12.78C19.97 12.78 16.68 12.78 13.38 12.78C13.38 12.36 13.38 11.94 13.32 11.53C13.51 11.31 13.47 11 13.62 10.76C13.69 10.65 13.76 10.53 13.83 10.42L13.82 10.41Z" fill="#ECB3C2"/>
<path d="M9.84 10.4C9.7 10.16 9.45001 10.07 9.24001 9.93C8.85001 9.67 8.66 9.32 8.66 8.86C8.66 7.78 8.66 6.7 8.66 5.62C8.86 5.62 9.06 5.61 9.25 5.6C9.84 5.6 10.43 5.61 11.02 5.62C11.02 6.55 11.02 7.48 11.02 8.41C11.02 8.65 11.1 8.79 11.29 8.91C11.77 9.2 12.23 9.53 12.61 9.95C12.73 10.08 12.84 10.2 12.87 10.38C11.96 10.39 11.05 10.41 10.14 10.42L9.84 10.39V10.4Z" fill="#ECB3C2"/>
<path d="M22.59 10.42C22.54 10.42 22.49 10.41 22.44 10.4C22.32 10.24 22.16 10.13 21.99 10.04C21.42 9.74 21.19 9.25 21.19 8.63C21.19 7.63 21.19 6.62 21.19 5.62C21.39 5.62 21.59 5.62 21.78 5.61C22.37 5.61 22.96 5.63 23.55 5.63C23.55 6.54 23.55 7.44 23.55 8.35C23.55 8.61 23.63 8.77 23.85 8.92C24.42 9.29 25.02 9.63 25.4 10.24C25.43 10.29 25.45 10.35 25.47 10.41C24.51 10.41 23.56 10.43 22.6 10.43L22.59 10.42Z" fill="#ECB3C2"/>
<path d="M35.19 10.42C35.12 10.42 35.04 10.41 34.97 10.4C34.78 10.08 34.41 9.98 34.17 9.72C33.92 9.45 33.79 9.16 33.79 8.8C33.79 7.74 33.79 6.68 33.79 5.61C34.01 5.61 34.23 5.61 34.46 5.6C35.02 5.6 35.59 5.61 36.15 5.62C36.15 6.55 36.15 7.49 36.15 8.42C36.15 8.67 36.25 8.79 36.43 8.92C36.95 9.27 37.54 9.56 37.9 10.12C37.96 10.21 38.02 10.31 38.07 10.4C37.11 10.4 36.16 10.41 35.2 10.42H35.19Z" fill="#ECB3C2"/>
<path d="M23.55 5.63C22.96 5.63 22.37 5.61 21.78 5.61C22.28 5.23 22.23 4.69 22.22 4.15C22.21 3.44 22.19 2.73 22.22 2.02C22.25 1.53 22.1 1.16 21.69 0.899998C22.45 0.819998 23.21 0.839998 23.97 0.889998C24.48 0.919998 24.75 1.21 24.76 1.73C24.78 2.74 24.78 3.74 24.76 4.75C24.75 5.32 24.41 5.61 23.84 5.62C23.74 5.62 23.64 5.62 23.55 5.63Z" fill="#EE2F66"/>
<path d="M11.02 5.63C10.43 5.63 9.83999 5.62 9.24999 5.61C9.79999 5.01 9.67999 4.26 9.68999 3.54C9.68999 3.03 9.68999 2.51 9.68999 2C9.68999 1.56 9.57999 1.15 9.17999 0.899998C9.89999 0.899998 10.62 0.889998 11.34 0.899998C11.87 0.899998 12.18 1.22 12.19 1.75C12.19 2.75 12.19 3.75 12.19 4.76C12.19 5.3 11.85 5.61 11.31 5.63C11.21 5.63 11.11 5.63 11.02 5.64V5.63Z" fill="#EE2F66"/>
<path d="M36.15 5.63C35.59 5.63 35.02 5.62 34.46 5.61C34.9 5.1 34.83 4.48 34.83 3.87C34.83 3.26 34.8 2.64 34.83 2.03C34.86 1.54 34.71 1.17 34.31 0.900002C35.04 0.900002 35.78 0.880002 36.51 0.900002C37.05 0.900002 37.33 1.21 37.33 1.76C37.33 2.71 37.33 3.67 37.33 4.62C37.33 5.35 37.07 5.61 36.34 5.62C36.28 5.62 36.22 5.62 36.16 5.63H36.15Z" fill="#EE2F66"/>
<path d="M22 29.79C22.45 29.56 22.93 29.38 23.22 28.9C23.41 28.59 23.54 28.27 23.55 27.91C23.55 27.24 23.55 26.56 23.55 25.89V25.87C24.34 25.87 25.13 25.87 25.92 25.87C25.92 26.5 25.92 27.12 25.92 27.74C25.92 27.89 25.92 28.03 25.99 28.17C25.86 28.23 25.88 28.37 25.83 28.48C25.49 29.26 24.92 29.75 24.04 29.79C23.37 29.82 22.69 29.79 22.02 29.79H22Z" fill="#EE2F66"/>
<path d="M36.14 25.89C36.92 25.89 37.71 25.89 38.49 25.89C38.49 26.55 38.5 27.21 38.49 27.87C38.48 28.83 37.66 29.71 36.71 29.78C36 29.83 35.29 29.81 34.58 29.78C34.87 29.58 35.21 29.49 35.47 29.23C35.94 28.77 36.15 28.24 36.13 27.6C36.12 27.03 36.13 26.45 36.13 25.88L36.14 25.89Z" fill="#EE2F66"/>
<path d="M13.38 25.88C13.38 26.61 13.38 27.34 13.38 28.07C13.16 28.9 12.68 29.52 11.82 29.74C11.42 29.85 10.99 29.8 10.58 29.8C10.21 29.8 9.85001 29.8 9.48001 29.79C10.02 29.52 10.54 29.24 10.79 28.64C10.93 28.3 11.02 27.95 11.02 27.58C11.02 27.02 11.02 26.45 11.02 25.89V25.87C11.81 25.87 12.6 25.88 13.38 25.89V25.88Z" fill="#EE2F66"/>
<path d="M35.19 10.42C36.15 10.42 37.1 10.41 38.06 10.4C38.56 11.12 38.52 11.94 38.5 12.75C37.72 12.75 36.93 12.75 36.15 12.75C36.15 11.96 35.86 11.29 35.37 10.69C35.3 10.61 35.2 10.55 35.2 10.42H35.19Z" fill="#EE2F66"/>
<path d="M22.59 10.42C23.55 10.42 24.5 10.4 25.46 10.4C25.67 10.62 25.73 10.91 25.83 11.19C25.87 11.3 25.85 11.44 25.97 11.51C25.85 11.93 25.92 12.35 25.91 12.77V12.78C25.12 12.78 24.33 12.78 23.54 12.78V12.76C23.57 11.94 23.26 11.24 22.71 10.64C22.65 10.58 22.59 10.52 22.59 10.42Z" fill="#EE2F66"/>
<path d="M10.14 10.43C11.05 10.42 11.96 10.4 12.87 10.39C13.17 10.7 13.25 11.1 13.32 11.51C13.39 11.92 13.38 12.34 13.38 12.76C12.59 12.76 11.8 12.77 11.02 12.78V12.75C10.93 12 10.77 11.27 10.2 10.7C10.12 10.62 10.14 10.52 10.15 10.42L10.14 10.43Z" fill="#EE2F66"/>
<path d="M11.02 12.78C11.81 12.78 12.6 12.77 13.38 12.76C13.38 17.13 13.38 21.5 13.38 25.87C12.59 25.87 11.8 25.86 11.02 25.85C11.02 25.26 11.02 24.67 11.02 24.08C11.3 24 11.53 23.86 11.54 23.52C11.54 23.16 11.32 23.01 11.02 22.93C11.02 19.54 11.02 16.16 11.02 12.77V12.78Z" fill="#EE2F66"/>
<path d="M9.39999 19.11C9.41999 19.49 9.39999 19.87 9.28999 20.24C8.92999 21.56 7.91999 22.34 6.47999 22.41C6.30999 22.41 6.13999 22.43 5.95999 22.41C5.67999 22.38 5.44999 22.44 5.23999 22.66C4.98999 22.92 4.67999 22.9 4.45999 22.67C4.24999 22.46 4.22999 22.11 4.47999 21.88C4.69999 21.68 4.72999 21.46 4.70999 21.19C4.67999 20.75 4.73999 20.31 4.84999 19.88C5.17999 18.58 6.21999 17.78 7.69999 17.71C8.01999 17.69 8.33999 17.7 8.65999 17.73C9.16999 17.79 9.38999 18.04 9.40999 18.56C9.40999 18.74 9.40999 18.93 9.40999 19.11H9.39999Z" fill="#EE2F66"/>
<path d="M25.91 12.77C29.16 12.77 32.42 12.77 35.67 12.77C35.83 12.77 35.99 12.77 36.15 12.78C36.15 16.16 36.15 19.55 36.15 22.93C35.67 22.93 35.2 22.93 34.72 22.94C34.29 22.94 34.04 23.15 34.02 23.48C34.01 23.82 34.28 24.06 34.72 24.07C35.2 24.07 35.67 24.07 36.15 24.07C36.15 24.66 36.15 25.25 36.15 25.84C34.88 25.84 33.61 25.85 32.33 25.85C30.19 25.85 28.05 25.85 25.91 25.85C25.91 21.49 25.91 17.12 25.91 12.76V12.77ZM32.57 17.12C32.52 16.81 32.42 16.55 32.08 16.5C31.75 16.45 31.56 16.68 31.39 16.91C30.88 17.62 30.78 18.4 31.13 19.21C31.23 19.44 31.21 19.58 31.03 19.75C30.54 20.22 30.07 20.7 29.59 21.18C29.24 21.53 29.21 21.8 29.48 22.07C29.73 22.31 30.03 22.28 30.35 21.96C30.84 21.48 31.33 21 31.81 20.5C31.97 20.33 32.08 20.31 32.31 20.4C33.19 20.76 34.02 20.65 34.76 20.05C35.08 19.79 35.17 19.3 34.87 19.18C34.36 18.96 34.54 18.68 34.67 18.36C34.72 18.24 34.73 18.1 34.74 17.96C34.77 17.22 34.38 16.82 33.64 16.81C33.26 16.81 32.93 16.97 32.57 17.13V17.12ZM29.09 14.6C28.82 14.6 28.55 14.6 28.28 14.6C27.94 14.61 27.75 14.81 27.74 15.12C27.74 15.42 27.93 15.67 28.24 15.69C28.79 15.71 29.34 15.71 29.89 15.69C30.21 15.68 30.4 15.43 30.4 15.13C30.4 14.82 30.2 14.62 29.86 14.6C29.6 14.59 29.35 14.6 29.09 14.6ZM28.69 16.95C28.56 16.95 28.42 16.95 28.29 16.95C27.98 16.96 27.78 17.12 27.75 17.44C27.72 17.76 27.88 17.97 28.18 18.03C28.5 18.09 28.84 18.09 29.17 18.03C29.47 17.98 29.65 17.76 29.63 17.45C29.6 17.13 29.41 16.94 29.07 16.94C28.95 16.94 28.83 16.94 28.7 16.94L28.69 16.95Z" fill="#F9C5D5"/>
<path d="M13.38 25.87C13.38 21.5 13.38 17.13 13.38 12.76C16.67 12.76 19.96 12.76 23.26 12.76C23.36 12.76 23.46 12.76 23.55 12.75V12.77C23.55 16.16 23.55 19.54 23.55 22.93C23.09 22.93 22.62 22.93 22.16 22.95C21.72 22.95 21.45 23.17 21.44 23.51C21.44 23.85 21.71 24.07 22.15 24.08C22.61 24.08 23.08 24.08 23.54 24.09C23.54 24.68 23.54 25.27 23.54 25.87V25.89C21.15 25.89 18.77 25.89 16.38 25.88C15.38 25.88 14.37 25.88 13.37 25.88L13.38 25.87ZM21.59 17.76C21.75 17.36 21.9 16.97 22.06 16.57C22.18 16.26 22.08 16.02 21.8 15.87C21.54 15.73 21.23 15.81 21.09 16.1C20.89 16.52 20.68 16.93 20.59 17.39C19.87 17.46 19.39 17.9 19.28 18.61C19.17 19.31 18.93 19.96 18.55 20.55C18.26 20.99 17.94 21.41 17.51 21.73C17.38 21.82 17.26 21.94 17.34 22.13C17.41 22.31 17.58 22.27 17.72 22.27C17.78 22.27 17.84 22.27 17.9 22.27C19.58 21.97 20.91 21.17 21.72 19.61C22.06 18.95 22.07 18.36 21.59 17.77V17.76ZM16.51 14.59C16.27 14.59 16.02 14.59 15.78 14.59C15.76 14.59 15.73 14.59 15.71 14.59C15.4 14.61 15.16 14.84 15.17 15.12C15.17 15.43 15.35 15.65 15.65 15.67C16.21 15.7 16.77 15.7 17.34 15.67C17.65 15.66 17.86 15.37 17.85 15.1C17.83 14.8 17.62 14.6 17.29 14.58C17.03 14.57 16.78 14.58 16.52 14.58L16.51 14.59ZM16.1 18.07C16.1 18.07 16.1 18.07 16.1 18.06C16.25 18.06 16.4 18.08 16.54 18.06C16.85 18.02 17.06 17.77 17.05 17.49C17.03 17.2 16.81 16.98 16.49 16.97C16.22 16.96 15.95 16.97 15.68 16.97C15.36 16.98 15.18 17.18 15.16 17.48C15.14 17.77 15.3 17.97 15.59 18.04C15.75 18.08 15.93 18.07 16.1 18.08V18.07Z" fill="#F9C5D5"/>
<path d="M23.55 22.94C23.55 19.55 23.55 16.17 23.55 12.78C24.34 12.78 25.13 12.78 25.92 12.78C25.92 17.14 25.92 21.51 25.92 25.87C25.13 25.87 24.34 25.87 23.55 25.87C23.55 25.28 23.55 24.69 23.55 24.09C23.87 24.02 24.13 23.87 24.12 23.49C24.12 23.13 23.85 23 23.55 22.93V22.94Z" fill="#EE2F66"/>
<path d="M32.57 17.12C32.93 16.96 33.26 16.8 33.64 16.8C34.38 16.8 34.78 17.2 34.74 17.95C34.74 18.08 34.72 18.22 34.67 18.35C34.54 18.68 34.36 18.95 34.87 19.17C35.17 19.3 35.08 19.78 34.76 20.04C34.02 20.64 33.19 20.75 32.31 20.39C32.09 20.3 31.97 20.32 31.81 20.49C31.33 20.99 30.84 21.47 30.35 21.95C30.03 22.27 29.74 22.3 29.48 22.06C29.21 21.8 29.24 21.52 29.59 21.17C30.07 20.69 30.54 20.21 31.03 19.74C31.21 19.57 31.23 19.43 31.13 19.2C30.78 18.39 30.88 17.62 31.39 16.9C31.55 16.67 31.74 16.44 32.08 16.49C32.42 16.54 32.52 16.8 32.57 17.11V17.12Z" fill="#EE2F66"/>
<path d="M21.59 17.76C22.06 18.34 22.06 18.94 21.72 19.6C20.91 21.16 19.58 21.96 17.9 22.26C17.84 22.27 17.78 22.26 17.72 22.26C17.58 22.26 17.41 22.3 17.34 22.12C17.26 21.93 17.39 21.81 17.51 21.72C17.94 21.4 18.26 20.99 18.55 20.54C18.93 19.95 19.17 19.3 19.28 18.6C19.39 17.89 19.86 17.45 20.59 17.38C20.98 17.36 21.3 17.51 21.6 17.75L21.59 17.76Z" fill="#EE2F66"/>
<path d="M21.59 17.76C21.3 17.52 20.97 17.37 20.58 17.39C20.68 16.93 20.89 16.52 21.08 16.1C21.22 15.8 21.53 15.73 21.79 15.87C22.08 16.03 22.18 16.26 22.05 16.57C21.89 16.97 21.74 17.36 21.58 17.76H21.59Z" fill="#EE2F66"/>
<path d="M11.02 22.94C11.32 23.03 11.55 23.18 11.54 23.53C11.54 23.87 11.31 24.01 11.02 24.09C10.54 24.09 10.06 24.09 9.59001 24.09C9.13001 24.09 8.89 23.88 8.88 23.52C8.88 23.16 9.12001 22.96 9.59001 22.96C10.07 22.96 10.55 22.96 11.02 22.95V22.94Z" fill="#ECB3C2"/>
<path d="M3.93 14.6C4.19 14.6 4.44 14.6 4.7 14.6C5.02 14.61 5.24 14.83 5.26 15.11C5.28 15.39 5.06 15.67 4.76 15.69C4.21 15.71 3.66 15.71 3.11 15.69C2.8 15.68 2.57 15.4 2.58 15.13C2.58 14.82 2.82 14.61 3.16 14.6C3.42 14.6 3.67 14.6 3.93 14.6Z" fill="#ECB3C2"/>
<path d="M3.49999 18.04C3.34999 18.04 3.19999 18.06 3.05999 18.04C2.75999 17.98 2.57999 17.79 2.57999 17.47C2.57999 17.18 2.80999 16.96 3.12999 16.95C3.38999 16.95 3.63999 16.95 3.89999 16.95C4.23999 16.96 4.43999 17.15 4.45999 17.46C4.47999 17.77 4.26999 18.01 3.92999 18.05C3.77999 18.07 3.63999 18.05 3.48999 18.05L3.49999 18.04Z" fill="#ECB3C2"/>
<path d="M36.14 24.09C35.66 24.09 35.18 24.09 34.71 24.09C34.27 24.09 34 23.85 34.01 23.5C34.02 23.16 34.27 22.96 34.71 22.96C35.19 22.96 35.66 22.96 36.14 22.95C36.45 23.02 36.69 23.18 36.69 23.53C36.69 23.87 36.45 24.04 36.14 24.11V24.09Z" fill="#ECB3C2"/>
<path d="M29.09 14.6C29.35 14.6 29.6 14.6 29.86 14.6C30.19 14.62 30.39 14.82 30.4 15.13C30.4 15.43 30.21 15.68 29.89 15.69C29.34 15.71 28.79 15.71 28.24 15.69C27.92 15.68 27.73 15.42 27.74 15.12C27.74 14.81 27.95 14.61 28.28 14.6C28.55 14.59 28.82 14.6 29.09 14.6Z" fill="#ECB3C2"/>
<path d="M28.69 16.95C28.81 16.95 28.93 16.95 29.06 16.95C29.4 16.95 29.6 17.14 29.62 17.46C29.65 17.77 29.46 17.98 29.16 18.04C28.84 18.1 28.5 18.1 28.17 18.04C27.87 17.98 27.71 17.77 27.74 17.45C27.77 17.13 27.96 16.97 28.28 16.96C28.41 16.96 28.55 16.96 28.68 16.96L28.69 16.95Z" fill="#ECB3C2"/>
<path d="M23.55 22.94C23.86 23.01 24.12 23.14 24.12 23.5C24.12 23.87 23.87 24.03 23.55 24.1C23.09 24.1 22.62 24.1 22.16 24.09C21.71 24.09 21.44 23.86 21.45 23.52C21.45 23.18 21.73 22.96 22.17 22.96C22.63 22.96 23.1 22.95 23.56 22.94H23.55Z" fill="#ECB3C2"/>
<path d="M16.51 14.59C16.77 14.59 17.02 14.59 17.28 14.59C17.6 14.6 17.82 14.81 17.84 15.11C17.86 15.39 17.64 15.67 17.33 15.68C16.77 15.7 16.2 15.71 15.64 15.68C15.34 15.66 15.16 15.44 15.16 15.13C15.16 14.84 15.39 14.62 15.7 14.6C15.72 14.6 15.75 14.6 15.77 14.6C16.01 14.6 16.26 14.6 16.5 14.6L16.51 14.59Z" fill="#ECB3C2"/>
<path d="M16.1 18.07C15.93 18.06 15.75 18.07 15.59 18.03C15.31 17.96 15.14 17.76 15.16 17.47C15.18 17.17 15.36 16.97 15.68 16.96C15.95 16.95 16.22 16.95 16.49 16.96C16.81 16.97 17.03 17.19 17.05 17.48C17.06 17.76 16.85 18.02 16.54 18.05C16.4 18.07 16.25 18.05 16.1 18.05C16.1 18.05 16.1 18.05 16.1 18.06V18.07Z" fill="#ECB3C2"/>
</svg>
