<svg width="29" height="23" viewBox="0 0 29 23" fill="none" xmlns="http://www.w3.org/2000/svg">
<path d="M5.25999 22.29C4.29999 22.29 3.33999 22.31 2.37999 22.29C1.56999 22.27 0.969987 21.76 0.729987 20.99C0.629987 20.68 0.709987 20.15 0.729987 20.12C0.989987 19.23 1.62999 18.75 2.54999 18.75C2.90999 18.75 3.25999 18.75 3.61999 18.75C2.21999 18.41 1.33999 17.56 0.819987 16.21C0.619987 15.7 0.729988 14.57 0.739988 14.52C1.03999 13.07 2.18999 11.95 3.61999 11.7C4.12999 11.61 4.63999 11.69 5.14999 11.64C5.72999 11.64 6.30999 11.65 6.88999 11.66C6.84999 11.71 6.79999 11.7 6.73999 11.72C5.86999 11.93 5.12999 12.36 4.59999 13.11C4.06999 13.85 3.83999 14.67 3.93999 15.59C4.03999 16.55 4.47999 17.32 5.19999 17.95C5.43999 18.17 5.70999 18.27 6.05999 18.27C12.25 18.26 18.44 18.27 24.62 18.27C24.7 18.27 24.78 18.27 24.87 18.27C25.14 18.29 25.33 18.51 25.33 18.78C25.33 19.12 25.16 19.25 24.75 19.25C18.13 19.25 11.5 19.25 4.87999 19.25C4.79999 19.25 4.71999 19.25 4.62999 19.25C4.49999 19.25 4.39999 19.3 4.31999 19.4C3.83999 20.03 3.76999 20.78 4.18999 21.48C4.43999 21.9 4.84999 22.11 5.26999 22.31L5.25999 22.29Z" fill="#EE2F66"/>
<path opacity="0.46" d="M5.58 11.65C5 11.65 4.22999 11.69 3.60999 11.69C3.11999 11.69 2.84999 11.69 2.39999 11.65C1.94999 11.61 1.60999 11.45 1.24999 11.18C0.539994 10.65 0.709993 9.48 0.709993 9.46C0.879993 8.69 1.71999 8.03 2.48999 8.1C2.67999 8.12 2.86999 8.1 3.05999 8.1C3.23999 8.1 3.41999 8.1 3.59999 8.1C3.53999 8.05 3.47999 8.02 3.41999 8.01C2.28999 7.73 1.49999 7.06 0.979993 6.02C0.499993 5.05 0.659994 3.85 0.939994 3.14C1.39999 1.97 2.71999 1 4.01999 1.01C4.96999 1.01 5.91999 1.01 6.86999 1.01C6.85999 1.02 6.85 1.04 6.83 1.05C6.02 1.21 5.33999 1.59 4.77999 2.2C4.14999 2.89 3.86999 3.73 3.87999 4.64C3.87999 5.46 4.18 6.22 4.72 6.85C5.12 7.32 5.55999 7.63001 6.26999 7.63001C12.42 7.60001 18.57 7.61 24.73 7.61C25.11 7.61 25.28 7.74001 25.3 8.04001C25.32 8.39001 25.11 8.59 24.73 8.59C18.09 8.59 5.59 8.32 4.58 8.59C3.29 8.94 3.62999 11.37 5.54999 11.65H5.58Z" fill="#EE2F66"/>
<path d="M5.03999 11.63C3.62999 11.08 3.28999 9.47 4.22999 8.72C4.69999 8.35 5.92999 8.47 6.65999 8.44C13.46 8.37 18.11 8.59 24.76 8.59C25.14 8.59 25.35 8.38 25.33 8.04C25.31 7.74 25.14 7.61 24.76 7.61C18.61 7.61 12.46 7.6 6.29999 7.63C5.59999 7.63 5.14999 7.32 4.74999 6.85C4.20999 6.22 3.91999 5.46 3.90999 4.64C3.90999 3.73 4.16999 2.9 4.80999 2.2C5.36999 1.59 5.99999 1.23 6.89999 1.01C6.94999 0.940001 20.73 1.01 26.86 1.01C27.61 1.01 28.15 1.39 28.45 2.07C28.73 2.7 28.5 3.55 28.06 4C20.33 4 12.6 4 4.85999 4C4.80999 4 4.74999 4 4.69999 4C4.49999 4.01 4.35998 4.11 4.27998 4.3C4.18998 4.49 4.21999 4.66 4.35999 4.83C4.54999 5.04 4.80999 5.04 5.05999 5.04C12.16 5.04 26.58 5.05 26.69 4.99C27.34 5.26 27.79 5.75 28.12 6.35C28.86 7.7 28.76 9.02 27.86 10.25C27.38 10.91 26.74 11.25 25.76 11.63C25.7 11.63 25.63 11.63 25.57 11.63C19.58 11.63 13.59 11.63 7.59998 11.63C7.35998 11.63 7.12999 11.63 6.88999 11.63C6.30999 11.63 5.61999 11.62 5.03999 11.61V11.63Z" fill="#ECB3C2"/>
<path d="M6.89 11.65C7.13 11.65 7.36 11.65 7.6 11.65C13.59 11.65 19.58 11.65 25.57 11.65C25.63 11.65 25.7 11.65 25.76 11.65C26.08 11.65 26.39 11.65 26.71 11.65C27.5 11.65 28.1 11.98 28.43 12.71C28.76 13.45 28.6 14.12 28.04 14.71C27.95 14.62 27.83 14.66 27.73 14.66C20.12 14.66 12.52 14.66 4.91 14.66C4.85 14.66 4.78 14.66 4.72 14.66C4.53 14.7 4.35 14.75 4.27 14.96C4.12 15.34 4.36 15.69 4.8 15.69C5.62 15.69 6.44 15.69 7.25 15.69C13.76 15.69 20.26 15.69 26.77 15.69C27.39 15.96 27.81 16.44 28.13 17.01C29.48 19.4 27.77 22.29 25.02 22.3C18.66 22.3 12.3 22.3 5.94 22.3C5.71 22.3 5.49 22.36 5.26 22.3C4.84 22.1 4.43 21.89 4.18 21.47C3.77 20.77 3.83 20.03 4.31 19.39C4.38 19.29 4.49 19.24 4.62 19.24C4.7 19.24 4.78 19.24 4.87 19.24C11.49 19.24 18.12 19.24 24.74 19.24C25.15 19.24 25.32 19.11 25.32 18.77C25.32 18.51 25.13 18.29 24.86 18.26C24.78 18.26 24.7 18.26 24.61 18.26C18.42 18.26 12.23 18.26 6.05 18.26C5.7 18.26 5.43 18.15 5.19 17.94C4.48 17.31 4.04 16.54 3.93 15.58C3.83 14.66 4.07 13.85 4.59 13.1C5.12 12.36 5.86 11.93 6.73 11.71C6.78 11.7 6.84 11.71 6.88 11.65H6.89Z" fill="#E18AA1"/>
<path d="M26.77 15.68C20.26 15.68 13.76 15.68 7.24999 15.68C6.42999 15.68 5.60999 15.68 4.79999 15.68C4.36999 15.68 4.11999 15.32 4.26999 14.95C4.34999 14.75 4.52999 14.69 4.71999 14.65C4.77999 14.64 4.84999 14.65 4.90999 14.65C12.52 14.65 28 14.55 28.09 14.65C27.76 14.98 27.31 15.2 26.85 15.2C26.43 15.2 26.02 15.2 25.53 15.2C26 15.34 26.34 15.44 26.77 15.69V15.68Z" fill="#EE2F66"/>
<path opacity="0.46" d="M26.69 4.99C26.58 5.06 12.15 5.05 5.05999 5.04C4.80999 5.04 4.54999 5.04 4.35999 4.83C4.20999 4.67 4.18999 4.5 4.27999 4.3C4.35999 4.12 4.49999 4.02 4.69999 4C4.74999 4 4.80999 4 4.85999 4C12.59 4 20.32 4 28.06 4C27.76 4.37 27.35 4.52 26.9 4.54C26.49 4.56 26.09 4.54 25.68 4.56C26.03 4.68 26.31 4.75 26.71 4.98L26.69 4.99Z" fill="#EE2F66"/>
</svg>
