<svg width="37" height="32" viewBox="0 0 37 32" fill="none" xmlns="http://www.w3.org/2000/svg">
<path d="M36.06 18.81C35.5 19.16 34.87 18.97 34.27 19.02C23.75 19.02 13.24 19.02 2.72 19.02C2.46 19.02 2.2 19.01 1.94 19.02C1.58 19.05 1.25 19 0.940002 18.81C0.940002 18.58 0.940002 18.35 0.940002 18.12C1.28 17.89 1.66999 17.91 2.04999 17.91C3.68999 17.91 5.33 17.91 6.97 17.91C7.34 17.91 7.70001 17.91 8.07001 17.91C17.03 17.91 25.98 17.91 34.94 17.91C35.33 17.91 35.71 17.88 36.05 18.12C36.06 18.35 36.06 18.58 36.06 18.81Z" fill="#F9C5D5"/>
<path d="M8.07999 17.92C7.70999 17.92 7.35001 17.92 6.98001 17.92C6.98001 12.82 6.98001 7.72001 6.98001 2.63001C6.98001 1.31001 7.92999 0.36 9.23999 0.37C9.94999 0.38 10.66 0.270007 11.36 0.440007C12.33 0.670007 13.02 1.56 13.02 2.56C13.02 3.11 13.02 3.66001 13.02 4.21001C12.65 4.21001 12.28 4.21001 11.91 4.21001C11.91 3.66001 11.92 3.11001 11.91 2.57001C11.9 1.97001 11.42 1.48 10.82 1.48C10.29 1.47 9.76999 1.48 9.23999 1.48C8.52999 1.48 8.06 1.95001 8.06 2.66001C8.06 6.47001 8.06 10.29 8.06 14.1C8.06 14.83 8.06 15.57 8.06 16.3C8.08 16.82 8.07999 17.37 8.07999 17.92Z" fill="#EE2F66"/>
<path d="M8.07999 16.28C8.07999 15.55 8.07999 14.81 8.07999 14.08C8.34999 14.08 8.62999 14.07 8.89999 14.09C9.10999 14.1 9.18999 14.03 9.17999 13.82C9.15999 13.56 9.16999 13.29 9.17999 13.03C9.18999 12.67 9.38999 12.45 9.70999 12.44C10.04 12.43 10.27 12.66 10.27 13.03C10.28 13.92 10.28 14.81 10.27 15.7C10.27 16.07 10.06 16.27 9.69 16.27C9.16 16.28 8.61999 16.28 8.07999 16.28Z" fill="#EE2F66"/>
<path d="M13.57 5.85001C13.92 5.85001 14.28 5.85001 14.63 5.85001C14.99 5.86001 15.21 6.06001 15.21 6.38001C15.22 6.72001 14.99 6.94001 14.62 6.94001C13.18 6.94001 11.75 6.94001 10.31 6.94001C9.94001 6.94001 9.71001 6.71001 9.72001 6.38001C9.73001 6.06001 9.95 5.85001 10.3 5.85001C10.65 5.84001 11.01 5.85001 11.36 5.85001C12.1 5.85001 12.84 5.85001 13.57 5.85001Z" fill="#F9C5D5"/>
<path d="M13.57 5.85001C12.84 5.85001 12.1 5.85001 11.37 5.85001C11.37 5.51001 11.37 5.17 11.37 4.84C11.37 4.44 11.5 4.29 11.91 4.2C12.28 4.2 12.65 4.2 13.02 4.2C13.43 4.29 13.56 4.44 13.56 4.84C13.57 5.17 13.57 5.51001 13.57 5.85001Z" fill="#EE2F66"/>
<path d="M27.9 28.27C27.59 28.36 27.27 28.34 26.95 28.34C21.44 28.34 15.93 28.34 10.41 28.34C10.41 28.23 10.42 28.11 10.4 28C10.23 27.26 10.05 26.52 9.89001 25.78C9.76001 25.16 9.57999 24.55 9.57999 23.9C9.58999 21.79 11.31 20.12 13.37 20.12C20.22 20.11 27.08 20.12 33.93 20.12C33.64 21.17 33.35 22.22 33.08 23.27C32.84 24.18 32.55 25.05 31.99 25.82C31.59 26.37 31.11 26.83 30.58 27.24C29.75 27.75 28.88 28.16 27.9 28.27Z" fill="#F9C5D5"/>
<path d="M33.94 20.11C27.09 20.11 20.23 20.1 13.38 20.11C11.32 20.11 9.6 21.78 9.59 23.89C9.59 24.54 9.76999 25.15 9.89999 25.77C10.06 26.51 10.24 27.25 10.41 27.99C10.43 28.1 10.42 28.22 10.42 28.33C9.99001 28.33 9.56 28.34 9.13 28.34C9.08 28.32 9.03001 28.28 8.98001 28.27C8.05001 28.13 7.22 27.76 6.44 27.24C4.95 26.18 4.24001 24.66 3.82001 22.94C3.50001 21.62 3.10001 20.31 2.73001 19C13.25 19 23.76 19 34.28 19C34.15 19.38 34.11 19.77 33.94 20.11Z" fill="#EE2F66"/>
<path d="M27.9 28.27C28.88 28.16 29.75 27.75 30.58 27.24C30.58 28.05 30.59 28.85 30.58 29.66C30.58 30.01 30.64 30.31 30.94 30.53C30.2 30.53 29.46 30.53 28.72 30.53C28.42 29.79 28.09 29.06 27.9 28.27Z" fill="#EE2F66"/>
<path d="M6.44 27.25C7.22 27.77 8.05001 28.14 8.98001 28.28C9.03001 28.29 9.08 28.33 9.13 28.35C8.87 29.08 8.6 29.8 8.34 30.53C7.74 30.53 7.14999 30.54 6.54999 30.53C6.41999 30.53 6.28001 30.58 6.17001 30.47C6.38001 30.3 6.45001 30.08 6.45001 29.81C6.43001 28.96 6.44 28.11 6.44 27.25Z" fill="#EE2F66"/>
<path d="M6.16 30.47C6.27 30.59 6.42 30.53 6.54 30.53C7.14 30.53 7.72998 30.53 8.32998 30.53C8.01998 31.3 7.52001 31.63 6.70001 31.63C6.43001 31.63 6.15 31.63 5.88 31.63C5.56 31.62 5.34998 31.44 5.32998 31.14C5.30998 30.79 5.48 30.58 5.82 30.53C5.94 30.52 6.05 30.49 6.16 30.47Z" fill="#F9C5D5"/>
<path d="M28.73 30.54C29.47 30.54 30.21 30.54 30.95 30.54C31.57 30.47 31.73 30.86 31.68 31.21C31.65 31.44 31.5 31.62 31.29 31.63C30.79 31.65 30.29 31.72 29.8 31.58C29.27 31.42 28.89 31.09 28.73 30.54Z" fill="#F9C5D5"/>
</svg>
