<svg width="31" height="27" viewBox="0 0 31 27" fill="none" xmlns="http://www.w3.org/2000/svg">
<path d="M0.529999 25.73C0.529999 23.47 0.529999 21.21 0.529999 18.95C0.719999 18.46 1.03 18.14 1.59 18.12C1.75 18.12 1.91001 18.12 2.07001 18.12C10.76 18.12 19.46 18.12 28.15 18.12C28.38 18.12 28.6 18.12 28.83 18.07C29.16 18.17 29.5 18.11 29.83 18.11C30.52 18.12 30.97 18.55 30.97 19.24C30.97 21.3 30.97 23.36 30.97 25.42C30.97 25.52 30.96 25.62 30.94 25.71C30.81 26.22 30.42 26.49 29.82 26.49C20.5 26.49 11.18 26.49 1.85999 26.5C1.21999 26.51 0.789999 26.3 0.529999 25.73ZM16.28 24.41C16.28 24.13 16.02 23.88 15.74 23.89C15.47 23.9 15.23 24.14 15.23 24.41C15.23 24.69 15.47 24.94 15.75 24.94C16.03 24.94 16.28 24.69 16.28 24.41ZM3.14001 24.94C3.42001 24.95 3.66999 24.7 3.67999 24.42C3.67999 24.14 3.42999 23.89 3.14999 23.89C2.87999 23.89 2.63 24.13 2.63 24.39C2.63 24.68 2.86001 24.94 3.14001 24.94ZM28.87 24.43C28.88 24.15 28.63 23.9 28.35 23.9C28.08 23.9 27.84 24.13 27.82 24.4C27.81 24.68 28.05 24.94 28.33 24.95C28.61 24.95 28.86 24.71 28.87 24.43ZM7.89001 24.42C7.89001 24.14 7.63999 23.89 7.35999 23.89C7.08999 23.89 6.85 24.13 6.84 24.39C6.83 24.68 7.07001 24.94 7.35001 24.94C7.62001 24.94 7.88001 24.69 7.89001 24.42ZM24.66 24.4C24.66 24.14 24.42 23.9 24.15 23.89C23.87 23.88 23.62 24.13 23.62 24.41C23.62 24.68 23.88 24.94 24.16 24.94C24.42 24.94 24.66 24.69 24.66 24.4ZM15.73 20.73C16.01 20.74 16.27 20.49 16.27 20.22C16.27 19.95 16.01 19.68 15.75 19.68C15.48 19.68 15.23 19.94 15.22 20.22C15.23 20.48 15.47 20.72 15.73 20.73ZM7.89001 20.2C7.88001 19.95 7.58999 19.68 7.32999 19.69C7.04999 19.7 6.83 19.96 6.84 20.25C6.85 20.54 7.06999 20.74 7.37 20.73C7.65 20.72 7.89001 20.48 7.89001 20.2ZM24.14 20.73C24.44 20.74 24.65 20.54 24.66 20.24C24.67 19.95 24.43 19.69 24.15 19.69C23.9 19.69 23.62 19.95 23.61 20.2C23.61 20.48 23.85 20.72 24.14 20.73ZM9.47 21.81C9.18 21.8 8.91999 22.05 8.92999 22.32C8.92999 22.58 9.18 22.84 9.44 22.85C9.72 22.86 9.97001 22.63 9.98001 22.36C9.99001 22.06 9.77 21.81 9.47 21.81ZM13.66 21.81C13.36 21.81 13.15 22 13.14 22.3C13.13 22.6 13.37 22.85 13.65 22.85C13.92 22.85 14.19 22.58 14.19 22.31C14.18 22.04 13.94 21.81 13.66 21.81ZM18.36 22.32C18.37 22.02 18.17 21.81 17.87 21.8C17.58 21.79 17.32 22.03 17.32 22.31C17.32 22.58 17.59 22.85 17.86 22.85C18.13 22.85 18.36 22.61 18.36 22.32ZM22.05 21.81C21.75 21.81 21.52 22.04 21.52 22.33C21.52 22.6 21.75 22.84 22.04 22.84C22.31 22.85 22.58 22.58 22.57 22.31C22.57 22.05 22.32 21.81 22.05 21.81ZM28.33 20.73C28.62 20.73 28.88 20.49 28.87 20.22C28.87 19.95 28.62 19.71 28.36 19.7C28.07 19.69 27.82 19.93 27.82 20.22C27.83 20.5 28.05 20.73 28.33 20.73ZM3.67999 20.21C3.67999 19.94 3.45001 19.7 3.17001 19.7C2.90001 19.69 2.63 19.95 2.63 20.23C2.63 20.49 2.87999 20.73 3.14999 20.74C3.43999 20.74 3.67999 20.5 3.67999 20.21ZM12.06 24.43C12.06 24.13 11.83 23.89 11.55 23.89C11.28 23.89 11.04 24.13 11.03 24.4C11.02 24.67 11.28 24.94 11.55 24.94C11.82 24.94 12.06 24.7 12.06 24.43ZM19.44 24.42C19.44 24.69 19.68 24.94 19.94 24.95C20.22 24.96 20.48 24.7 20.48 24.42C20.48 24.14 20.23 23.89 19.94 23.9C19.66 23.9 19.44 24.13 19.44 24.42ZM19.95 20.73C20.25 20.73 20.48 20.5 20.48 20.21C20.48 19.95 20.22 19.7 19.96 19.69C19.68 19.68 19.44 19.94 19.45 20.23C19.44 20.53 19.65 20.73 19.95 20.73ZM12.06 20.23C12.07 19.93 11.83 19.68 11.55 19.68C11.29 19.68 11.03 19.94 11.03 20.19C11.03 20.48 11.26 20.72 11.55 20.72C11.85 20.73 12.06 20.53 12.06 20.23ZM26.75 22.34C26.75 22.02 26.55 21.81 26.25 21.81C25.95 21.81 25.75 22.01 25.74 22.31C25.73 22.6 25.97 22.85 26.24 22.85C26.51 22.85 26.74 22.61 26.75 22.34ZM4.75 22.32C4.75 22.6 4.97999 22.84 5.23999 22.84C5.51999 22.85 5.76001 22.6 5.76001 22.31C5.76001 22.01 5.56001 21.81 5.26001 21.8C4.96001 21.8 4.75 22.01 4.75 22.32Z" fill="#EE2F66"/>
<path d="M30.96 5.58998C30.92 6.10998 30.51 6.55999 29.98 6.56999C29.53 6.56999 29.22 6.76998 28.93 7.08998C28.07 8.06998 27.04 8.83998 25.85 9.36998C24.73 9.87998 23.54 10.12 22.33 10.24C22.22 10.24 22.11 10.25 22 10.25C18.02 10.25 14.04 10.25 10.06 10.25C9.94 10.25 9.82001 10.24 9.70001 10.23C9.25001 10.22 8.79 10.2 8.34 10.14C5.97 9.79 3.97 8.76998 2.41 6.92998C2.24 6.72998 2.00999 6.58998 1.73999 6.58998C1.12999 6.59998 0.729989 6.30999 0.519989 5.74999V5.26997C0.739989 4.77997 1.08999 4.47998 1.64999 4.45998C1.97999 4.44998 2.26 4.29999 2.47 4.03999C4.29 1.90999 6.66 0.859993 9.41 0.819993C13.57 0.749993 17.73 0.799973 21.89 0.799973C22.49 0.799973 23.07 0.869996 23.66 0.979996C25.78 1.39 27.58 2.36998 28.99 4.02998C29.2 4.27998 29.46 4.43999 29.81 4.43999C29.91 4.43999 30.01 4.46 30.1 4.48C30.65 4.62 31 5.06998 30.96 5.58998Z" fill="#F9C5D5"/>
<path d="M22.34 10.24C23.67 10.24 25.01 10.25 26.34 10.25C27.46 10.25 28.57 10.24 29.69 10.26C30.3 10.27 30.76 10.65 30.92 11.23C31.07 11.77 30.85 12.34 30.37 12.65C30.12 12.81 29.85 12.86 29.55 12.88C29.33 12.89 29.1 12.8 28.89 12.94C28.5 12.86 28.1 12.89 27.71 12.89C24.17 12.89 20.64 12.89 17.1 12.89C12.48 12.89 7.87 12.89 3.25 12.89C2.88 12.89 2.59999 13.11 2.60999 13.4C2.60999 13.68 2.88 13.9 3.22 13.9C12.16 13.9 21.11 13.9 30.05 13.9C30.16 13.9 30.27 13.93 30.36 13.84C31.6 15.48 30.81 17.63 28.81 18.07C28.59 18.11 28.36 18.12 28.13 18.12C19.44 18.12 10.74 18.12 2.04999 18.12C1.88999 18.12 1.72999 18.12 1.57999 18.12C1.03999 17.95 0.679989 17.6 0.519989 17.05C0.519989 16.89 0.519989 16.73 0.519989 16.57C0.619989 16.57 0.720007 16.57 0.820007 16.57C9.88001 16.57 18.94 16.57 28.01 16.57C28.18 16.57 28.35 16.59 28.51 16.5C28.72 16.39 28.89 16.24 28.87 15.97C28.84 15.7 28.63 15.51 28.35 15.5C28.29 15.5 28.23 15.5 28.17 15.5C19.81 15.5 11.45 15.5 3.09 15.5C2.98 15.5 2.87001 15.49 2.76001 15.49C1.77001 15.26 1.04999 14.72 0.679993 13.75C0.629993 13.6 0.629999 13.44 0.529999 13.31C0.529999 12.99 0.529999 12.68 0.529999 12.36C0.619999 12.31 0.620015 12.21 0.640015 12.13C0.970015 11.13 1.65001 10.52 2.67001 10.3C3.02001 10.23 3.37999 10.26 3.73999 10.26C5.72999 10.25 7.71999 10.25 9.70999 10.24C9.82999 10.25 9.95001 10.26 10.07 10.26C14.05 10.26 18.03 10.26 22.01 10.26C22.12 10.26 22.23 10.25 22.34 10.24Z" fill="#ECB3C2"/>
<path d="M2.76999 15.49C2.87999 15.49 2.99001 15.5 3.10001 15.5C11.46 15.5 19.82 15.5 28.18 15.5C28.24 15.5 28.3 15.5 28.36 15.5C28.64 15.52 28.86 15.7 28.88 15.97C28.91 16.23 28.73 16.39 28.52 16.5C28.37 16.58 28.19 16.57 28.02 16.57C18.96 16.57 9.89999 16.57 0.829987 16.57C0.729987 16.57 0.629999 16.57 0.529999 16.57C0.529999 16.53 0.529999 16.49 0.529999 16.45C0.549999 16.42 0.579996 16.39 0.589996 16.36C0.839996 15.77 1.27999 15.48 1.92999 15.49C2.20999 15.5 2.48999 15.49 2.76999 15.49Z" fill="#EE2F66"/>
<path d="M16.28 24.41C16.28 24.69 16.03 24.94 15.75 24.94C15.47 24.94 15.22 24.69 15.23 24.41C15.23 24.14 15.47 23.9 15.74 23.89C16.02 23.88 16.27 24.13 16.28 24.41Z" fill="#F9C5D5"/>
<path d="M3.14001 24.94C2.86001 24.93 2.62 24.68 2.63 24.39C2.63 24.13 2.87999 23.89 3.14999 23.89C3.42999 23.89 3.67999 24.14 3.67999 24.42C3.67999 24.7 3.42001 24.95 3.14001 24.94Z" fill="#F9C5D5"/>
<path d="M28.87 24.43C28.86 24.71 28.61 24.96 28.33 24.95C28.05 24.94 27.81 24.68 27.82 24.4C27.83 24.13 28.08 23.9 28.35 23.9C28.63 23.89 28.88 24.15 28.87 24.43Z" fill="#F9C5D5"/>
<path d="M7.89001 24.42C7.89001 24.69 7.62001 24.94 7.35001 24.94C7.08001 24.94 6.84 24.68 6.84 24.39C6.85 24.13 7.08999 23.89 7.35999 23.89C7.63999 23.89 7.89001 24.14 7.89001 24.42Z" fill="#F9C5D5"/>
<path d="M24.66 24.4C24.66 24.69 24.42 24.94 24.15 24.94C23.88 24.94 23.61 24.68 23.61 24.41C23.61 24.13 23.86 23.88 24.14 23.89C24.42 23.9 24.66 24.13 24.66 24.4Z" fill="#F9C5D5"/>
<path d="M15.73 20.73C15.46 20.72 15.22 20.48 15.22 20.22C15.22 19.95 15.48 19.68 15.75 19.68C16.02 19.68 16.27 19.95 16.27 20.22C16.27 20.49 16.02 20.74 15.73 20.73Z" fill="#F9C5D5"/>
<path d="M7.89001 20.2C7.90001 20.48 7.65999 20.73 7.36999 20.73C7.06999 20.74 6.85999 20.54 6.83999 20.25C6.82999 19.96 7.04998 19.7 7.32998 19.69C7.57998 19.68 7.88001 19.94 7.89001 20.2Z" fill="#F9C5D5"/>
<path d="M24.14 20.73C23.85 20.72 23.61 20.48 23.62 20.2C23.63 19.96 23.91 19.69 24.16 19.69C24.44 19.69 24.68 19.95 24.67 20.24C24.65 20.54 24.44 20.74 24.14 20.73Z" fill="#F9C5D5"/>
<path d="M9.47 21.81C9.76 21.82 9.99 22.06 9.97 22.36C9.96 22.63 9.70999 22.86 9.42999 22.85C9.16999 22.84 8.92001 22.59 8.92001 22.32C8.93001 22.04 9.19 21.8 9.47 21.81Z" fill="#F9C5D5"/>
<path d="M13.66 21.81C13.94 21.81 14.18 22.05 14.18 22.31C14.18 22.58 13.91 22.85 13.64 22.85C13.36 22.85 13.13 22.59 13.13 22.3C13.15 22 13.36 21.8 13.66 21.81Z" fill="#F9C5D5"/>
<path d="M18.36 22.32C18.36 22.6 18.13 22.84 17.86 22.84C17.59 22.84 17.32 22.57 17.32 22.3C17.32 22.02 17.58 21.79 17.87 21.79C18.17 21.81 18.37 22.02 18.36 22.32Z" fill="#F9C5D5"/>
<path d="M22.05 21.81C22.32 21.81 22.57 22.05 22.57 22.31C22.57 22.59 22.31 22.85 22.04 22.84C21.76 22.83 21.52 22.6 21.52 22.33C21.52 22.03 21.75 21.8 22.05 21.81Z" fill="#F9C5D5"/>
<path d="M28.33 20.73C28.05 20.73 27.83 20.5 27.82 20.21C27.82 19.92 28.07 19.68 28.36 19.69C28.62 19.7 28.87 19.95 28.87 20.21C28.88 20.49 28.62 20.73 28.33 20.73Z" fill="#F9C5D5"/>
<path d="M3.67999 20.21C3.67999 20.51 3.43999 20.74 3.14999 20.73C2.86999 20.72 2.63 20.49 2.63 20.22C2.63 19.94 2.89001 19.68 3.17001 19.69C3.45001 19.7 3.67999 19.93 3.67999 20.21Z" fill="#F9C5D5"/>
<path d="M12.06 24.43C12.06 24.7 11.81 24.95 11.55 24.94C11.27 24.94 11.02 24.67 11.03 24.4C11.04 24.13 11.28 23.89 11.55 23.89C11.84 23.89 12.07 24.13 12.06 24.43Z" fill="#F9C5D5"/>
<path d="M19.44 24.42C19.44 24.13 19.66 23.9 19.94 23.9C20.22 23.89 20.48 24.14 20.48 24.42C20.48 24.7 20.22 24.95 19.94 24.95C19.67 24.94 19.44 24.69 19.44 24.42Z" fill="#F9C5D5"/>
<path d="M19.95 20.73C19.65 20.73 19.45 20.53 19.44 20.23C19.44 19.94 19.68 19.68 19.95 19.69C20.21 19.69 20.47 19.95 20.47 20.21C20.47 20.5 20.25 20.73 19.95 20.73Z" fill="#F9C5D5"/>
<path d="M12.06 20.23C12.05 20.53 11.85 20.73 11.55 20.73C11.25 20.73 11.02 20.5 11.03 20.2C11.03 19.95 11.3 19.69 11.55 19.69C11.83 19.69 12.07 19.94 12.06 20.23Z" fill="#F9C5D5"/>
<path d="M26.75 22.34C26.75 22.62 26.51 22.85 26.24 22.85C25.96 22.85 25.73 22.6 25.74 22.31C25.75 22.01 25.95 21.81 26.25 21.81C26.55 21.81 26.75 22.02 26.75 22.34Z" fill="#F9C5D5"/>
<path d="M4.75 22.32C4.75 22 4.95001 21.8 5.26001 21.8C5.56001 21.8 5.76001 22.01 5.76001 22.31C5.76001 22.6 5.51999 22.85 5.23999 22.84C4.97999 22.84 4.75 22.6 4.75 22.32Z" fill="#F9C5D5"/>
<path d="M30.37 13.84C30.28 13.93 30.17 13.9 30.06 13.9C21.12 13.9 12.17 13.9 3.23001 13.9C2.89001 13.9 2.62 13.68 2.62 13.4C2.62 13.11 2.89001 12.89 3.26001 12.89C7.88001 12.89 12.49 12.89 17.11 12.89C20.65 12.89 24.18 12.89 27.72 12.89C28.11 12.89 28.51 12.87 28.9 12.94C29.5 13.05 29.99 13.36 30.37 13.84Z" fill="#EE2F66"/>
</svg>
