<svg width="15" height="21" viewBox="0 0 15 21" fill="none" xmlns="http://www.w3.org/2000/svg">
    <path opacity="0.9"
          d="M0.619992 20.89C0.619992 17.2 0.609994 13.51 0.629994 9.80999C0.629994 9.07999 0.899991 8.37999 1.27999 7.74999C1.98999 6.57999 3.01999 5.84999 4.34999 5.53999C4.47999 5.50999 4.61999 5.48999 4.74999 5.46999C5.00999 5.42999 5.26999 5.42999 5.52999 5.42999C6.25999 5.42999 6.97999 5.42999 7.70999 5.42999C7.70999 5.81999 7.70999 6.21999 7.70999 6.60999C6.87999 6.60999 6.04999 6.60999 5.22999 6.60999C5.03999 6.60999 4.84999 6.62999 4.66999 6.66999C3.85999 6.84999 3.16999 7.22999 2.62999 7.87999C2.10999 8.49999 1.80999 9.20999 1.80999 10.02C1.79999 13.17 1.80999 16.31 1.80999 19.46C1.80999 19.65 1.85999 19.7 2.04999 19.7C3.93999 19.7 5.82999 19.7 7.71999 19.7C7.71999 20.09 7.71999 20.49 7.71999 20.88H0.629994L0.619992 20.89Z"
          fill="#D47B95"/>
    <path d="M7.72 6.62C7.72 6.23 7.72 5.83 7.72 5.44C8.71 5.46 9.69 5.4 10.68 5.48C12.65 5.74 14.28 7.19 14.7 9.17C14.78 9.54 14.81 9.92 14.81 10.3C14.81 13.83 14.81 17.37 14.81 20.9H7.72C7.72 20.51 7.72 20.11 7.72 19.72C9.61 19.72 11.5 19.72 13.39 19.72C13.58 19.72 13.63 19.67 13.63 19.48C13.63 16.34 13.63 13.2 13.63 10.06C13.63 9.99 13.63 9.91 13.63 9.84C13.5 8.86 13.09 8.03 12.31 7.4C11.73 6.93 11.06 6.65 10.31 6.63C9.45 6.6 8.59 6.63 7.73 6.63L7.72 6.62Z"
          fill="#D47B95"/>
    <path d="M5.93999 3.07C5.93999 2.68 5.93999 2.28 5.93999 1.89H7.62999C7.62999 1.89 7.62999 1.86999 7.62999 1.84999C7.26999 1.66999 6.91999 1.49 6.51999 1.29C6.85999 1.12 7.13999 0.979998 7.42999 0.829998C7.48999 0.799998 7.56999 0.789997 7.58999 0.699997C9.53999 0.699997 11.5 0.699997 13.45 0.699997C13.58 0.699997 13.62 0.739995 13.62 0.869995C13.62 1.15 13.61 1.43 13.62 1.72C13.62 1.89 13.54 1.89 13.41 1.89C12.1 1.89 10.79 1.89 9.47999 1.89C8.94999 1.89 8.41999 1.89 7.88999 1.89C7.74999 1.89 7.68999 1.92 7.69999 2.08C7.70999 2.41 7.69999 2.75 7.69999 3.08C7.10999 3.08 6.51999 3.08 5.92999 3.08L5.93999 3.07Z"
          fill="#EE2F66"/>
    <path d="M5.94 3.07C6.53 3.07 7.12 3.07 7.71 3.07C7.71 3.86 7.71 4.65 7.71 5.43C6.98 5.43 6.26 5.43 5.53 5.43C5.27 5.43 5.01 5.43 4.75 5.47C4.75 4.73 4.75 3.99999 4.75 3.25999C4.75 3.09999 4.8 3.06 4.95 3.06C5.28 3.07 5.61 3.06 5.94 3.06V3.07Z"
          fill="#FFC8DA"/>
    <path d="M7.71999 5.44C7.71999 4.65 7.71999 3.86 7.71999 3.08C8.30999 3.08 8.89999 3.08 9.48999 3.08C9.81999 3.08 10.16 3.08 10.49 3.08C10.63 3.08 10.67 3.12 10.67 3.26C10.67 4 10.67 4.74 10.67 5.49C9.67999 5.41 8.69999 5.47 7.70999 5.45L7.71999 5.44Z"
          fill="#E18AA1"/>
    <path d="M7.59999 0.709991C7.58999 0.799991 7.49999 0.809993 7.43999 0.839993C7.15999 0.989993 6.86999 1.12999 6.52999 1.29999C6.91999 1.49999 7.27999 1.67999 7.63999 1.85999C7.63999 1.86999 7.63999 1.87999 7.63999 1.89999H5.94999C5.61999 1.89999 5.27999 1.89999 4.94999 1.89999C4.81999 1.89999 4.75999 1.86999 4.76999 1.72999C4.76999 1.44999 4.76999 1.16999 4.76999 0.879993C4.76999 0.749993 4.80999 0.709991 4.93999 0.709991C5.82999 0.709991 6.71999 0.709991 7.60999 0.709991H7.59999Z"
          fill="#FFC8DA"/>
    <path d="M9.49 3.07C8.9 3.07 8.31 3.07 7.72 3.07C7.72 2.74 7.72 2.4 7.72 2.07C7.72 1.92 7.77 1.88 7.91 1.88C8.44 1.88 8.97 1.88 9.5 1.88C9.5 2.27 9.5 2.67001 9.5 3.06001L9.49 3.07Z"
          fill="#EE2F66"/>
    <path opacity="0.88"
          d="M7.72 19.71C5.83 19.71 3.94 19.71 2.05 19.71C1.86 19.71 1.81 19.66 1.81 19.47C1.81 16.32 1.81 13.18 1.81 10.03C1.81 9.22999 2.12 8.52 2.63 7.89C3.17 7.24 3.85999 6.86 4.66999 6.68C4.84999 6.64 5.04 6.62 5.23 6.62C6.06 6.62 6.88 6.62 7.71 6.62C7.71 7.8 7.71 8.98 7.71 10.16C6.21 10.16 4.72 10.16 3.22 10.16C3.04 10.16 2.97 10.19 2.97 10.39C2.97 13.02 2.97 15.66 2.97 18.29C2.97 18.49 3.03 18.52 3.22 18.52C4.72 18.52 6.21 18.52 7.71 18.52C7.71 18.91 7.71 19.31 7.71 19.7L7.72 19.71Z"
          fill="#EE2F66"/>
    <path d="M7.71999 10.17C7.71999 8.99 7.71999 7.81 7.71999 6.63C8.57999 6.63 9.43999 6.6 10.3 6.63C11.04 6.66 11.72 6.93 12.3 7.4C13.08 8.03 13.49 8.86 13.62 9.84C13.62 9.91 13.62 9.98 13.62 10.06C13.62 13.2 13.62 16.34 13.62 19.48C13.62 19.67 13.57 19.72 13.38 19.72C11.49 19.72 9.59999 19.72 7.70999 19.72C7.70999 19.33 7.70999 18.93 7.70999 18.54C9.22999 18.54 10.74 18.54 12.26 18.54C12.41 18.54 12.44 18.49 12.44 18.35C12.44 15.69 12.44 13.03 12.44 10.37C12.44 10.23 12.41 10.18 12.26 10.18C10.74 10.18 9.22999 10.18 7.70999 10.18L7.71999 10.17Z"
          fill="#EE2F66"/>
    <path d="M7.71998 18.53C6.21998 18.53 4.72998 18.53 3.22998 18.53C3.04998 18.53 2.97998 18.5 2.97998 18.3C2.97998 15.67 2.97998 13.03 2.97998 10.4C2.97998 10.2 3.03998 10.17 3.22998 10.17C4.72998 10.17 6.21998 10.17 7.71998 10.17C7.71998 12.95 7.71998 15.74 7.71998 18.52V18.53Z"
          fill="#FFC8DA"/>
    <path d="M7.72 18.53C7.72 15.75 7.72 12.96 7.72 10.18C9.24 10.18 10.75 10.18 12.27 10.18C12.42 10.18 12.45 10.23 12.45 10.37C12.45 13.03 12.45 15.69 12.45 18.35C12.45 18.49 12.42 18.54 12.27 18.54C10.75 18.54 9.24 18.54 7.72 18.54V18.53Z"
          fill="#ECB3C2"/>
</svg>
