<svg width="19" height="27" viewBox="0 0 19 27" fill="none" xmlns="http://www.w3.org/2000/svg">
    <path opacity="0.8"
          d="M18.17 13.52C18.08 13.9 17.9 14.24 17.75 14.6C17.55 15.08 17.45 15.58 17.45 16.1C17.45 17.12 17.45 18.14 17.45 19.17C17.45 19.76 17.58 20.33 17.83 20.86C17.97 21.15 18.08 21.44 18.17 21.75C18.06 21.75 17.95 21.76 17.84 21.76C15.37 21.76 12.9 21.76 10.43 21.76C10.32 21.76 10.21 21.76 10.1 21.77C10.1 21.77 10.1 21.75 10.1 21.74C10.19 21.45 10.28 21.17 10.41 20.9C10.68 20.36 10.82 19.78 10.82 19.17C10.82 18.13 10.82 17.09 10.82 16.06C10.82 15.57 10.73 15.09 10.54 14.64C10.39 14.27 10.19 13.92 10.1 13.52V13.5C10.2 13.5 10.3 13.5 10.41 13.5C12.62 13.5 14.82 13.5 17.03 13.5C17.42 13.5 17.8 13.5 18.19 13.5L18.17 13.52ZM11.99 18.05C11.95 18.74 12.53 19.46 13.39 19.42C14.38 19.37 14.93 18.43 14.56 17.51C14.33 16.93 14.02 16.4 13.69 15.88C13.47 15.54 13.19 15.54 12.97 15.88C12.68 16.32 12.42 16.77 12.21 17.25C12.1 17.51 11.96 17.76 11.99 18.04V18.05Z"
          fill="#EE2F66"/>
    <path d="M18.17 13.52C17.78 13.52 17.4 13.52 17.01 13.52C14.8 13.52 12.6 13.52 10.39 13.52C10.29 13.52 10.18 13.52 10.08 13.52C9.9 12.69 9.93 11.85 10.11 11.03C10.49 9.29999 11.47 7.96999 13 7.07999C13.19 6.96999 13.28 6.82999 13.28 6.60999C13.28 6.16999 13.28 5.73999 13.28 5.29999C13.85 5.29999 14.41 5.29999 14.98 5.29999C14.98 5.73999 14.98 6.17999 14.98 6.60999C14.98 6.81999 15.05 6.95999 15.24 7.06999C16.81 7.97999 17.78 9.32999 18.16 11.1C18.33 11.91 18.34 12.73 18.17 13.54V13.52Z"
          fill="#ECB3C2"/>
    <path d="M10.09 21.78C10.2 21.78 10.31 21.77 10.42 21.77C12.89 21.77 15.36 21.77 17.83 21.77C17.94 21.77 18.05 21.77 18.16 21.76C18.37 22.84 18.23 23.93 18.27 25.02C18.28 25.38 18.18 25.71 17.97 26.01C17.65 26.47 17.19 26.71 16.64 26.71C14.86 26.72 13.09 26.71 11.31 26.71C11.3 26.7 11.29 26.68 11.27 26.68C10.42 26.49 9.92 25.71 9.97 24.93C10 24.47 9.97 24.01 9.97 23.55C9.97 22.96 9.92 22.37 10.07 21.79L10.09 21.78Z"
          fill="#ECB3C2"/>
    <path d="M7.57 2.8C7.57 3.25 7.57 3.69 7.57 4.14C7.57 4.34 7.65 4.47 7.83 4.57C9.03 5.25 9.89 6.24 10.42 7.51C10.44 7.56 10.45 7.63 10.46 7.68C10.4 7.74 10.35 7.81 10.29 7.87C9.6 8.53 9.08 9.3 8.76 10.2C6.7 10.2 4.64 10.2 2.58 10.2C2.55 9.63 2.58 9.07 2.7 8.53C3.09 6.8 4.06 5.47 5.6 4.57C5.81 4.45 5.89 4.3 5.88 4.07C5.88 3.64 5.88 3.21 5.88 2.78C6.45 2.78 7.01 2.78 7.58 2.78L7.57 2.8Z"
          fill="#ECB3C2"/>
    <path d="M9.47 26.65C9.41 26.73 9.31 26.71 9.23 26.71C7.45 26.71 5.68 26.71 3.9 26.71C3.83 26.63 3.73 26.65 3.64 26.62C3.05 26.42 2.57 25.77 2.57 25.16C2.57 24.44 2.57 23.72 2.57 23.01C4.44 23.01 6.3 23.01 8.17 23.01C8.34 23.01 8.39 23.07 8.39 23.24C8.39 23.87 8.39 24.51 8.39 25.14C8.39 25.42 8.48 25.67 8.62 25.92C8.82 26.28 9.16 26.46 9.47 26.67V26.65Z"
          fill="#ECB3C2"/>
    <path d="M8.75 10.22C9.07 9.31999 9.59 8.54999 10.28 7.88999C10.34 7.82999 10.39 7.75999 10.45 7.69999C10.82 7.45999 11.19 7.21999 11.56 6.96999C11.67 6.88999 11.69 6.75999 11.69 6.61999C11.69 6.16999 11.69 5.72999 11.69 5.27999C11.95 5.27999 12.21 5.27999 12.46 5.26999C12.74 5.26999 13.01 5.26999 13.29 5.27999C13.29 5.71999 13.29 6.14999 13.29 6.58999C13.29 6.80999 13.21 6.94999 13.01 7.05999C11.47 7.95999 10.5 9.27999 10.12 11.01C9.94 11.83 9.91 12.67 10.09 13.5V13.52C9.57 13.52 9.06 13.52 8.54 13.52C8.42 13.27 8.4 13 8.39 12.73C8.36 11.87 8.46 11.03 8.75 10.22Z"
          fill="#EE2F66"/>
    <path d="M9.47 26.65C9.15 26.44 8.81 26.26 8.62 25.9C8.49 25.65 8.4 25.4 8.39 25.12C8.39 24.49 8.39 23.85 8.39 23.22C8.39 23.06 8.35 22.99 8.17 22.99C6.3 22.99 4.44 22.99 2.57 22.99L2.56 22.98C2.56 22.71 2.56 22.44 2.56 22.17L2.57 22.16C4.38 22.16 6.19 22.16 7.99 22.16C8.27 22.16 8.43667 22.02 8.49 21.74C9.02 21.74 9.55 21.74 10.08 21.74C10.08 21.74 10.08 21.76 10.08 21.77C9.93 22.35 9.98 22.94 9.98 23.53C9.98 23.99 10 24.45 9.98 24.91C9.94 25.69 10.43 26.47 11.28 26.66C11.29 26.66 11.31 26.68 11.32 26.69C10.7 26.68 10.08 26.73 9.47 26.63V26.65Z"
          fill="#EE2F66"/>
    <path d="M0.98 17.63C0.98 15.16 0.98 12.69 0.98 10.22C1.51 10.22 2.04 10.22 2.57 10.21C2.57 12.68 2.57 15.15 2.57 17.61C2.04 17.61 1.51 17.61 0.98 17.61V17.63Z" fill="#EE2F66"/>
    <path d="M2.57 10.21C2.04 10.21 1.51 10.21 0.98 10.22C0.9 8.55999 1.38 7.08999 2.46 5.82999C2.89 5.31999 3.41 4.90999 3.99 4.58999C4.18 4.47999 4.28 4.33999 4.27 4.11999C4.27 3.67999 4.27 3.23999 4.27 2.80999C4.53 2.80999 4.79 2.80999 5.04 2.79999C5.32 2.79999 5.59 2.79999 5.87 2.80999C5.87 3.23999 5.87 3.66999 5.87 4.09999C5.87 4.32999 5.79 4.47999 5.59 4.59999C4.05 5.49999 3.09 6.82999 2.69 8.55999C2.57 9.09999 2.54 9.65999 2.57 10.22V10.21Z"
          fill="#EE2F66"/>
    <path d="M5.87 2.79999C5.59 2.79999 5.32 2.79999 5.04 2.78999C5.04 1.96999 5.04 1.14999 5.04 0.329987C6.01 0.329987 6.99 0.329987 7.96 0.329987C8.24 0.329987 8.38 0.479987 8.38 0.759987C8.38 1.28999 8.38 1.81999 8.38 2.34999C8.38 2.64999 8.24 2.78999 7.94 2.79999C7.81 2.79999 7.68 2.79999 7.56 2.79999C6.99 2.79999 6.43 2.79999 5.86 2.79999H5.87Z"
          fill="#ECB3C2"/>
    <path opacity="0.8"
          d="M13.29 5.28C13.01 5.28 12.74 5.28 12.46 5.27C12.46 4.45 12.46 3.63 12.46 2.81C13.43 2.81 14.41 2.81 15.38 2.81C15.66 2.81 15.8 2.96 15.8 3.24C15.8 3.77 15.8 4.3 15.8 4.83C15.8 5.13 15.66 5.27 15.36 5.28C15.23 5.28 15.1 5.28 14.98 5.28C14.41 5.28 13.85 5.28 13.28 5.28H13.29Z"
          fill="#E18AA1"/>
    <path d="M2.57 23C2.57 23.72 2.57 24.44 2.57 25.15C2.57 25.76 3.06 26.4 3.64 26.61C3.73 26.64 3.83 26.63 3.9 26.7C3.35 26.68 2.79 26.77 2.24 26.65C1.48 26.48 0.970001 25.82 0.970001 25.04C0.970001 24.36 0.970001 23.67 0.970001 22.99C1.5 22.99 2.02 22.99 2.55 22.99H2.56L2.57 23Z"
          fill="#EE2F66"/>
    <path d="M5.04 0.329987C5.04 1.14999 5.04 1.96999 5.04 2.78999C4.78 2.78999 4.52 2.78999 4.27 2.79999C4.22 2.79999 4.17 2.79999 4.12 2.79999C3.51 2.79999 3.45 2.73999 3.45 2.11999C3.45 1.67999 3.45 1.23999 3.45 0.809986C3.45 0.469986 3.58 0.339987 3.91 0.339987C4.29 0.339987 4.67 0.339987 5.04 0.339987V0.329987Z"
          fill="#EE2F66"/>
    <path d="M12.46 2.79999C12.46 3.61999 12.46 4.43999 12.46 5.25999C12.2 5.25999 11.94 5.25999 11.69 5.26999C11.64 5.26999 11.59 5.26999 11.54 5.26999C10.93 5.26999 10.87 5.20999 10.87 4.58999C10.87 4.14999 10.87 3.70999 10.87 3.27999C10.87 2.93999 11 2.80999 11.33 2.80999C11.71 2.80999 12.09 2.80999 12.46 2.80999V2.79999Z"
          fill="#EE2F66"/>
    <path d="M0.98 17.63C1.51 17.63 2.04 17.63 2.57 17.63V17.65C2.57 18.33 2.57 19.02 2.57 19.7C2.04 19.7 1.51 19.7 0.990002 19.7V17.63H0.98Z" fill="#EE2F66"/>
    <path d="M0.98 22.18C0.98 21.63 0.98 21.07 0.98 20.52C1.51 20.52 2.04 20.52 2.56 20.52C2.56 21.07 2.56 21.62 2.56 22.17L2.55 22.18C2.02 22.18 1.5 22.18 0.970001 22.18H0.98Z" fill="#EE2F66"/>
    <path d="M2.57 20.52C2.04 20.52 1.51 20.52 0.990002 20.52C0.990002 20.25 0.990002 19.98 0.990002 19.71C1.52 19.71 2.05 19.71 2.57 19.71C2.57 19.98 2.57 20.26 2.57 20.53V20.52Z" fill="#EE2F66"/>
    <path d="M0.98 22.18C1.51 22.18 2.03 22.18 2.56 22.18C2.56 22.45 2.56 22.72 2.56 22.99C2.03 22.99 1.51 22.99 0.98 22.99C0.98 22.72 0.98 22.45 0.98 22.18Z" fill="#EE2F66"/>
    <path d="M10.09 21.75C9.56 21.75 9.03 21.75 8.5 21.75C8.58 21.31 8.84 20.94 8.96 20.52C9.08 20.26 9.15 19.98 9.16 19.7C9.18 19.6 9.21 19.5 9.21 19.4C9.21 18.82 9.21 18.23 9.21 17.65C9.21 17.16 9.21 16.67 9.21 16.18C9.22 15.52 9.06 14.9 8.78 14.3C8.66 14.06 8.52 13.81 8.54 13.52C9.06 13.52 9.57 13.52 10.09 13.52C10.18 13.92 10.38 14.27 10.53 14.64C10.72 15.1 10.81 15.57 10.81 16.06C10.81 17.1 10.81 18.14 10.81 19.17C10.81 19.78 10.67 20.36 10.4 20.9C10.27 21.17 10.18 21.45 10.09 21.74V21.75Z"
          fill="#EE2F66"/>
    <path d="M11.99 18.05C11.96 17.77 12.1 17.52 12.21 17.26C12.42 16.78 12.69 16.33 12.97 15.89C13.2 15.54 13.47 15.54 13.69 15.89C14.02 16.41 14.33 16.94 14.56 17.52C14.93 18.44 14.38 19.38 13.39 19.43C12.53 19.48 11.95 18.75 11.99 18.06V18.05Z"
          fill="white"/>
    <path opacity="0.8"
          d="M8.54 13.52C8.52 13.81 8.66 14.05 8.78 14.3C9.06 14.9 9.22 15.52 9.21 16.18C9.21 16.67 9.21 17.16 9.21 17.65C8.16 17.65 7.12 17.65 6.07 17.65C4.9 17.65 3.74 17.65 2.57 17.65V17.63C2.57 15.16 2.57 12.69 2.57 10.23C4.63 10.23 6.69 10.23 8.75 10.23C8.46 11.04 8.36 11.88 8.39 12.74C8.4 13.01 8.42 13.28 8.54 13.53V13.52ZM7.27 14.63C7.27 14.49 7.26 14.35 7.21 14.22C6.97 13.55 6.62 12.95 6.23 12.36C6.04 12.08 5.77 12.09 5.59 12.38C5.22 12.95 4.87 13.53 4.65 14.17C4.46 14.71 4.59 15.2 5.01 15.6C5.38 15.95 5.99 16.05 6.47 15.83C6.99 15.6 7.25 15.18 7.27 14.62V14.63Z"
          fill="#EE2F66"/>
    <path d="M8.96 20.52C8.84 20.94 8.58 21.31 8.5 21.75C8.44667 22.03 8.28 22.17 8 22.17C6.19 22.17 4.38 22.17 2.58 22.17C2.58 21.62 2.58 21.07 2.58 20.52C4.71 20.52 6.84 20.52 8.97 20.52H8.96Z"
          fill="#ECB3C2"/>
    <path d="M2.57 17.64C3.74 17.64 4.9 17.64 6.07 17.64C7.12 17.64 8.16 17.64 9.21 17.64C9.21 18.22 9.21 18.81 9.21 19.39C9.21 19.49 9.18 19.59 9.16 19.69C6.96 19.69 4.76 19.69 2.56 19.69C2.56 19.01 2.56 18.32 2.56 17.64H2.57Z"
          fill="#ECB3C2"/>
    <path d="M2.57 19.7C4.77 19.7 6.97 19.7 9.17 19.7C9.16 19.99 9.09 20.26 8.97 20.52C6.84 20.52 4.71 20.52 2.58 20.52C2.58 20.25 2.58 19.97 2.58 19.7H2.57Z" fill="#EE2F66"/>
    <path d="M7.27 14.63C7.24 15.19 6.98 15.6 6.47 15.84C5.99 16.06 5.38 15.96 5.01 15.61C4.59 15.21 4.46 14.72 4.65 14.18C4.87 13.54 5.22 12.96 5.59 12.39C5.78 12.1 6.05 12.09 6.23 12.37C6.62 12.96 6.97 13.56 7.21 14.23C7.26 14.36 7.27 14.5 7.27 14.64V14.63Z"
          fill="white"/>
</svg>
