<svg width="38" height="29" viewBox="0 0 38 29" fill="none" xmlns="http://www.w3.org/2000/svg">
<path d="M22.45 26.73C15.85 26.73 9.24999 26.73 2.64999 26.73C1.74999 26.73 1.03999 26.13 0.939995 25.29C0.939995 25.27 0.939995 25.24 0.939995 25.22C0.939995 18.9 0.939995 12.58 0.939995 6.26C0.939995 6.16 0.969995 6.04 0.869995 5.96C0.869995 4.68 0.869995 3.4 0.869995 2.12C0.889995 2.1 0.919995 2.07 0.939995 2.05C1.00999 1.27 1.72999 0.630001 2.56999 0.610001C2.81999 0.610001 3.06999 0.610001 3.32999 0.610001C3.32999 0.720001 3.23999 0.73 3.16999 0.77C2.49999 1.08 2.17999 1.62 2.17999 2.35C2.17999 3.4 2.17999 4.45 2.17999 5.5C2.17999 5.81333 2.33666 5.97 2.64999 5.97C10.07 5.97 17.48 5.97 24.9 5.97C25.07 5.97 25.24 5.97 25.41 5.97C25.41 8.82 25.41 11.68 25.41 14.53C25.21 14.45 25.03 14.32 24.86 14.19C24.39 13.83 24.2 13.82 23.68 14.12C22.91 14.56 22.13 15 21.36 15.44C21.34 15.36 21.32 15.28 21.31 15.19C20.68 10.66 16.44 7.49 11.94 8.19C6.65999 9.01 3.54999 14.44 5.51999 19.4C6.91999 22.91 10.72 25.09 14.4 24.48C16.67 24.1 18.49 22.97 19.86 21.12C20.06 21.2 20.23 21.14 20.41 21.04C21 20.7 21.6 20.36 22.2 20.02C22.38 19.91 22.47 19.91 22.47 20.17C22.46 22.36 22.46 24.56 22.45 26.75V26.73Z" fill="#EE2F66"/>
<path d="M0.889984 5.95001C0.989984 6.03001 0.959984 6.15001 0.959984 6.25001C0.959984 12.57 0.959984 18.89 0.959984 25.21C0.959984 25.23 0.959984 25.26 0.959984 25.28C0.939984 25.28 0.919984 25.28 0.899984 25.28V5.95001H0.889984Z" fill="#E1E6EF"/>
<path d="M0.959984 2.04001C0.959984 2.04001 0.909984 2.09001 0.889984 2.11001C0.889984 2.09001 0.889984 2.06001 0.889984 2.04001C0.909984 2.04001 0.939984 2.04001 0.959984 2.04001Z" fill="#E1E6EF"/>
<path d="M21.37 15.43C22.14 14.99 22.92 14.55 23.69 14.11C24.21 13.81 24.4 13.82 24.87 14.18C25.04 14.31 25.22 14.44 25.42 14.52C27.09 15.48 29.46 15.34 30.97 14.16C31.33 13.88 31.67 13.84 32.06 14.07C33.88 15.13 35.71 16.18 37.53 17.23C37.94 17.47 37.99 17.65 37.76 18.05C37.24 18.96 36.72 19.87 36.19 20.77C35.94 21.2 35.77 21.23 35.34 20.99C34.79 20.67 34.23 20.36 33.68 20.04C33.34 19.85 33.34 19.85 33.34 20.23C33.34 22.85 33.34 25.46 33.34 28.08C33.34 28.69 33.24 28.79 32.63 28.79C29.47 28.79 26.31 28.79 23.15 28.79C22.57 28.79 22.46 28.68 22.46 28.09C22.46 27.63 22.46 27.17 22.45 26.72C22.45 24.53 22.45 22.33 22.47 20.14C22.47 19.88 22.39 19.89 22.2 19.99C21.61 20.33 21.01 20.67 20.41 21.01C20.24 21.11 20.06 21.18 19.86 21.09C19.73 20.99 19.66 20.85 19.58 20.72C19.26 20.17 18.93 19.62 18.61 19.07C18.41 18.71 18.21 18.36 18.01 18C17.82 17.65 17.86 17.46 18.21 17.25C18.56 17.04 18.91 16.83 19.26 16.63C19.97 16.24 20.68 15.85 21.36 15.41L21.37 15.43Z" fill="#ECB3C2"/>
<path d="M25.42 5.96C25.25 5.96 25.08 5.96 24.91 5.96C17.49 5.96 10.08 5.96 2.66 5.96C2.34667 5.96 2.19 5.80334 2.19 5.49001C2.19 4.44001 2.19 3.39001 2.19 2.34001C2.19 1.61001 2.51 1.07001 3.18 0.760006C3.26 0.720006 3.35 0.710006 3.34 0.600006C6.95 0.600006 10.55 0.600006 14.16 0.600006C17.32 0.600006 20.48 0.600006 23.64 0.600006C24.71 0.600006 25.43 1.32001 25.43 2.39001C25.43 3.58001 25.43 4.78001 25.43 5.97001L25.42 5.96ZM6.59 4.14001C7.23 4.14001 7.87 4.14001 8.5 4.14001C9.1 4.14001 9.5 3.79 9.5 3.28C9.5 2.77 9.1 2.41001 8.51 2.41001C7.22 2.41001 5.93 2.41001 4.65 2.41001C4.06 2.41001 3.66 2.78001 3.67 3.29001C3.67 3.78001 4.08 4.13001 4.64 4.14001C5.29 4.14001 5.94 4.14001 6.59 4.14001ZM17.52 4.43001C18.15 4.43001 18.68 3.93 18.69 3.3C18.7 2.66 18.17 2.12 17.53 2.12C16.91 2.12 16.38 2.65001 16.38 3.27001C16.38 3.90001 16.89 4.42001 17.52 4.43001ZM21.51 4.43001C22.14 4.43001 22.66 3.91001 22.67 3.29001C22.67 2.66001 22.13 2.11 21.5 2.12C20.88 2.12 20.36 2.66 20.36 3.28C20.36 3.91 20.88 4.43001 21.51 4.43001Z" fill="#F9C5D5"/>
<path d="M21.37 15.43C20.69 15.87 19.98 16.26 19.27 16.65C19.28 15.92 19.2 15.21 18.99 14.51C18.21 12 15.73 10.15 13.27 10.24C12.92 10.21 12.58 10.24 12.23 10.29C9.01001 10.76 6.68001 13.83 7.11001 17.01C7.45001 19.55 8.87001 21.25 11.26 22.12C11.97 22.38 12.72 22.51 13.49 22.4C14.22 22.38 14.92 22.2 15.59 21.91C16.94 21.33 17.91 20.35 18.62 19.08C18.94 19.63 19.27 20.18 19.59 20.73C19.67 20.86 19.74 21.01 19.87 21.1C18.5 22.95 16.68 24.08 14.41 24.46C10.73 25.08 6.93001 22.9 5.53001 19.38C3.56001 14.42 6.68001 8.99001 11.95 8.17001C16.45 7.47001 20.69 10.64 21.32 15.17C21.33 15.25 21.35 15.34 21.37 15.42V15.43Z" fill="#F9C5D5"/>
<path d="M18.62 19.09C17.91 20.35 16.93 21.34 15.59 21.92C14.92 22.21 14.23 22.39 13.49 22.41C13.46 22.35 13.4 22.34 13.34 22.33C11.88 22.04 10.65 21.36 9.7 20.18C8.5 18.69 8.06 16.99 8.46 15.14C9 12.61 10.61 11.02 13.13 10.38C13.21 10.36 13.26 10.33 13.28 10.25C15.73 10.16 18.22 12.01 19 14.52C19.22 15.22 19.3 15.93 19.28 16.66C18.93 16.87 18.58 17.07 18.23 17.28C17.89 17.49 17.84 17.67 18.03 18.03C18.23 18.39 18.43 18.74 18.63 19.1L18.62 19.09ZM10.88 13.21C10.6 13.24 10.43 13.4 10.31 13.64C9.86 14.53 9.73 15.45 10.12 16.39C10.41 17.09 10.39 17.77 10.08 18.46C9.89 18.89 9.99999 19.22 10.35 19.37C10.69 19.51 10.99 19.34 11.19 18.9C11.6 18 11.69 17.09 11.31 16.17C11.03 15.49 11.05 14.84 11.38 14.18C11.43 14.08 11.47 13.95 11.48 13.84C11.51 13.49 11.23 13.2 10.89 13.2L10.88 13.21ZM13.11 19.42C13.31 19.41 13.47 19.26 13.59 19.02C14.04 18.1 14.16 17.16 13.76 16.19C13.47 15.5 13.5 14.84 13.83 14.17C14.03 13.76 13.92 13.43 13.59 13.28C13.26 13.12 12.96 13.27 12.75 13.67C12.29 14.56 12.18 15.48 12.58 16.42C12.87 17.1 12.85 17.78 12.54 18.45C12.5 18.53 12.47 18.61 12.45 18.69C12.36 19.07 12.65 19.43 13.11 19.42ZM15.54 19.42C15.77 19.42 15.94 19.24 16.06 18.98C16.48 18.08 16.61 17.16 16.22 16.22C15.93 15.52 15.95 14.84 16.29 14.16C16.49 13.77 16.37 13.42 16.04 13.27C15.71 13.12 15.41 13.27 15.21 13.68C14.76 14.57 14.65 15.49 15.04 16.43C15.33 17.12 15.3 17.79 14.99 18.46C14.95 18.54 14.92 18.62 14.9 18.7C14.81 19.06 15.09 19.41 15.54 19.42Z" fill="#ECB3C2"/>
<path d="M6.58998 4.14C5.93998 4.14 5.28998 4.14 4.63998 4.14C4.06998 4.14 3.66998 3.78 3.66998 3.29C3.66998 2.78 4.06998 2.42 4.64998 2.41C5.93998 2.41 7.22998 2.41 8.50998 2.41C9.09998 2.41 9.49998 2.77 9.49998 3.28C9.49998 3.79 9.09998 4.13 8.49998 4.14C7.85998 4.14 7.21998 4.14 6.58998 4.14Z" fill="#EE2F66"/>
<path d="M17.52 4.43001C16.89 4.43001 16.38 3.90001 16.38 3.27001C16.38 2.65001 16.91 2.12001 17.53 2.12001C18.17 2.12001 18.7 2.67001 18.69 3.30001C18.68 3.93001 18.15 4.44001 17.52 4.43001Z" fill="#EE2F66"/>
<path d="M21.51 4.43001C20.88 4.43001 20.36 3.91001 20.36 3.28001C20.36 2.65001 20.87 2.13001 21.5 2.12001C22.13 2.12001 22.68 2.66001 22.67 3.29001C22.67 3.91001 22.14 4.43001 21.51 4.43001Z" fill="#EE2F66"/>
<path d="M13.27 10.24C13.25 10.32 13.2 10.35 13.12 10.37C10.6 11.01 8.98999 12.6 8.44999 15.13C8.04999 16.97 8.48999 18.68 9.68999 20.17C10.64 21.35 11.87 22.03 13.33 22.32C13.39 22.33 13.45 22.35 13.48 22.4C12.71 22.51 11.97 22.38 11.25 22.12C8.84999 21.25 7.43999 19.55 7.09999 17.01C6.66999 13.83 8.99999 10.76 12.22 10.29C12.57 10.24 12.91 10.21 13.26 10.24H13.27Z" fill="#EE2F66"/>
<path d="M10.88 13.21C11.22 13.21 11.5 13.49 11.47 13.85C11.47 13.97 11.43 14.09 11.37 14.19C11.04 14.84 11.02 15.5 11.3 16.18C11.68 17.1 11.59 18.02 11.18 18.91C10.98 19.34 10.68 19.52 10.34 19.38C9.99001 19.23 9.88001 18.9 10.07 18.47C10.38 17.78 10.4 17.1 10.11 16.4C9.71001 15.45 9.85001 14.54 10.3 13.65C10.42 13.4 10.59 13.24 10.87 13.22L10.88 13.21Z" fill="#EE2F66"/>
<path d="M13.11 19.42C12.65 19.42 12.36 19.07 12.45 18.69C12.47 18.61 12.5 18.53 12.54 18.45C12.85 17.78 12.87 17.1 12.58 16.42C12.18 15.47 12.3 14.56 12.75 13.67C12.96 13.27 13.26 13.12 13.59 13.28C13.92 13.44 14.03 13.77 13.83 14.17C13.5 14.84 13.47 15.5 13.76 16.19C14.16 17.16 14.04 18.1 13.59 19.02C13.47 19.26 13.31 19.4 13.11 19.42Z" fill="#EE2F66"/>
<path d="M15.54 19.42C15.09 19.41 14.81 19.06 14.9 18.7C14.92 18.62 14.95 18.54 14.99 18.46C15.3 17.79 15.33 17.11 15.04 16.43C14.64 15.49 14.75 14.57 15.21 13.68C15.42 13.27 15.71 13.12 16.04 13.27C16.37 13.42 16.49 13.77 16.29 14.16C15.95 14.84 15.93 15.52 16.22 16.22C16.61 17.16 16.48 18.08 16.06 18.98C15.94 19.24 15.77 19.42 15.54 19.42Z" fill="#EE2F66"/>
</svg>
