<svg width="27" height="35" viewBox="0 0 27 35" fill="none" xmlns="http://www.w3.org/2000/svg">
<path d="M9.21 10.98C9.66 10.39 10.22 9.9 10.72 9.36C11.5 8.51 12.31 7.7 13.11 6.87C13.28 6.69 13.46 6.51 13.73 6.5C14.45 6.5 15.17 6.51 15.9 6.52C15.49 6.73 15.23 7.1 14.93 7.42C14.21 8.17 13.45 8.89 12.73 9.65C12.36 10.05 11.97 10.45 11.54 10.91H12C14.05 10.91 16.1 10.91 18.14 10.91C19.41 10.91 20.67 10.91 21.94 10.9C22.1 11.15 22.02 11.43 22.01 11.7C22 12.02 22.07 12.13 22.42 12.12C23.08 12.11 23.74 12.05 24.39 12.16C25.64 12.38 26.46 13.32 26.47 14.59C26.49 16.29 26.49 17.99 26.47 19.69C26.45 21.13 25.4 22.16 23.96 22.17C23.4 22.17 22.84 22.17 22.28 22.17C22.16 22.17 22.02 22.14 22 22.33C21.92 23.15 21.42 23.61 20.69 23.87C20.52 23.87 20.34 23.88 20.17 23.88C17.96 23.88 15.75 23.88 13.55 23.88C13.31 23.88 13.07 24.05 12.83 23.9C12.79 23.87 12.76 23.84 12.71 23.82C11.83 23.46 11.49 22.95 11.48 21.99C11.48 20.44 11.48 18.89 11.48 17.34C11.48 15.34 11.48 13.34 11.48 11.35C11.48 11.07 11.4 10.98 11.12 10.99C10.48 11.01 9.83 11 9.18 11.01L9.21 10.98ZM22.02 17.12C22.02 18.14 22.02 19.16 22.02 20.17C22.02 20.42 22.08 20.52 22.35 20.51C22.85 20.49 23.34 20.51 23.84 20.51C24.5 20.51 24.81 20.22 24.81 19.57C24.82 17.94 24.82 16.32 24.81 14.69C24.81 14.05 24.51 13.77 23.86 13.75C23.36 13.74 22.87 13.76 22.37 13.75C22.09 13.74 22.01 13.84 22.01 14.11C22.02 15.12 22.01 16.12 22.01 17.13L22.02 17.12Z" fill="#ECB3C2"/>
<path d="M20.6 27.36C21.41 27.55 21.96 28.14 22.01 28.88C22.07 29.8 21.65 30.43 20.79 30.73C20.76 30.74 20.73 30.76 20.69 30.78C18.09 30.78 15.5 30.78 12.9 30.79C12.86 30.77 12.82 30.74 12.77 30.72C11.46 30.35 11.06 28.8 12.01 27.83C12.2 27.63 12.45 27.53 12.74 27.35H10.66C10.09 27.17 9.6 26.87 9.35 26.29C8.98 25.45 9.35 24.46 10.16 24.04C10.29 23.97 10.45 23.97 10.55 23.85C11.27 23.86 11.98 23.87 12.7 23.88C12.68 23.99 12.59 23.99 12.51 24.03C11.78 24.37 11.36 25.18 11.52 25.92C11.71 26.78 12.33 27.29 13.21 27.29C14.98 27.29 16.75 27.29 18.53 27.29C19.22 27.29 19.91 27.23 20.6 27.35V27.36Z" fill="#EE2F66"/>
<path d="M12.91 30.79C15.51 30.79 18.1 30.79 20.7 30.78C21.22 31.01 21.7 31.3 21.9 31.86C22.3 32.97 21.73 34.25 20.23 34.28C17.71 34.33 15.2 34.28 12.68 34.28C12.68 34.11 12.52 34.11 12.42 34.05C11.57 33.59 11.27 32.63 11.67 31.75C11.9 31.25 12.34 31.04 12.77 30.8C12.81 30.8 12.86 30.79 12.9 30.78L12.91 30.79Z" fill="#ECB3C2"/>
<path d="M20.6 27.36C19.91 27.24 19.22 27.3 18.53 27.3C16.76 27.3 14.99 27.3 13.21 27.3C12.33 27.3 11.71 26.79 11.52 25.93C11.36 25.19 11.78 24.39 12.51 24.04C12.59 24 12.68 24 12.7 23.89C12.75 23.89 12.79 23.89 12.84 23.88C13.08 24.03 13.32 23.86 13.56 23.86C15.77 23.88 17.98 23.86 20.18 23.86C20.35 23.86 20.53 23.86 20.7 23.85C21.17 24.08 21.61 24.33 21.86 24.83C22.32 25.78 21.88 26.87 20.9 27.23C20.8 27.27 20.7 27.32 20.6 27.36Z" fill="#F9C5D5"/>
<path d="M12.84 23.87C12.84 23.87 12.75 23.87 12.7 23.88C11.99 23.87 11.27 23.86 10.55 23.85C9.55 23.46 9.19 22.93 9.19 21.84C9.19 18.34 9.19 14.84 9.19 11.34C9.19 11.22 9.19 11.09 9.2 10.97C9.85 10.97 10.49 10.97 11.14 10.95C11.42 10.95 11.5 11.03 11.5 11.31C11.49 13.31 11.5 15.31 11.5 17.3C11.5 18.85 11.5 20.4 11.5 21.95C11.5 22.91 11.84 23.41 12.73 23.78C12.77 23.8 12.81 23.83 12.85 23.86L12.84 23.87Z" fill="#EE2F66"/>
<path d="M21.95 10.89C20.68 10.89 19.42 10.9 18.15 10.9C16.1 10.9 14.05 10.9 12.01 10.9H11.55C11.99 10.44 12.37 10.04 12.74 9.64001C13.45 8.88001 14.21 8.17001 14.94 7.41001C15.25 7.09001 15.51 6.72001 15.91 6.51001C15.95 6.51001 16 6.49001 16.04 6.48001C16.53 6.48001 17.02 6.48001 17.5 6.49001C18.06 6.43001 18.33 6.87001 18.64 7.20001C19.41 8.02001 20.17 8.84001 20.91 9.69001C21.26 10.09 21.67 10.43 21.95 10.88V10.89Z" fill="#F9C5D5"/>
<path d="M16.03 6.48999C16.03 6.48999 15.94 6.50999 15.9 6.51999C15.18 6.51999 14.46 6.50999 13.73 6.49999C13.73 6.18999 13.73 5.87999 13.73 5.56999C13.73 5.18999 13.82 4.79999 13.29 4.61999C12.98 4.50999 12.92 4.13999 12.91 3.81999C12.9 3.03999 12.9 2.25999 12.91 1.46999C12.92 0.859992 13.34 0.459991 13.96 0.459991C15.05 0.459991 16.14 0.459991 17.24 0.459991C17.89 0.459991 18.27 0.839992 18.28 1.49999C18.28 2.20999 18.26 2.91999 18.28 3.61999C18.31 4.25999 18.06 4.66999 17.46 4.85999C17.08 4.85999 16.7 4.85999 16.31 4.83999C16.08 4.82999 16.01 4.92999 16.02 5.13999C16.02 5.57999 16.02 6.02999 16.02 6.46999L16.03 6.48999Z" fill="#EE2F66"/>
<path d="M5.03 26.62C5.68 27.63 6.33 28.64 6.86 29.72C7.7 31.42 6.7 33.66 4.95 34.14C4.95 34.03 4.85 34.02 4.77 33.98C3.62 33.29 3 32.31 3 30.94C3 30.1 3.44 29.44 3.83 28.75C4.23 28.04 4.71 27.38 5.03 26.62Z" fill="#ECB3C2"/>
<path d="M5.03 26.62C4.71 27.37 4.23 28.04 3.83 28.75C3.44 29.44 3.01 30.1 3 30.94C3 32.31 3.62 33.3 4.77 33.98C4.84 34.02 4.94 34.03 4.95 34.14C3.6 34.54 2.31 34.18 1.46 33.15C0.600001 32.12 0.440003 30.71 1.12 29.5C1.84 28.21 2.6 26.95 3.36 25.69C3.66 25.2 4.19 25.2 4.5 25.69C4.69 25.99 4.86 26.31 5.04 26.62H5.03Z" fill="#EE2F66"/>
<path d="M12.78 30.81C12.35 31.05 11.91 31.26 11.68 31.76C11.28 32.64 11.58 33.59 12.43 34.06C12.53 34.11 12.69 34.12 12.69 34.29C12.02 34.27 11.35 34.36 10.69 34.24C9.86 34.09 9.29 33.47 9.21 32.65C9.14 31.93 9.64 31.17 10.38 30.88C10.45 30.85 10.53 30.85 10.57 30.78C11.31 30.78 12.04 30.8 12.78 30.81Z" fill="#EE2F66"/>
<path d="M12.78 30.81C12.04 30.81 11.31 30.79 10.57 30.78C9.95 30.57 9.48 30.21 9.29 29.56C8.99 28.55 9.62 27.56 10.67 27.35C11.34 27.35 12.01 27.35 12.75 27.35C12.46 27.53 12.21 27.64 12.02 27.83C11.07 28.8 11.47 30.34 12.78 30.72C12.82 30.73 12.86 30.76 12.91 30.79C12.87 30.79 12.82 30.8 12.78 30.81Z" fill="#EE2F66"/>
<path d="M16.03 6.49001C16.03 6.05001 16.05 5.60001 16.03 5.16001C16.03 4.94001 16.09 4.84001 16.32 4.86001C16.7 4.88001 17.08 4.87001 17.47 4.88001C17.47 5.42001 17.48 5.97001 17.49 6.51001C17 6.51001 16.51 6.51001 16.03 6.50001V6.49001Z" fill="#ECB3C2"/>
</svg>
