<svg width="45" height="27" viewBox="0 0 45 27" fill="none" xmlns="http://www.w3.org/2000/svg">
<path d="M2.35 6.66C2.34 5.97 2.31 5.28 2.33 4.58C2.34 4.28 2.24 4.18 1.95 4.21C1.75 4.23 1.55 4.2 1.36 4.22C1.06 4.25 0.850002 4.11 0.690002 3.87C0.690002 2.85 0.690002 1.83 0.690002 0.809998C0.900002 0.509998 1.2 0.480003 1.55 0.480003C13.33 0.490003 25.11 0.490003 36.89 0.480003C39.07 0.480003 41.25 0.470001 43.43 0.470001C44.06 0.470001 44.2 0.609998 44.2 1.24C44.2 2.03 44.2 2.83 44.2 3.62C44.2 4.04 44.03 4.21 43.62 4.24C43.61 4.24 43.59 4.24 43.58 4.24C43.26 4.26 42.83 4.1 42.64 4.31C42.42 4.55 42.54 5.93 42.52 6.69C41.6 6.69 40.69 6.69 39.77 6.69C39.77 5.98 39.75 5.28 39.76 4.57C39.76 4.32 39.7 4.22 39.43 4.22C35.56 4.23 31.68 4.24 27.81 4.24C27.63 4.23 27.44 4.22 27.26 4.22C22.46 4.22 17.67 4.22 12.87 4.22C10.48 4.22 8.09 4.23 5.7 4.21C5.3 4.21 5.15 4.29 5.17 4.72C5.2 5.37 5.18 6.02 5.17 6.67C4.23 6.66 3.29 6.66 2.35 6.66Z" fill="#EE2F66"/>
<path d="M5.16999 6.66C5.16999 6.01 5.19999 5.36 5.16999 4.71C5.14999 4.29 5.29999 4.2 5.69999 4.2C8.08999 4.22 10.48 4.21 12.87 4.21C17.67 4.21 22.46 4.21 27.26 4.21C27.44 4.21 27.63 4.22 27.81 4.23C27.81 6.09 27.8 7.96 27.8 9.82C27.8 11.63 27.8 13.44 27.8 15.25C27.8 15.41 27.8 15.58 27.79 15.74C20.45 15.74 13.11 15.74 5.76999 15.74C5.56999 15.74 5.36999 15.73 5.17999 15.73C5.16999 12.71 5.16999 9.69 5.16999 6.66Z" fill="#ECB3C2"/>
<path d="M27.79 9.81999C27.79 7.95999 27.8 6.09 27.8 4.23C31.67 4.22 35.55 4.21999 39.42 4.20999C39.69 4.20999 39.76 4.29999 39.75 4.55999C39.74 5.26999 39.75 5.96999 39.76 6.67999C39.76 11.2 39.76 15.73 39.76 20.25C39.76 20.43 39.74 20.61 39.73 20.8C35.94 20.8 32.14 20.8 28.35 20.8C27.95 20.8 27.79 20.61 27.79 20.18C27.79 18.71 27.79 17.24 27.79 15.76C27.79 15.6 27.79 15.43 27.8 15.27C30.8 15.27 33.8 15.27 36.79 15.28C37.15 15.28 37.24 15.16 37.23 14.82C37.21 13.31 37.21 11.79 37.23 10.28C37.23 9.92999 37.14 9.81999 36.78 9.81999C33.79 9.81999 30.79 9.81999 27.79 9.81999ZM33.74 18.99C34.19 18.99 34.64 19 35.1 18.99C35.58 18.98 35.86 18.73 35.87 18.32C35.87 17.92 35.59 17.65 35.12 17.64C34.22 17.63 33.31 17.63 32.41 17.64C31.94 17.64 31.63 17.91 31.63 18.3C31.63 18.69 31.93 18.97 32.39 18.99C32.84 19 33.29 18.99 33.74 18.99ZM33.71 7.63999C34.19 7.63999 34.67 7.64999 35.15 7.63999C35.58 7.62999 35.85 7.37999 35.86 7.01999C35.87 6.62999 35.59 6.33999 35.16 6.33999C34.21 6.32999 33.26 6.32999 32.32 6.33999C31.91 6.33999 31.63 6.61999 31.62 6.98999C31.61 7.33999 31.9 7.62999 32.31 7.63999C32.78 7.63999 33.25 7.62999 33.71 7.63999Z" fill="#F9C5D5"/>
<path d="M5.17001 6.66C5.17001 9.68 5.17001 12.71 5.17001 15.73C5.16001 16.21 5.15001 16.69 5.15001 17.17C5.15001 19.96 5.15001 22.75 5.15001 25.53C5.15001 26.07 5.10001 26.12 4.58001 26.12C3.99001 26.12 3.39001 26.11 2.80001 26.12C2.47001 26.13 2.33001 25.99 2.34001 25.67C2.35001 25.56 2.34001 25.44 2.34001 25.33C2.34001 19.24 2.34001 13.16 2.34001 7.06999C2.34001 6.92999 2.35001 6.78999 2.35001 6.64999C3.29001 6.65999 4.23001 6.66 5.17001 6.66Z" fill="#ECB3C2"/>
<path d="M39.73 20.79C39.74 20.61 39.76 20.43 39.76 20.24C39.76 15.72 39.76 11.19 39.76 6.67C40.68 6.67 41.59 6.67 42.51 6.67C42.51 12.98 42.51 19.3 42.52 25.61C42.52 26.01 42.37 26.13 41.99 26.12C41.41 26.1 40.83 26.1 40.25 26.12C39.84 26.14 39.7 25.98 39.7 25.58C39.73 23.99 39.73 22.39 39.73 20.79Z" fill="#ECB3C2"/>
<path d="M27.79 9.82C30.79 9.82 33.79 9.82 36.78 9.81C37.14 9.81 37.23 9.92 37.23 10.27C37.21 11.78 37.21 13.3 37.23 14.81C37.23 15.15 37.15 15.27 36.79 15.27C33.79 15.25 30.79 15.26 27.8 15.26C27.8 13.44 27.79 11.63 27.79 9.82ZM33.74 11.86C33.27 11.86 32.81 11.85 32.34 11.86C31.92 11.87 31.64 12.12 31.62 12.49C31.6 12.84 31.87 13.16 32.29 13.17C33.26 13.19 34.24 13.19 35.22 13.17C35.64 13.16 35.89 12.85 35.87 12.48C35.85 12.11 35.58 11.87 35.15 11.86C34.68 11.85 34.21 11.86 33.74 11.86Z" fill="#FCEDF2"/>
<path d="M33.74 18.99C33.29 18.99 32.84 19 32.38 18.99C31.92 18.98 31.62 18.7 31.62 18.3C31.62 17.91 31.93 17.64 32.4 17.64C33.3 17.63 34.21 17.63 35.11 17.64C35.58 17.64 35.87 17.92 35.86 18.32C35.86 18.72 35.57 18.98 35.09 18.99C34.65 19 34.2 18.99 33.74 18.99Z" fill="#EE2F66"/>
<path d="M33.71 7.63001C33.24 7.63001 32.78 7.64001 32.31 7.63001C31.91 7.62001 31.61 7.33001 31.62 6.98001C31.63 6.61001 31.9 6.34001 32.32 6.33001C33.27 6.32001 34.22 6.32001 35.16 6.33001C35.6 6.33001 35.87 6.62001 35.86 7.01001C35.85 7.38001 35.58 7.62001 35.15 7.63001C34.68 7.64001 34.19 7.64001 33.71 7.63001Z" fill="#EE2F66"/>
<path d="M33.74 11.86C34.21 11.86 34.67 11.85 35.14 11.86C35.57 11.87 35.84 12.11 35.86 12.48C35.88 12.85 35.64 13.16 35.21 13.17C34.24 13.2 33.26 13.2 32.28 13.17C31.87 13.16 31.6 12.84 31.61 12.49C31.63 12.12 31.91 11.87 32.33 11.86C32.81 11.85 33.28 11.86 33.74 11.86Z" fill="#EE2F66"/>
</svg>
