<svg width="35" height="21" viewBox="0 0 35 21" fill="none" xmlns="http://www.w3.org/2000/svg">
<path d="M18.33 4.63C20.24 4.63 22.15 4.64 24.06 4.64C24.77 4.64 25.48 4.64 26.19 4.64C26.76 4.64 26.99 4.87 26.99 5.45C26.99 5.82 26.99 6.20001 26.99 6.57001C26.98 7.10001 26.73 7.36 26.19 7.36C24.84 7.37 23.49 7.36 22.13 7.36C21.44 7.36 20.76 7.37 20.07 7.37C18.39 7.37 16.71 7.37 15.03 7.37C13.04 7.37 11.05 7.36 9.05998 7.36C8.31998 7.36 8.10999 7.14999 8.10999 6.39999C8.10999 6.08999 8.10999 5.77001 8.10999 5.46001C8.10999 4.86001 8.32999 4.64 8.92999 4.63C11.48 4.63 14.03 4.63 16.58 4.63C16.72 4.63 16.86 4.62 17 4.62C17.45 4.63 17.89 4.63 18.33 4.63Z" fill="#F9C5D5"/>
<path d="M19.11 20.23C18.02 20.23 16.92 20.25 15.83 20.24C15.32 20.24 15.06 19.92 15.06 19.36C15.06 16.74 15.06 14.12 15.06 11.5C15.06 10.43 15.07 9.36 15.07 8.29C16.28 8.29 17.49 8.30001 18.7 8.28001C19.04 8.27001 19.12 8.38001 19.12 8.71001C19.1 12.55 19.11 16.39 19.11 20.23Z" fill="#F9C5D5"/>
<path d="M34.04 0.220001C34.56 0.430001 34.81 0.880002 34.75 1.4C34.59 2.77 34.44 4.15 34.29 5.53C34.14 6.88 33.98 8.23 33.82 9.58C33.72 10.42 33.64 11.27 33.53 12.11C33.45 12.74 33.07 13.09 32.43 13.1C32.18 13.11 32.18 13.22 32.19 13.4C32.32 14.71 32.44 16.02 32.57 17.33C32.64 18.01 32.71 18.7 32.76 19.38C32.79 19.86 32.54 20.18 32.12 20.23C31.72 20.27 31.39 19.97 31.35 19.5C31.16 17.55 30.97 15.6 30.79 13.66C30.74 13.11 30.75 13.11 30.19 13.11C28.86 13.11 27.53 13.12 26.2 13.1C25.92 13.1 25.85 13.2 25.83 13.45C25.65 15.47 25.46 17.49 25.26 19.5C25.22 19.95 24.87 20.26 24.48 20.22C24.05 20.17 23.79 19.8 23.83 19.34C24.03 17.35 24.22 15.35 24.42 13.36C24.44 13.16 24.4 13.08 24.19 13.1C23.98 13.12 23.77 13.12 23.56 13.1C23.11 13.06 22.76 12.87 22.61 12.41C22.7 12.3 22.82 12.33 22.93 12.33C23.26 12.33 23.58 12.33 23.91 12.33C26.47 12.33 29.04 12.33 31.6 12.33C32.3 12.33 32.66 11.99 32.77 11.3C32.83 10.88 32.88 10.45 32.92 10.03C33.02 9.09 33.15 8.15001 33.25 7.21001C33.35 6.29001 33.44 5.37 33.54 4.45C33.65 3.45 33.75 2.45 33.89 1.45C33.93 1.05 33.9 0.620001 34.04 0.220001Z" fill="#EE2F66"/>
<path d="M12.53 12.43C12.36 12.91 11.99 13.1 11.51 13.12C11.26 13.13 10.92 13.04 10.77 13.17C10.59 13.32 10.76 13.65 10.79 13.9C10.95 15.71 11.12 17.52 11.3 19.33C11.35 19.83 11.1 20.2 10.67 20.25C10.25 20.3 9.91999 19.97 9.87999 19.46C9.68999 17.44 9.49999 15.43 9.30999 13.41C9.28999 13.19 9.20999 13.12 8.98999 13.12C7.55999 13.13 6.12 13.13 4.69 13.12C4.48 13.12 4.41 13.18 4.4 13.39C4.28 14.75 4.14 16.1 4.01 17.46C3.94 18.17 3.88 18.87 3.8 19.58C3.76 19.99 3.42 20.28 3.04 20.25C2.65 20.22 2.34999 19.91 2.38999 19.49C2.47999 18.29 2.59999 17.1 2.70999 15.91C2.78999 15.09 2.85999 14.26 2.94999 13.44C2.97999 13.2 2.91 13.13 2.66 13.12C2.1 13.11 1.69 12.74 1.62 12.18C1.45 10.76 1.28999 9.34 1.12999 7.92C0.979992 6.57 0.819998 5.22 0.659998 3.87C0.559998 3.02 0.459992 2.16 0.379992 1.31C0.329992 0.839998 0.639994 0.420001 1.13999 0.220001C1.20999 0.960001 1.26999 1.69 1.34999 2.43C1.44999 3.37 1.58 4.31 1.68 5.25C1.78 6.17 1.87 7.08999 1.97 8.00999C2.08 8.99999 2.20999 9.98 2.30999 10.97C2.39999 11.97 2.72 12.38 3.79 12.37C6.57 12.36 9.35999 12.37 12.14 12.37C12.27 12.35 12.42 12.3 12.53 12.43Z" fill="#EE2F66"/>
<path d="M12.53 12.43C12.42 12.3 12.27 12.35 12.14 12.35C9.35998 12.35 6.56999 12.34 3.78999 12.35C2.70999 12.35 2.39998 11.95 2.30998 10.95C2.21998 9.96 2.07999 8.98001 1.96999 7.99001C1.86999 7.07001 1.77999 6.15 1.67999 5.23C1.56999 4.29 1.44998 3.35 1.34998 2.41C1.26998 1.68 1.20998 0.939997 1.13998 0.199997C1.95998 0.0599968 2.44999 0.400003 2.53999 1.23C2.81999 3.69 3.09999 6.15 3.36999 8.61C3.44999 9.28 3.52998 9.95 3.58998 10.62C3.60998 10.87 3.70999 10.96 3.97999 10.96C6.47999 10.95 8.98998 10.95 11.49 10.95C12.32 10.95 12.8 11.64 12.53 12.43Z" fill="#F9C5D5"/>
<path d="M34.04 0.220007C33.91 0.620007 33.93 1.05 33.88 1.46C33.74 2.46 33.64 3.46001 33.53 4.46001C33.43 5.38001 33.34 6.30001 33.24 7.22001C33.13 8.16001 33.01 9.1 32.91 10.04C32.87 10.47 32.82 10.89 32.76 11.31C32.66 12 32.29 12.34 31.59 12.34C29.03 12.34 26.46 12.34 23.9 12.34C23.57 12.34 23.25 12.34 22.92 12.34C22.81 12.34 22.68 12.3 22.6 12.42C22.33 11.63 22.81 10.95 23.65 10.95C26.14 10.95 28.64 10.94 31.13 10.96C31.44 10.96 31.52 10.85 31.55 10.58C31.76 8.61001 31.98 6.65 32.2 4.68C32.33 3.48 32.47 2.28001 32.61 1.07001C32.69 0.390006 33.31 0.0300071 34.04 0.220007Z" fill="#F9C5D5"/>
<path d="M19.11 20.23C19.11 16.39 19.1 12.55 19.12 8.71001C19.12 8.38001 19.05 8.27 18.7 8.28C17.49 8.3 16.28 8.28999 15.07 8.28999C15.06 7.98999 15.06 7.68 15.05 7.38C16.73 7.38 18.41 7.38 20.09 7.38C20.09 11.37 20.09 15.35 20.09 19.34C20.08 20.02 19.78 20.29 19.11 20.23Z" fill="#EE2F66"/>
</svg>
