<svg width="22" height="18" viewBox="0 0 22 18" fill="none" xmlns="http://www.w3.org/2000/svg">
<path d="M16.09 4.78C16.33 4.99 16.5 5.26 16.68 5.52C16.75 5.62 16.83 5.66 16.95 5.66C17.55 5.66 18.15 5.66 18.75 5.66C20.18 5.63 21.13 6.68 21.28 7.73C21.28 7.75 21.3 7.76 21.31 7.78V8.53C21.23 8.58 21.25 8.66 21.23 8.73C21.05 9.45 20.9 10.18 20.68 10.89C20.35 11.96 19.46 12.6 18.35 12.63C18.21 12.63 18.06 12.63 17.92 12.63C17.92 12.21 17.92 11.79 17.92 11.38C18.05 11.38 18.18 11.38 18.31 11.38C18.94 11.36 19.37 11.02 19.52 10.43C19.69 9.77 19.85 9.11 20.01 8.44C20.21 7.58 19.57 6.98 18.95 6.95C18.44 6.92 17.93 6.95 17.42 6.94C17.31 6.71 17.2 6.48 17.1 6.25C17.05 6.14 16.99 6.1 16.87 6.1C14.86 6.1 12.84 6.1 10.83 6.1C10.83 5.68 10.83 5.25 10.83 4.83C12.58 4.83 14.33 4.83 16.08 4.82L16.09 4.78Z" fill="#EE2F66"/>
<path d="M3.76 13.98C3.76 13.31 3.76 12.63 3.76 11.96C3.76 11.87 3.77 11.78 3.72 11.7C3.79 11.64 3.76 11.56 3.76 11.49C3.76 10.88 3.76 10.27 3.76 9.64998C3.76 9.31998 3.79 8.98998 3.82 8.66998C3.88 8.05998 4.05 7.46998 4.25 6.89998C4.38 6.61998 4.49 6.32998 4.66 6.06998C6.72 6.06998 8.78 6.06998 10.84 6.06998C10.84 8.69998 10.84 11.33 10.84 13.96C10.75 13.96 10.66 13.97 10.57 13.97C8.39 13.97 6.22 13.97 4.04 13.97C3.95 13.97 3.86 13.97 3.77 13.97L3.76 13.98Z" fill="#FFC8DA"/>
<path d="M10.83 13.96C10.83 11.33 10.83 8.69998 10.83 6.06998C12.84 6.06998 14.86 6.06998 16.87 6.06998C16.99 6.06998 17.05 6.10998 17.1 6.21998C17.2 6.44998 17.31 6.67998 17.42 6.90998C17.44 6.97998 17.46 7.03998 17.48 7.10998C17.71 7.78998 17.87 8.48998 17.87 9.21998C17.87 9.84998 17.87 10.48 17.87 11.12C17.87 11.2 17.86 11.29 17.9 11.36C17.9 11.78 17.9 12.2 17.9 12.61C17.9 13.07 17.89 13.53 17.88 13.99C17.5 13.99 17.12 13.98 16.74 13.98C14.76 13.98 12.79 13.98 10.81 13.98V13.96H10.83Z" fill="#ECB3C2"/>
<path d="M3.75999 13.98C3.84999 13.98 3.93999 13.98 4.02999 13.98C6.21 13.98 8.38 13.98 10.56 13.98C10.65 13.98 10.74 13.98 10.83 13.97V13.99C10.83 15.04 10.83 16.08 10.83 17.13C8.69 17.13 6.55999 17.13 4.41999 17.13C4.01999 17.13 3.75999 16.86 3.75999 16.44C3.75999 15.63 3.75999 14.81 3.75999 14V13.98Z" fill="#ECB3C2"/>
<path d="M10.83 17.11C10.83 16.06 10.83 15.02 10.83 13.97C12.81 13.97 14.78 13.97 16.76 13.97C17.14 13.97 17.52 13.97 17.9 13.98C17.9 14.79 17.9 15.59 17.9 16.4C17.9 16.88 17.64 17.12 17.16 17.12C15.11 17.12 13.05 17.12 11 17.12C10.95 17.12 10.89 17.12 10.84 17.12L10.83 17.11Z" fill="#EE2F66"/>
<path d="M4.25 6.88999C4.05 7.46999 3.88 8.04999 3.82 8.65999C3.79 8.98999 3.76 9.31999 3.76 9.63999C3.76 10.25 3.76 10.86 3.76 11.48C3.76 11.55 3.79 11.63 3.72 11.69C2.59 10.56 1.45 9.42999 0.319998 8.29999C0.0299981 8.00999 0.0399981 7.65 0.319998 7.36C0.889998 6.78 1.47 6.2 2.05 5.63C2.34 5.34 2.7 5.35 2.99 5.63C3.41 6.04 3.83 6.46 4.25 6.88V6.88999Z" fill="#EE2F66"/>
<path d="M16.09 4.77999C14.34 4.77999 12.59 4.77999 10.84 4.77999C10.84 3.98999 10.84 3.2 10.84 2.41C10.84 2.4 10.84 2.38 10.84 2.37C11.05 2.4 11.25 2.42 11.46 2.41C13.27 2.61 14.8 3.34999 16.03 4.68999C16.05 4.70999 16.07 4.74 16.09 4.77V4.77999Z" fill="#ECB3C2"/>
<path d="M10.83 2.41998C10.83 3.20998 10.83 3.99999 10.83 4.78999C10.74 4.78999 10.65 4.78999 10.56 4.78999C8.89 4.78999 7.23 4.78999 5.56 4.78999C6.3 3.90999 7.22 3.29998 8.27999 2.88998C8.89999 2.64998 9.53999 2.50999 10.19 2.42999C10.4 2.42999 10.61 2.42999 10.82 2.42999L10.83 2.41998Z" fill="#FFC8DA"/>
<path d="M5.57 4.77999C7.24 4.77999 8.9 4.77999 10.57 4.77999C10.66 4.77999 10.75 4.77999 10.84 4.77999C10.84 5.19999 10.84 5.62999 10.84 6.04999C8.78 6.04999 6.72 6.04999 4.66 6.04999C4.9 5.57999 5.19001 5.13999 5.58001 4.76999L5.57 4.77999Z" fill="#ECB3C2"/>
<path d="M10.83 2.41999C10.62 2.41999 10.41 2.41999 10.2 2.41999C10.2 1.99999 10.2 1.57999 10.2 1.16999C10.2 0.749987 10.41 0.52999 10.83 0.48999C10.83 1.11999 10.83 1.74999 10.83 2.37999C10.83 2.38999 10.83 2.40999 10.83 2.41999Z" fill="#ECB3C2"/>
<path d="M10.83 2.37999C10.83 1.74999 10.83 1.11999 10.83 0.48999C10.95 0.53999 11.08 0.509989 11.19 0.609989C11.35 0.749989 11.45 0.90999 11.45 1.12999C11.45 1.55999 11.45 1.99999 11.45 2.42999C11.24 2.43999 11.03 2.41999 10.83 2.38999V2.37999Z" fill="#EE2F66"/>
</svg>
