<svg width="26" height="25" viewBox="0 0 26 25" fill="none" xmlns="http://www.w3.org/2000/svg">
<path d="M1.99 24.92C1.5 24.92 1.01 24.92 0.52 24.92C0.39 24.92 0.33 24.88 0.34 24.74C0.34 24.69 0.34 24.64 0.34 24.59C0.34 16.54 0.34 8.5 0.34 0.449995C0.34 0.199995 0.389999 0.119995 0.659999 0.119995C8.71 0.119995 16.77 0.119995 24.82 0.119995C25.09 0.119995 25.14 0.199995 25.14 0.449995C25.14 8.5 25.14 16.54 25.14 24.59C25.14 24.97 25.19 24.92 24.81 24.92C24.37 24.92 23.93 24.92 23.49 24.92C23.49 24.81 23.49 24.7 23.49 24.58C23.49 18.19 23.49 11.81 23.49 5.41999C23.49 5.19999 23.3767 5.08999 23.15 5.08999C16.21 5.08999 9.28 5.08999 2.34 5.08999C2.11333 5.08999 2 5.19999 2 5.41999C2 11.81 2 18.19 2 24.58C2 24.69 2 24.8 2 24.92H1.99ZM15.21 1.79C14.88 1.79 14.54 1.79 14.21 1.79C14.16 1.79 14.08 1.75999 14.05 1.82999C14.02 1.87999 14.08 1.91999 14.11 1.95999C14.44 2.40999 14.78 2.84999 15.11 3.29999C15.19 3.39999 15.25 3.39999 15.33 3.29999C15.66 2.84999 16 2.40999 16.33 1.95999C16.36 1.91999 16.41 1.87999 16.39 1.82999C16.36 1.75999 16.28 1.79 16.23 1.79C15.9 1.79 15.56 1.79 15.23 1.79H15.21ZM10.26 3.43999C10.6 3.43999 10.93 3.43999 11.27 3.43999C11.45 3.43999 11.46 3.38999 11.36 3.25999C11.03 2.81999 10.7 2.37999 10.38 1.93999C10.31 1.84999 10.24 1.81999 10.16 1.92999C9.82 2.37999 9.49 2.84 9.15 3.29C9.05 3.43 9.12 3.43999 9.24 3.43999C9.58 3.43999 9.93 3.43999 10.27 3.43999H10.26Z" fill="#EE2F66"/>
<path d="M1.99 24.92C1.99 24.81 1.99 24.7 1.99 24.58C1.99 18.19 1.99 11.81 1.99 5.41999C1.99 5.19999 2.10333 5.09 2.33 5.09C9.27 5.09 16.2 5.09 23.14 5.09C23.3667 5.09 23.48 5.19999 23.48 5.41999C23.48 11.81 23.48 18.19 23.48 24.58C23.48 24.69 23.48 24.8 23.48 24.92C22.93 24.92 22.38 24.92 21.83 24.92C21.83 21.79 21.83 18.66 21.83 15.53C21.83 12.71 21.83 9.89 21.83 7.07C21.83 6.85 21.7167 6.74 21.49 6.74C21.05 6.74 20.61 6.74 20.17 6.74C17.03 6.74 13.89 6.74 10.75 6.74C8.93 6.74 7.12 6.74 5.3 6.74C4.86 6.74 4.42 6.74 3.98 6.74C3.75333 6.74 3.64 6.85 3.64 7.07C3.64 9.11 3.64 11.14 3.64 13.18C3.64 17.09 3.64 21 3.64 24.91C3.09 24.91 2.54 24.91 1.99 24.91V24.92Z" fill="#ECB3C2"/>
<path d="M17.12 14.18C17.71 14.3 18.22 14.56 18.57 15.08C18.81 15.43 18.93 15.82 18.93 16.24C18.93 17.13 18.93 18.03 18.93 18.92C18.93 19.08 18.88 19.19 18.73 19.23C18.19 19.37 18.07 19.71 18.09 20.25C18.13 21.71 18.1 23.18 18.11 24.64C18.11 24.84 18.07 24.92 17.85 24.92C17.11 24.9 16.37 24.91 15.63 24.91C15.63 23.42 15.63 21.93 15.63 20.45C15.63 20.16 15.71 19.82 15.59 19.59C15.47 19.35 15.1 19.31 14.85 19.16C14.84 19.16 14.82 19.14 14.8 19.14C14.8 18.21 14.8 17.28 14.8 16.34C14.8 16.19 14.72 16.04 14.8 15.89C14.94 15.54 15.05 15.18 15.31 14.89C15.66 14.49 16.11 14.28 16.62 14.18C16.79 14.18 16.96 14.18 17.12 14.18Z" fill="#FFC8DA"/>
<path d="M9.84 24.91C9.07 24.91 8.31 24.91 7.54 24.92C7.33 24.92 7.36 24.8 7.36 24.67C7.36 23.05 7.36 21.43 7.36 19.82C7.36 19.62 7.32 19.48 7.12 19.43C6.6 19.3 6.48 18.96 6.52 18.46C6.57 17.76 6.53 17.05 6.53 16.34C6.53 15.23 7.16 14.45 8.25 14.21C8.28 14.21 8.31 14.19 8.35 14.18C8.52 14.18 8.69 14.18 8.86 14.18C9.36 14.29 9.81 14.49 10.16 14.88C10.41 15.17 10.53 15.52 10.66 15.87C10.75 16.02 10.66 16.17 10.66 16.32C10.66 17.26 10.66 18.19 10.66 19.13C10.46 19.23 10.27 19.34 10.06 19.43C9.88 19.5 9.83 19.61 9.83 19.8C9.83 21.5 9.83 23.21 9.83 24.91H9.84Z" fill="#FFC8DA"/>
<path d="M10.67 19.14C10.67 18.2 10.67 17.27 10.67 16.33C10.67 16.18 10.76 16.03 10.67 15.88C10.8 15.63 10.86 15.35 11.02 15.12C11.38 14.59 11.88 14.31 12.49 14.19C12.66 14.19 12.83 14.19 13 14.19C13.05 14.2 13.1 14.22 13.15 14.23C13.94 14.4 14.45 14.88 14.72 15.63C14.75 15.72 14.74 15.82 14.81 15.89C14.73 16.04 14.81 16.19 14.81 16.34C14.81 17.27 14.81 18.2 14.81 19.14C14.61 19.24 14.42 19.36 14.21 19.44C14.03 19.51 13.98 19.62 13.98 19.81C13.98 21.51 13.98 23.22 13.98 24.92C13.15 24.92 12.33 24.92 11.5 24.92C11.5 23.43 11.5 21.94 11.5 20.45C11.5 20.16 11.59 19.82 11.47 19.59C11.35 19.36 10.98 19.31 10.73 19.17C10.72 19.17 10.7 19.15 10.68 19.15L10.67 19.14Z" fill="#ECB3C2"/>
<path d="M3.64 24.92C3.64 21.01 3.64 17.1 3.64 13.19C3.64 11.15 3.64 9.12 3.64 7.08C3.64 6.86 3.75333 6.75 3.98 6.75C4.42 6.75 4.86 6.75 5.3 6.75C5.3 12.65 5.3 18.56 5.3 24.46C5.3 24.7667 5.14334 24.92 4.83 24.92C4.43 24.92 4.04 24.92 3.64 24.92Z" fill="#FFC8DA"/>
<path d="M20.17 6.75C20.61 6.75 21.05 6.75 21.49 6.75C21.7167 6.75 21.83 6.86 21.83 7.08C21.83 9.9 21.83 12.72 21.83 15.54C21.83 18.67 21.83 21.8 21.83 24.93C21.37 24.93 20.9 24.92 20.44 24.93C20.22 24.93 20.17 24.85 20.17 24.65C20.17 22.54 20.17 20.42 20.17 18.31C20.17 14.46 20.17 10.61 20.17 6.76V6.75Z" fill="#FFC8DA"/>
<path d="M12.48 14.18C11.87 14.3 11.36 14.58 11.01 15.11C10.85 15.35 10.8 15.63 10.66 15.87C10.53 15.52 10.41 15.17 10.16 14.88C9.81 14.48 9.36 14.28 8.86 14.18C9.08 14.06 9.34 14.01 9.49 13.77C10.08 13.26 9.94 12.28 9.22 11.85C9.15 11.81 9.05 11.79 9.02 11.7C9.37 11.23 9.86 10.99 10.42 10.88C10.59 10.88 10.76 10.88 10.92 10.88C11.49 10.99 11.97 11.23 12.32 11.7C12.22 11.86 11.98 11.87 11.9 12.06C11.39 12.49 11.35 13.25 11.8 13.75C11.99 13.96 12.23 14.07 12.48 14.18Z" fill="#EE2F66"/>
<path d="M14.8 15.89C14.72 15.82 14.74 15.72 14.71 15.63C14.44 14.87 13.93 14.4 13.14 14.23C13.09 14.22 13.04 14.2 12.99 14.19C13.21 14.07 13.47 14.02 13.62 13.78C14.21 13.27 14.07 12.29 13.35 11.86C13.28 11.82 13.18 11.8 13.15 11.71C13.5 11.24 13.99 11 14.55 10.89C14.72 10.89 14.89 10.89 15.05 10.89C15.62 11 16.1 11.24 16.45 11.71C16.35 11.87 16.11 11.88 16.03 12.07C15.52 12.5 15.48 13.26 15.93 13.76C16.12 13.97 16.36 14.08 16.61 14.2C16.1 14.3 15.65 14.51 15.3 14.91C15.04 15.2 14.93 15.56 14.79 15.91L14.8 15.89Z" fill="#EE2F66"/>
<path d="M16.04 12.06C16.12 11.87 16.36 11.87 16.46 11.7C16.88 11.7 17.29 11.67 17.66 11.96C18.25 12.42 18.27 13.42 17.76 13.77C16.85 13.75 16.13 13.03 16.04 12.06Z" fill="#ECB3C2"/>
<path d="M9.84 8.75C10.11 8.39 10.49 8.35 10.88 8.41C11.35 8.48 11.7 8.77 11.85 9.23C12 9.67 11.92 10.08 11.63 10.44C11.62 10.46 11.58 10.46 11.56 10.47C11.48 10.47 11.39 10.47 11.31 10.45C10.45 10.25 9.99999 9.72999 9.84999 8.75999L9.84 8.75Z" fill="#ECB3C2"/>
<path d="M13.97 8.75C14.24 8.39 14.62 8.35 15.01 8.41C15.48 8.48 15.83 8.77 15.98 9.23C16.13 9.67 16.05 10.08 15.76 10.44C15.75 10.46 15.71 10.46 15.69 10.47C15.61 10.47 15.52 10.47 15.44 10.45C14.58 10.25 14.13 9.72999 13.98 8.75999L13.97 8.75Z" fill="#ECB3C2"/>
<path d="M13.15 11.7C13.18 11.8 13.28 11.81 13.35 11.85C14.07 12.28 14.21 13.26 13.62 13.77C12.69 13.73 11.99 13.03 11.91 12.06C11.99 11.87 12.23 11.87 12.33 11.7C12.61 11.7 12.88 11.7 13.16 11.7H13.15Z" fill="#ECB3C2"/>
<path d="M9.02 11.7C9.05 11.8 9.15 11.81 9.22 11.85C9.94 12.28 10.08 13.26 9.49 13.77C8.56 13.73 7.85 13.02 7.78 12.05C7.95 11.8 8.21 11.72 8.48 11.7C8.66 11.68 8.84 11.7 9.02 11.7Z" fill="#ECB3C2"/>
<path d="M9.84 8.74999C9.99 9.71999 10.44 10.24 11.3 10.44C11.38 10.46 11.47 10.46 11.55 10.46C11.41 10.71 11.14 10.75 10.92 10.87C10.75 10.87 10.58 10.87 10.42 10.87C10.18 10.75 9.93 10.64 9.74 10.44C9.3 9.98999 9.35 9.07999 9.85 8.73999L9.84 8.74999Z" fill="#FFC8DA"/>
<path d="M13.97 8.74999C14.12 9.71999 14.57 10.24 15.43 10.44C15.51 10.46 15.6 10.46 15.68 10.46C15.54 10.71 15.27 10.75 15.05 10.87C14.88 10.87 14.71 10.87 14.55 10.87C14.31 10.75 14.06 10.64 13.87 10.44C13.43 9.98999 13.48 9.07999 13.98 8.73999L13.97 8.74999Z" fill="#FFC8DA"/>
<path d="M7.78 12.06C7.85 13.02 8.56 13.74 9.49 13.78C9.34 14.02 9.08 14.07 8.86 14.19C8.69 14.19 8.52 14.19 8.35 14.19C8.1 14.08 7.86 13.96 7.67 13.76C7.23 13.31 7.28 12.4 7.78 12.07V12.06Z" fill="#FFC8DA"/>
<path d="M16.04 12.06C16.13 13.03 16.84 13.75 17.76 13.77C17.62 14.02 17.35 14.06 17.12 14.18C16.95 14.18 16.78 14.18 16.61 14.18C16.37 14.06 16.12 13.96 15.93 13.74C15.49 13.24 15.52 12.48 16.03 12.05L16.04 12.06Z" fill="#FFC8DA"/>
<path d="M15.21 1.78999C15.54 1.78999 15.88 1.78999 16.21 1.78999C16.26 1.78999 16.34 1.75999 16.37 1.82999C16.4 1.87999 16.34 1.91999 16.31 1.95999C15.98 2.40999 15.64 2.84999 15.31 3.29999C15.23 3.39999 15.17 3.39999 15.09 3.29999C14.76 2.84999 14.42 2.40999 14.09 1.95999C14.06 1.91999 14.01 1.87999 14.03 1.82999C14.06 1.75999 14.14 1.78999 14.19 1.78999C14.52 1.78999 14.86 1.78999 15.19 1.78999H15.21Z" fill="#FFC8DA"/>
<path d="M10.26 3.43999C9.92 3.43999 9.57 3.43999 9.23 3.43999C9.11 3.43999 9.03 3.41999 9.14 3.28999C9.48 2.83999 9.82 2.37999 10.15 1.92999C10.23 1.81999 10.3 1.84999 10.37 1.93999C10.7 2.37999 11.02 2.81999 11.35 3.25999C11.45 3.38999 11.44 3.44999 11.26 3.43999C10.92 3.43999 10.59 3.43999 10.25 3.43999H10.26Z" fill="#FFC8DA"/>
<path d="M11.9 12.06C11.99 13.03 12.68 13.73 13.61 13.77C13.46 14 13.2 14.06 12.98 14.18C12.81 14.18 12.64 14.18 12.47 14.18C12.22 14.07 11.98 13.96 11.79 13.75C11.35 13.25 11.39 12.5 11.89 12.06H11.9Z" fill="#FFC8DA"/>
</svg>
