<svg width="20" height="23" viewBox="0 0 20 23" fill="none" xmlns="http://www.w3.org/2000/svg">
<path d="M18.94 7.91C18.76 6.67 18.33 5.51 17.67 4.44C16.95 3.27 16.02 2.31 14.88 1.57C13.8 0.869998 12.73 0.319999 11.35 0.189999C8.93 -0.0400013 7.58 0.319998 6.77 0.639998C5.67 1.08 4.64 1.62 3.77 2.41C2.83 3.26 2.05 4.24 1.52 5.41C1.1 6.34 0.860002 7.31 0.770002 8.32C0.710002 8.99 0.720001 9.65 0.800001 10.32C0.920001 11.32 1.19 12.26 1.62 13.17C2.19 14.38 3.01 15.4 4.03 16.26C4.83 16.93 5.71 17.45 6.69 17.81C7.17 17.99 7.67 18.12 8.17 18.24C8.96 18.36 9.75 18.41 10.55 18.37C10.91 18.35 11.25 18.28 11.6 18.24C11.77 18.2 11.94 18.16 12.11 18.11C13.47 17.76 14.68 17.14 15.75 16.24C16.65 15.48 17.39 14.6 17.95 13.56C18.48 12.55 18.83 11.48 18.97 10.34C19.07 9.53 19.06 8.73 18.95 7.92L18.94 7.91ZM18.77 9.29C18.7 9.89 18.54 10.46 18.23 10.99C18.18 11.07 18.15 11.15 18.11 11.22C18.1 11.26 18.09 11.27 18.06 11.31C18.02 11.72 17.86 12.09 17.71 12.46C17.25 13.59 16.56 14.56 15.68 15.4C14.93 16.11 14.07 16.66 13.12 17.06C12.96 17.13 12.86 17.12 12.79 16.92C12.69 16.6 12.57 16.28 12.44 15.97C12.38 15.81 12.42 15.73 12.58 15.67C13.47 15.31 14.25 14.77 14.92 14.08C15.17 13.83 15.37 13.54 15.6 13.27C15.63 13.23 15.65 13.18 15.64 13.13C15.33 13.19 15.02 13.25 14.71 13.31C14.06 14.08 13.26 14.66 12.34 15.06C12.19 15.13 12.13 15.09 12.07 14.93C11.78 14.12 11.53 13.36 11.23 12.55C11.2 12.48 11.03 12.06 10.81 11.65C10.68 11.7 10.36 11.71 10.23 11.78C10.23 11.83 10.23 11.87 10.23 11.92C10.46 12.41 10.61 12.92 10.8 13.42C11.02 13.99 11.21 14.57 11.43 15.14C11.48 15.28 11.46 15.35 11.3 15.38C10.96 15.45 10.63 15.52 10.28 15.51C10.3 15.74 10.23 15.98 10.32 16.21C10.74 16.16 11.16 16.12 11.58 16C11.68 15.97 11.75 16 11.79 16.13C11.92 16.49 12.05 16.85 12.19 17.21C12.24 17.34 12.19 17.39 12.08 17.41C11.5 17.55 10.92 17.67 10.32 17.68C10.3 17.77 10.27 17.85 10.18 17.9C9.94 18.09 9.69 17.95 9.45 17.92C9.01 17.86 8.6 17.67 8.19 17.5C7.61 17.43 7.08 17.23 6.55 17.01C5.44 16.54 4.48 15.86 3.66 14.98C2.85 14.11 2.25 13.12 1.86 12C1.81 11.86 1.82 11.79 1.98 11.75C2.33 11.66 2.67 11.55 3.01 11.44C3.15 11.39 3.23 11.4 3.28 11.57C3.64 12.59 4.21 13.47 4.98 14.22C5.25 14.49 5.54 14.75 5.86 14.95C5.92 14.99 5.98 15.04 6.06 15.02C5.98 14.71 5.91 14.4 5.84 14.09C4.95 13.33 4.29 12.41 3.89 11.3C3.84 11.17 3.91 11.16 3.99 11.14C4.79 10.9 5.6 10.72 6.37 10.42C7.38 10.02 7.34 9.88 7.56 9.71C7.58 9.63 7.53 9.56 7.52 9.48C7.36 9.48 7.19 9.48 7.03 9.48C6.58 9.68 6.1 9.78 5.63 9.93C5.07 10.12 4.49 10.27 3.92 10.46C3.73 10.52 3.65 10.48 3.62 10.29C3.59 10.06 3.56 9.84 3.53 9.62H2.86C2.92 9.93 2.91 10.25 2.99 10.56C3.02 10.68 2.99 10.76 2.85 10.8C2.48 10.9 2.12 11.02 1.75 11.13C1.67 11.16 1.6 11.19 1.58 11.06C1.5 10.6 1.39 10.14 1.41 9.67C1.32 9.67 1.24 9.65 1.19 9.58C1.05 9.49 1.06 9.35 1.07 9.21C1.12 8.63 1.3 8.08 1.54 7.55C1.61 7.02 1.77 6.5 1.96 6C2.38 4.95 3.03 4.04 3.83 3.24C4.43 2.64 5.11 2.14 5.87 1.74C6.03 1.65 6.13 1.63 6.23 1.83C6.38 2.16 6.56 2.47 6.74 2.78C6.81 2.89 6.78 2.92 6.68 2.97C5.91 3.35 5.26 3.88 4.68 4.5C4.43 4.77 4.22 5.05 4.02 5.36C4.36 5.3 4.69 5.17 5.04 5.13C5.32 4.7 5.73 4.39 6.13 4.08C6.4 3.88 6.68 3.69 6.99 3.55C7.07 3.51 7.13 3.48 7.18 3.59C7.57 4.32 7.97 5.05 8.36 5.78C8.38 5.81 8.38 5.85 8.39 5.88C8.43 5.89 8.42 5.91 8.39 5.93C8.69 6.14 8.95 6.4 9.2 6.67C9.25 6.72 9.32 6.76 9.32 6.85C9.39 6.85 9.45 6.82 9.5 6.77C9.5 6.65 9.5 6.53 9.5 6.41C9.23 6.05 9.06 5.64 8.84 5.26C8.49 4.65 8.17 4.02 7.83 3.4C7.75 3.24 7.78 3.2 7.94 3.15C8.39 3.01 8.85 2.93 9.32 2.87C9.32 2.65 9.32 2.42 9.32 2.2C8.74 2.26 8.16 2.36 7.61 2.56C7.46 2.62 7.39 2.58 7.32 2.44C7.16 2.12 6.99 1.82 6.82 1.51C6.77 1.42 6.72 1.32 6.87 1.27C7.64 0.989999 8.42 0.779998 9.24 0.739998C9.24 0.609998 9.24 0.469998 9.37 0.389998C9.58 0.219998 9.82 0.299998 10.04 0.329998C10.65 0.399998 11.76 0.929997 11.81 0.969997C12.28 1.01 12.72 1.19 13.15 1.38C14.12 1.79 14.98 2.37 15.75 3.1C16.52 3.84 17.12 4.68 17.57 5.65C17.63 5.78 17.61 5.83 17.49 5.89C17.16 6.05 16.82 6.2 16.49 6.37C16.33 6.45 16.29 6.4 16.22 6.26C15.66 5.07 14.84 4.12 13.75 3.38C13.72 3.35 13.67 3.34 13.63 3.32C13.72 3.65 13.8 3.97 13.85 4.3C14.66 4.92 15.23 5.72 15.66 6.63C15.7 6.71 15.69 6.76 15.61 6.8C14.64 7.25 12.41 8.28 12.36 8.33C12.39 8.49 12.45 8.7 12.48 8.86C12.63 8.86 12.77 8.86 12.92 8.86C13.21 8.67 13.54 8.54 13.86 8.39C14.49 8.09 15.12 7.78 15.74 7.47C15.89 7.39 15.94 7.4 15.99 7.58C16.09 8 16.16 8.42 16.19 8.86H16.86C16.83 8.34 16.76 7.83 16.6 7.33C16.55 7.16 16.57 7.06 16.75 6.99C17.08 6.85 17.41 6.68 17.73 6.52C17.85 6.46 17.89 6.46 17.94 6.61C18.17 7.35 18.32 8.09 18.32 8.86C18.42 8.88 18.54 8.86 18.59 8.99C18.76 9.02 18.78 9.14 18.76 9.27L18.77 9.29Z" fill="#ECB3C2"/>
<path d="M8.17 18.23C8.96 18.35 9.75 18.4 10.55 18.36C10.9 18.34 11.25 18.28 11.6 18.23C11.6 18.82 11.6 19.41 11.6 20C11.6 20.15 11.64 20.19 11.79 20.18C12.28 20.18 12.76 20.17 13.25 20.18C13.74 20.18 14.18 20.35 14.53 20.68C14.89 21.02 15.04 21.48 15.06 21.97C15.06 22.08 15.06 22.19 15.06 22.3C15.05 22.6 14.91 22.73 14.61 22.73C14.27 22.73 13.93 22.73 13.59 22.73C10.79 22.73 7.99 22.73 5.18 22.73C4.8 22.73 4.71 22.63 4.7 22.24C4.69 21.77 4.73 21.31 5.02 20.91C5.39 20.39 5.92 20.17 6.54 20.16C7.02 20.16 7.5 20.16 7.98 20.16C8.13 20.16 8.17 20.12 8.16 19.97C8.16 19.38 8.16 18.79 8.16 18.2L8.17 18.23Z" fill="#EE2F66"/>
<path d="M10.33 17.69C10.31 17.78 10.29 17.87 10.2 17.91C9.32 17.67 8.56 17.25 7.94 16.56C7.26 15.81 6.86 14.93 6.76 13.93C6.66 12.93 6.81 11.96 7.33 11.08C7.46 10.86 7.59 10.57 7.81 10.41C7.87 10.41 7.87 10.5 7.9 10.54C8.44 11.42 9.24 11.79 10.25 11.78C10.25 11.83 10.25 11.87 10.25 11.92C10.26 13.11 10.28 14.31 10.29 15.5C10.3 15.77 10.31 15.94 10.33 16.2C10.33 16.69 10.33 17.18 10.33 17.66V17.69Z" fill="#ECB3C2"/>
<path d="M3.55999 9.64C3.33999 9.64 3.10999 9.64 2.88999 9.64C2.39999 9.68 1.91999 9.68 1.42999 9.68C1.33999 9.68 1.25999 9.66 1.20999 9.58C1.21999 9.53 1.23999 9.48 1.24999 9.43C1.59999 8.16 2.40999 7.24 3.55999 6.65C4.36999 6.23 5.24999 6.06 6.17999 6.17C7.09999 6.27 7.92999 6.6 8.64999 7.17C8.51999 7.35 8.30999 7.44 8.16999 7.62C7.70999 8.17 7.50999 8.79 7.53999 9.5C7.37999 9.5 7.20999 9.5 7.04999 9.5C6.87999 9.48 6.71999 9.54 6.54999 9.54C5.54999 9.54 4.55999 9.58 3.55999 9.64Z" fill="#ECB3C2"/>
<path d="M9.25999 0.779999C9.25999 0.649999 9.26 0.509998 9.39 0.419998C9.78 0.539998 10.16 0.649999 10.52 0.859999C11.66 1.52 12.4 2.49 12.72 3.76C12.96 4.71 12.92 5.65 12.58 6.58C12.43 6.99 12.19 7.35 11.99 7.74C11.81 7.56 11.65 7.38 11.44 7.23C10.86 6.82 10.2 6.76 9.52 6.81C9.52 6.69 9.52 6.57 9.52 6.45C9.52 6.21 9.5 5.98 9.48 5.75C9.43 4.91 9.41 4.06 9.38 3.22C9.38 3.12 9.36 3.02 9.34 2.92C9.34 2.7 9.34 2.47 9.34 2.25C9.31 1.76 9.27999 1.28 9.25999 0.789999V0.779999Z" fill="#ECB3C2"/>
<path d="M16.21 8.88C16.43 8.88 16.65 8.88 16.88 8.88C17.37 8.88 17.86 8.88 18.34 8.88C18.44 8.9 18.56 8.88 18.61 9.01C18.61 9.06 18.6 9.11 18.58 9.16C18.11 10.57 17.16 11.51 15.78 12.02C14.79 12.38 13.78 12.39 12.77 12.09C12.29 11.94 11.81 11.75 11.43 11.4C11.46 11.34 11.52 11.31 11.57 11.26C12.31 10.63 12.64 9.85 12.5 8.88C12.65 8.88 12.79 8.88 12.94 8.88C14.03 8.88 15.12 8.88 16.22 8.88H16.21Z" fill="#ECB3C2"/>
<path d="M12.5 8.87999C12.65 9.84999 12.31 10.64 11.57 11.26C11.52 11.3 11.46 11.33 11.43 11.4C11.16 11.5 10.92 11.65 10.64 11.72C10.51 11.78 10.36 11.72 10.24 11.8C9.23001 11.8 8.43 11.44 7.89 10.56C7.86 10.51 7.54001 10.1 7.54001 9.49999C7.51001 8.78999 7.71 8.16999 8.17 7.61999C8.31 7.44999 8.52001 7.34999 8.65001 7.16999C8.89001 7.09999 9.1 6.92999 9.35 6.87999C9.42 6.87999 9.48 6.84999 9.53 6.79999C10.21 6.74999 10.87 6.79999 11.45 7.21999C11.66 7.36999 11.82 7.54999 12 7.72999C12.14 7.94999 12.27 8.17999 12.41 8.39999C12.44 8.55999 12.47 8.71999 12.5 8.87999ZM10.03 7.49999C9.08 7.45999 8.22001 8.30999 8.24001 9.28999C8.25001 10.29 9.04001 11.09 10.04 11.09C11.04 11.09 11.85 10.28 11.84 9.26999C11.84 8.26999 11.04 7.48999 10.04 7.48999L10.03 7.49999Z" fill="#FEFEFE"/>
<path d="M1.55999 7.56001C1.92999 6.91001 2.40999 6.36001 3.02999 5.93001C3.34999 5.71001 3.69999 5.57 4.02999 5.39C4.36999 5.33 4.69999 5.2 5.04999 5.16C6.18999 5.02 7.24999 5.24001 8.22999 5.86001C8.27999 5.89001 8.32999 5.95001 8.40999 5.93001C8.40999 5.95001 8.40999 5.96 8.40999 5.98C8.70999 6.19 8.96999 6.46001 9.21999 6.72001C9.26999 6.77001 9.33999 6.82001 9.33999 6.90001C9.08999 6.95001 8.87999 7.12 8.63999 7.19C7.90999 6.61 7.08999 6.29 6.16999 6.19C5.23999 6.08 4.35999 6.25 3.54999 6.67C2.39999 7.27 1.58999 8.18001 1.23999 9.45001C1.22999 9.50001 1.20999 9.55 1.19999 9.6C1.05999 9.51 1.06999 9.37 1.07999 9.23C1.12999 8.65 1.30999 8.1 1.54999 7.57L1.55999 7.56001Z" fill="#EE2F66"/>
<path d="M11.83 1C12.12 1.26 12.45 1.48 12.71 1.78C13.12 2.24 13.41 2.77 13.64 3.34C13.73 3.66 13.81 3.99 13.87 4.32C13.87 4.36 13.87 4.39 13.87 4.43C14 5.5 13.76 6.49 13.21 7.41C13.04 7.7 12.8 7.93 12.62 8.21C12.6 8.23 12.58 8.24 12.56 8.26C12.51 8.31 12.45 8.36 12.4 8.41C12.26 8.19 12.13 7.96 11.99 7.74C12.19 7.36 12.43 6.99 12.58 6.58C12.91 5.65 12.96 4.71 12.72 3.76C12.4 2.49 11.65 1.52 10.52 0.860003C10.17 0.650003 9.78 0.540002 9.39 0.420002C9.6 0.250002 9.83 0.330003 10.06 0.360003C10.66 0.430003 11.21 0.670001 11.74 0.960001C11.78 0.970001 11.83 1 11.83 1.01V1Z" fill="#EE2F66"/>
<path d="M18.07 11.31C17.79 11.64 17.52 11.98 17.18 12.26C16.73 12.63 16.23 12.9 15.68 13.09C15.66 13.1 15.65 13.11 15.63 13.13C15.32 13.19 15.01 13.25 14.69 13.31C14.62 13.31 14.56 13.31 14.49 13.31C13.7 13.38 12.94 13.23 12.21 12.92C11.81 12.74 11.46 12.49 11.1 12.24C11.08 12.23 11.07 12.21 11.05 12.2C10.92 12.02 10.73 11.9 10.61 11.72C10.89 11.66 11.14 11.5 11.4 11.4C11.78 11.76 12.25 11.94 12.74 12.09C13.75 12.4 14.76 12.39 15.75 12.02C17.13 11.51 18.08 10.57 18.55 9.16C18.57 9.11 18.57 9.05999 18.58 9.00999C18.75 9.03999 18.76 9.16 18.75 9.29C18.68 9.89 18.52 10.47 18.21 10.99C18.17 11.07 18.13 11.15 18.09 11.23C18.09 11.27 18.07 11.28 18.04 11.32L18.07 11.31Z" fill="#EE2F66"/>
<path d="M7.57001 9.72999C7.59001 9.98999 7.68001 10.22 7.81001 10.44C7.59001 10.6 7.44001 10.87 7.32001 11.08C6.80001 11.96 6.65001 12.93 6.75001 13.93C6.85001 14.93 7.25001 15.81 7.93001 16.56C8.55001 17.24 9.31 17.67 10.19 17.91C9.95 18.1 9.70001 17.96 9.46001 17.93C9.02001 17.87 8.61001 17.68 8.20001 17.51C7.88001 17.28 7.54001 17.07 7.25001 16.8C6.75001 16.32 6.39001 15.74 6.11001 15.11C6.11001 15.07 6.11001 15.04 6.06001 15.02C5.99001 14.71 5.91001 14.4 5.84001 14.09C5.80001 13.58 5.78 13.07 5.87 12.56C6.03 11.7 6.39001 10.95 6.95001 10.28C7.13001 10.07 7.34001 9.87999 7.56001 9.70999L7.57001 9.72999Z" fill="#EE2F66"/>
<path d="M11.08 12.2C11.08 12.2 11.11 12.23 11.13 12.24C11.11 12.23 11.1 12.21 11.08 12.2Z" fill="#FEFEFE"/>
<path d="M8.42 5.97C8.42 5.97 8.42 5.94 8.42 5.92C8.46 5.93 8.45 5.95 8.42 5.97Z" fill="#FEFEFE"/>
<path d="M12.56 8.25999C12.56 8.25999 12.6 8.22999 12.62 8.20999C12.6 8.22999 12.58 8.23999 12.56 8.25999Z" fill="#FEFEFE"/>
<path d="M6.07001 15.04C6.07001 15.04 6.11001 15.09 6.12001 15.13C6.08001 15.11 6.07001 15.08 6.07001 15.04Z" fill="#D2D2D2"/>
<path d="M10.03 7.5C11.04 7.5 11.83 8.28 11.83 9.28C11.83 10.28 11.02 11.1 10.03 11.1C9.04001 11.1 8.25001 10.29 8.23001 9.3C8.22001 8.32 9.07001 7.47 10.02 7.51L10.03 7.5ZM10.05 10.21C10.57 10.21 10.98 9.81 10.99 9.3C10.99 8.79 10.58 8.36 10.08 8.36C9.57001 8.36 9.13001 8.79 9.14001 9.3C9.14001 9.8 9.56001 10.21 10.06 10.21H10.05Z" fill="#ECB3C2"/>
<path d="M15.64 13.13C15.64 13.13 15.67 13.11 15.69 13.09C15.67 13.1 15.66 13.11 15.64 13.13Z" fill="#D2D2D2"/>
<path d="M10.05 10.21C9.55 10.21 9.13 9.8 9.13 9.3C9.13 8.79 9.56 8.35 10.07 8.36C10.57 8.36 10.99 8.79 10.98 9.3C10.98 9.82 10.57 10.21 10.04 10.21H10.05Z" fill="#EE2F66"/>
</svg>
