<svg width="20" height="29" viewBox="0 0 20 29" fill="none" xmlns="http://www.w3.org/2000/svg">
    <path d="M0.130005 10.69C0.130005 7.69999 0.130005 4.71999 0.130005 1.72999C0.130005 1.23999 0.450004 0.989988 0.840004 0.799988H11.82C12.33 1.02999 12.55 1.39999 12.54 1.97999C12.51 3.46999 12.54 4.95999 12.54 6.44999C12.54 6.54999 12.5 6.66999 12.59 6.75999C12.51 6.90999 12.52 7.04999 12.59 7.19999C12.5 7.27999 12.54 7.38999 12.54 7.47999C12.54 8.01999 12.54 8.56999 12.54 9.10999C12.17 8.85999 11.97 8.54999 12.04 8.07999C12.07 7.87999 12.06 7.67999 12.04 7.47999C12.02 7.16999 11.86 7.01999 11.58 7.02999C11.33 7.02999 11.18 7.19999 11.17 7.49999C11.17 7.56999 11.2 7.63999 11.09 7.74999C10.95 7.58999 10.82 7.41999 10.67 7.27999C10.46 7.07999 10.24 7.09999 10.05 7.30999C9.87 7.50999 9.87001 7.66999 10.08 7.87999C10.24 8.03999 10.4 8.18999 10.57 8.33999C10.43 8.39999 10.33 8.39999 10.24 8.39999C9.98001 8.39999 9.81 8.56999 9.82 8.81999C9.82 9.04999 9.99001 9.20999 10.24 9.21999C10.58 9.21999 10.91 9.21999 11.25 9.21999C11.34 9.21999 11.43 9.21999 11.5 9.28999C11.85 9.64999 12.2 10.01 12.55 10.36C12.55 10.47 12.55 10.58 12.55 10.69C12.01 10.69 11.48 10.69 10.94 10.69C10.78 10.69 10.67 10.65 10.56 10.53C10.35 10.31 10.13 10.08 9.90001 9.87999C9.71001 9.70999 9.39 9.70999 9.26 9.85999C9.11 10.04 9.13 10.29 9.32 10.49C9.37 10.54 9.47 10.57 9.43 10.68C9.14 10.7 8.85001 10.66 8.56001 10.74C8.47001 10.64 8.35 10.68 8.25 10.68C5.55 10.68 2.85 10.68 0.140003 10.68L0.130005 10.69ZM3.68 6.68999C3.68 6.26999 3.68 5.84999 3.68 5.42999C3.68 4.96999 3.34 4.62999 2.89 4.61999C2.44 4.61999 2.09 4.95999 2.09 5.43999C2.09 6.25999 2.09 7.07999 2.09 7.89999C2.09 8.37999 2.43 8.71999 2.89 8.71999C3.33 8.71999 3.67 8.36999 3.68 7.91999C3.68 7.50999 3.68 7.09999 3.68 6.68999Z"
          fill="#EE2F66"/>
    <path d="M12.58 6.75999C12.49 6.66999 12.53 6.54999 12.53 6.44999C12.53 4.95999 12.51 3.46999 12.53 1.97999C12.54 1.39999 12.32 1.02999 11.81 0.799988H13.23C13.83 1.06999 13.95 1.56999 13.94 2.16999C13.92 3.29999 13.94 4.42999 13.93 5.54999C13.58 5.62999 13.5 5.71999 13.5 6.05999C13.5 6.32999 13.5 6.59999 13.5 6.90999C12.95 6.45999 12.89 6.44999 12.57 6.74999L12.58 6.75999Z"
          fill="#ECB3C2"/>
    <path d="M11.1 26.82C11.02 26.75 10.92 26.76 10.82 26.76C8.2 26.76 5.59 26.76 2.97001 26.76C2.02001 26.76 1.08 26.76 0.130005 26.76C0.130005 26.72 0.130005 26.69 0.130005 26.65C0.130005 21.62 0.130005 16.59 0.130005 11.56C2.95 11.56 5.78 11.56 8.6 11.56H9.48C9.39 11.66 9.34 11.71 9.29 11.77C9.1 11.99 9.09 12.26 9.27 12.43C9.45 12.59 9.69001 12.57 9.90001 12.36C10.11 12.15 10.33 11.94 10.54 11.72C10.65 11.61 10.76 11.55 10.92 11.56C11.46 11.56 11.99 11.56 12.53 11.56C12.53 11.67 12.53 11.78 12.53 11.89C12.21 12.22 11.89 12.54 11.58 12.87C11.47 12.99 11.34 13.05 11.17 13.04C10.85 13.03 10.53 13.04 10.21 13.04C9.97 13.04 9.8 13.21 9.79 13.42C9.78 13.64 9.85 13.79 10.07 13.86C10.2 13.9 10.42 13.79 10.46 13.93C10.49 14.06 10.27 14.15 10.17 14.27C10.15 14.3 10.12 14.32 10.09 14.35C9.87 14.58 9.85 14.83 10.05 15.02C10.21 15.18 10.48 15.15 10.68 14.96C10.82 14.82 10.95 14.68 11.08 14.54C11.17 14.62 11.14 14.68 11.14 14.73C11.14 15.04 11.33 15.28 11.57 15.29C11.8 15.3 12.01 15.05 12.02 14.73C12.02 14.55 12.05 14.36 12.02 14.18C11.94 13.71 12.15 13.4 12.52 13.15C12.52 13.77 12.52 14.38 12.52 15C12.52 15.1 12.48 15.2 12.57 15.28C12.5 15.43 12.5 15.57 12.57 15.72C12.47 15.82 12.52 15.95 12.52 16.06C12.52 19.63 12.52 23.19 12.52 26.76C12.2 26.76 11.88 26.76 11.56 26.76C11.4 26.76 11.23 26.7 11.09 26.82H11.1ZM3.68 15.09C3.68 14.65 3.68 14.22 3.68 13.78C3.68 13.35 3.31001 13 2.90001 12.99C2.47001 12.99 2.1 13.34 2.1 13.78C2.1 14.63 2.1 15.47 2.1 16.32C2.1 16.51 2.14 16.68 2.29 16.81C2.41 16.91 2.44 17.04 2.44 17.2C2.44 17.68 2.40001 18.16 2.47001 18.64C2.52001 18.95 2.68 19.13 2.92 19.11C3.17 19.09 3.30001 18.9 3.31001 18.58C3.31001 18.13 3.31001 17.69 3.31001 17.24C3.31001 17.09 3.34 16.96 3.46 16.85C3.63 16.7 3.7 16.5 3.7 16.26C3.7 15.87 3.7 15.48 3.7 15.09H3.68Z"
          fill="#EE2F66"/>
    <path d="M12.52 13.15C12.15 13.4 11.95 13.71 12.02 14.18C12.05 14.36 12.02 14.54 12.02 14.73C12.02 15.04 11.8 15.3 11.57 15.29C11.33 15.28 11.15 15.04 11.14 14.73C11.14 14.68 11.16 14.62 11.08 14.54C10.95 14.68 10.82 14.83 10.68 14.96C10.48 15.16 10.2 15.18 10.05 15.02C9.85 14.83 9.87 14.58 10.09 14.35C10.12 14.32 10.14 14.3 10.17 14.27C10.27 14.15 10.48 14.06 10.46 13.93C10.43 13.78 10.21 13.89 10.07 13.86C9.85 13.8 9.77 13.64 9.79 13.42C9.8 13.21 9.97 13.05 10.21 13.04C10.53 13.04 10.85 13.03 11.17 13.04C11.34 13.04 11.46 12.99 11.58 12.87C11.89 12.54 12.21 12.22 12.53 11.89C12.65 11.81 12.74 11.71 12.83 11.59C12.72 11.53 12.62 11.57 12.53 11.56C11.99 11.56 11.46 11.56 10.92 11.56C10.76 11.56 10.65 11.61 10.54 11.72C10.33 11.94 10.12 12.15 9.9 12.36C9.69 12.56 9.45 12.59 9.27 12.43C9.09 12.27 9.1 11.99 9.29 11.77C9.34 11.72 9.39 11.66 9.48 11.56C9.15 11.56 8.88 11.56 8.6 11.56C8.3 11.2 8.29 11.06 8.54 10.74C8.82 10.65 9.12 10.69 9.41 10.68C9.44 10.57 9.34 10.54 9.3 10.49C9.12 10.29 9.09 10.04 9.24 9.86C9.37 9.71 9.7 9.71 9.88 9.88C10.11 10.09 10.32 10.31 10.54 10.53C10.65 10.65 10.76 10.69 10.92 10.69C11.46 10.69 11.99 10.69 12.53 10.69C12.62 10.69 12.72 10.71 12.83 10.66C12.74 10.54 12.65 10.44 12.53 10.36C12.18 10 11.83 9.64 11.48 9.29C11.41 9.22 11.32 9.22 11.23 9.22C10.89 9.22 10.56 9.22 10.22 9.22C9.97 9.22 9.8 9.05 9.8 8.82C9.8 8.57 9.96 8.4 10.22 8.4C10.32 8.4 10.41 8.4 10.55 8.34C10.39 8.19 10.22 8.04 10.06 7.88C9.85 7.67 9.85 7.51 10.03 7.31C10.22 7.1 10.45 7.07999 10.65 7.27999C10.8 7.41999 10.93 7.59 11.07 7.75C11.18 7.65 11.15 7.57 11.15 7.5C11.16 7.2 11.31 7.02999 11.56 7.02999C11.84 7.02999 12 7.17 12.02 7.48C12.03 7.68 12.05 7.88 12.02 8.08C11.94 8.55 12.15 8.86 12.52 9.11C12.85 9.41 13.18 9.72 13.5 10.02C13.5 9.45 13.5 8.86 13.5 8.27C13.5 8.14 13.42 8.07 13.35 8C13.09 7.73 12.83 7.47 12.57 7.2C12.5 7.05 12.49 6.90999 12.57 6.75999C12.88 6.45999 12.95 6.46999 13.5 6.91999C13.5 6.60999 13.5 6.34 13.5 6.07C13.5 5.73 13.58 5.64 13.93 5.56C14.21 5.61 14.33 5.78 14.32 6.06C14.32 6.33 14.32 6.6 14.32 6.88C14.44 6.88 14.48 6.78 14.55 6.73C14.79 6.51 14.95 6.5 15.16 6.7C15.36 6.89 15.36 7.1 15.16 7.32C14.94 7.55 14.72 7.78 14.48 8C14.37 8.11 14.32 8.22 14.32 8.38C14.32 8.93 14.32 9.49 14.32 10.04C14.42 10.07 14.45 9.97999 14.5 9.93999C14.65 9.79999 14.78 9.62 14.95 9.5C15.62 9 15.95 8.36999 15.8 7.50999C15.75 7.24999 15.93 7.05999 16.14 7.02999C16.41 6.99999 16.54 7.09999 16.62 7.41999C16.64 7.50999 16.66 7.61 16.7 7.75C16.91 7.54 17.09 7.34999 17.27 7.16999C17.45 6.98999 17.72 6.98 17.88 7.13C18.08 7.32 18.09 7.54 17.88 7.75C17.68 7.95 17.47 8.13 17.27 8.32C17.28 8.35 17.3 8.37 17.31 8.4C17.42 8.4 17.54 8.4 17.65 8.4C17.88 8.42 18.04 8.6 18.03 8.83C18.01 9.03 17.9 9.17 17.68 9.22C17.33 9.3 16.97 9.26999 16.62 9.25999C16.44 9.25999 16.31 9.30999 16.19 9.43999C15.81 9.82999 15.42 10.22 15.04 10.6C15.03 10.61 15.04 10.63 15.02 10.68C15.63 10.68 16.24 10.68 16.84 10.68C16.93 10.68 16.99 10.61 17.04 10.56C17.25 10.35 17.45 10.15 17.66 9.93999C17.9 9.69999 18.15 9.67 18.35 9.87C18.55 10.07 18.53 10.26 18.28 10.53C18.25 10.56 18.22 10.6 18.17 10.66C18.44 10.71 18.69 10.68 18.93 10.69C19.1 10.69 19.26 10.71 19.37 10.86C19.48 11 19.5 11.16 19.42 11.32C19.34 11.49 19.21 11.56 19.03 11.56C18.76 11.56 18.48 11.56 18.21 11.56C18.19 11.68 18.3 11.72 18.35 11.78C18.52 11.98 18.53 12.25 18.38 12.4C18.18 12.59 17.97 12.59 17.75 12.38C17.75 12.38 17.74 12.37 17.73 12.36C17.25 11.63 16.56 11.43 15.73 11.55C15.51 11.58 15.28 11.55 15.05 11.55C15.01 11.65 15.1 11.68 15.14 11.73C15.52 12.11 15.9 12.49 16.28 12.87C16.39 12.98 16.51 13.03 16.67 13.03C16.97 13.02 17.27 13.03 17.57 13.03C17.86 13.03 18.05 13.2 18.05 13.44C18.05 13.68 17.86 13.84 17.57 13.85C17.49 13.85 17.41 13.85 17.29 13.91C17.5 14.11 17.71 14.3 17.91 14.51C18.17 14.78 18.07 15.12 17.72 15.24C17.54 15.3 17.42 15.22 17.31 15.1C17.12 14.91 16.93 14.71 16.72 14.49C16.68 14.64 16.66 14.75 16.63 14.86C16.56 15.13 16.43 15.23 16.16 15.2C15.92 15.17 15.82 15 15.81 14.78C15.8 14.45 15.81 14.12 15.81 13.8C15.81 13.7 15.82 13.6 15.74 13.52C15.29 13.07 14.84 12.62 14.34 12.12C14.34 12.55 14.38 12.92 14.34 13.28C14.24 14.01 14.46 14.59 15.06 15.02C15.13 15.07 15.18 15.13 15.23 15.2C15.37 15.39 15.36 15.65 15.2 15.8C15.02 15.96 14.81 15.96 14.62 15.77C14.55 15.7 14.5 15.61 14.45 15.52L14.35 15.57C14.35 15.77 14.35 15.97 14.35 16.18C14.35 16.46 14.24 16.63 13.96 16.68C13.62 16.61 13.53 16.51 13.53 16.18C13.53 15.98 13.53 15.78 13.53 15.55C12.95 16 12.88 16.01 12.6 15.7C12.53 15.55 12.53 15.41 12.6 15.26C12.65 15.21 12.69 15.14 12.74 15.1C13.42 14.63 13.65 13.98 13.53 13.18C13.48 12.86 13.53 12.52 13.53 12.23C13.2 12.53 12.87 12.83 12.55 13.13L12.52 13.15Z"
          fill="#FFC8DA"/>
    <path d="M12.58 15.72C12.86 16.03 12.93 16.02 13.51 15.57C13.51 15.8 13.51 16 13.51 16.2C13.51 16.54 13.6 16.63 13.94 16.7C13.94 19.99 13.94 23.28 13.94 26.57C13.94 26.63 13.93 26.7 13.92 26.76C13.45 26.76 12.99 26.76 12.52 26.75C12.52 23.18 12.52 19.62 12.52 16.05C12.52 15.94 12.47 15.81 12.57 15.71L12.58 15.72Z"
          fill="#ECB3C2"/>
    <path d="M8.54 10.75C8.28 11.07 8.29 11.2 8.6 11.57C5.78 11.57 2.95 11.57 0.130005 11.57C0.130005 11.28 0.130005 10.99 0.130005 10.7C2.83 10.7 5.53001 10.7 8.24001 10.7C8.34001 10.7 8.46 10.66 8.55 10.76L8.54 10.75Z"
          fill="#ECB3C2"/>
    <path d="M12.53 26.76C13 26.76 13.46 26.76 13.93 26.77C13.95 27.25 13.99 27.73 13.91 28.21C13.85 28.59 13.61 28.78 13.23 28.78C12.94 28.78 12.65 28.78 12.36 28.78C12.07 28.79 11.85 28.65 11.74 28.41C11.51 27.89 11.31 27.35 11.1 26.82C11.25 26.7 11.42 26.77 11.57 26.76C11.89 26.75 12.21 26.76 12.53 26.76Z"
          fill="#FFC8DA"/>
    <path d="M0.130005 26.76C1.08 26.76 2.02001 26.76 2.97001 26.76C2.75001 27.31 2.54001 27.85 2.31001 28.4C2.20001 28.67 1.97 28.79 1.68 28.79C1.39 28.79 1.10001 28.79 0.810005 28.79C0.410005 28.79 0.140005 28.53 0.130005 28.13C0.130005 27.68 0.130005 27.22 0.130005 26.77V26.76Z"
          fill="#FFC8DA"/>
    <path d="M3.68 6.68999C3.68 7.09999 3.68 7.50999 3.68 7.91999C3.68 8.37999 3.32 8.72 2.89 8.72C2.44 8.72 2.1 8.37 2.09 7.9C2.09 7.08 2.09 6.25999 2.09 5.43999C2.09 4.96999 2.44 4.62 2.89 4.62C3.33 4.62 3.67 4.96 3.68 5.43C3.68 5.85 3.68 6.26999 3.68 6.68999Z"
          fill="#ECB3C2"/>
    <path d="M12.58 7.20001C12.84 7.47001 13.1 7.73001 13.36 8.00001C13.44 8.08001 13.51 8.15001 13.51 8.27001C13.51 8.86001 13.51 9.45001 13.51 10.02C13.18 9.72001 12.85 9.41001 12.53 9.11001C12.53 8.57001 12.53 8.02001 12.53 7.48001C12.53 7.38001 12.49 7.28001 12.58 7.20001Z"
          fill="#ECB3C2"/>
    <path d="M12.53 10.37C12.65 10.45 12.74 10.55 12.83 10.67C12.72 10.73 12.62 10.69 12.53 10.7C12.53 10.59 12.53 10.48 12.53 10.37Z" fill="#ECB3C2"/>
    <path d="M3.68 15.09C3.68 15.48 3.68 15.87 3.68 16.26C3.68 16.49 3.61 16.69 3.44 16.85C3.32 16.96 3.29 17.08 3.29 17.24C3.29 17.69 3.29 18.13 3.29 18.58C3.29 18.9 3.15 19.09 2.9 19.11C2.66 19.13 2.5 18.96 2.45 18.64C2.38 18.16 2.43 17.68 2.42 17.2C2.42 17.05 2.39 16.92 2.27 16.81C2.12 16.68 2.08 16.51 2.08 16.32C2.08 15.47 2.08 14.63 2.08 13.78C2.08 13.33 2.45 12.98 2.88 12.99C3.3 12.99 3.66 13.35 3.66 13.78C3.66 14.22 3.66 14.65 3.66 15.09H3.68Z"
          fill="#ECB3C2"/>
    <path d="M12.52 13.15C12.85 12.85 13.17 12.55 13.5 12.25C13.5 12.54 13.46 12.88 13.5 13.2C13.61 14.01 13.39 14.65 12.71 15.12C12.65 15.16 12.61 15.23 12.57 15.28C12.48 15.2 12.52 15.09 12.52 15C12.52 14.38 12.52 13.77 12.52 13.15Z"
          fill="#ECB3C2"/>
    <path d="M12.53 11.57C12.62 11.57 12.72 11.55 12.83 11.6C12.74 11.72 12.65 11.82 12.53 11.9C12.53 11.79 12.53 11.68 12.53 11.57Z" fill="#ECB3C2"/>
</svg>
