<svg width="26" height="27" viewBox="0 0 26 27" fill="none" xmlns="http://www.w3.org/2000/svg">
<path d="M21.01 25.27C21.06 25.64 21.02 26.02 21.03 26.4C21.03 26.54 20.94 26.64 20.84 26.74H4.85999C4.70999 26.61 4.66998 26.44 4.66998 26.25C4.66998 25.68 4.66998 25.11 4.66998 24.53C4.66998 23.98 4.93999 23.71 5.48999 23.71C5.88999 23.71 6.27999 23.71 6.67999 23.71C6.91999 23.71 7.14998 23.71 7.38998 23.71C7.60998 23.71 7.82998 23.71 8.04998 23.71C8.27998 23.71 8.51998 23.72 8.74998 23.73C8.74998 24.11 8.74998 24.49 8.74998 24.87C8.74998 25.14 8.90999 25.28 9.17999 25.28C10.07 25.28 10.97 25.28 11.86 25.28C14.91 25.28 17.96 25.28 21.01 25.28V25.27Z" fill="#EE2F66"/>
<path d="M6.69 3.76C6.69 3.11 6.69 2.47 6.69 1.82C6.69 1.25 7.11 0.84 7.68 0.84C8.38 0.84 9.08 0.84 9.77 0.84C9.72 1 9.70001 1.17 9.74001 1.33C9.87001 1.79 10.16 1.99 10.73 1.99C13.49 1.99 16.25 1.99 19.01 1.99C19.01 2.58 19.01 3.17 19.01 3.75C18.79 3.75 18.58 3.77 18.36 3.78C18.12 3.78 17.88 3.78 17.64 3.78C16.16 3.78 14.68 3.78 13.21 3.78C12.95 3.76 12.69 3.76 12.44 3.78C10.98 3.78 9.52001 3.78 8.06001 3.78C7.84001 3.78 7.62001 3.78 7.40001 3.78C7.17001 3.78 6.93 3.76 6.7 3.76H6.69Z" fill="#EE2F66"/>
<path d="M0.659997 10.24C0.429997 9.91 0.439996 9.54 0.729996 9.24C1.71 8.24 2.7 7.26 3.69 6.27C3.83 6.13 4.03 6.09 4.23 6.09C5.05 6.09 5.86 6.09 6.68 6.09C6.91 6.09 7.14 6.09 7.38 6.09C7.6 6.09 7.82 6.09 8.04 6.1C9.51 6.1 10.98 6.1 12.44 6.1C12.69 6.1 12.95 6.1 13.2 6.1C14.69 6.1 16.17 6.1 17.66 6.1C17.89 6.1 18.12 6.1 18.36 6.09C18.58 6.09 18.8 6.09 19.02 6.1C19.79 6.1 20.55 6.1 21.32 6.1C21.6 6.1 21.82 6.18 22.02 6.38C22.94 7.31 23.88 8.24 24.8 9.17C25.15 9.52 25.2 9.89 24.94 10.25C24.87 10.19 24.8 10.13 24.73 10.07C23.83 9.17 22.93 8.27 22.03 7.37C21.82 7.16 21.59 7.06 21.29 7.06C15.64 7.06 9.99 7.06 4.34 7.06C4.02 7.06 3.77 7.17 3.55 7.39C2.66 8.28 1.76 9.18 0.869998 10.07C0.799998 10.13 0.729997 10.19 0.659997 10.25V10.24Z" fill="#ECB3C2"/>
<path d="M0.660004 10.24C0.730004 10.18 0.800005 10.12 0.870005 10.06C1.76 9.17 2.66 8.28 3.55 7.38C3.77 7.16 4.02 7.05 4.34 7.05C9.99 7.05 15.64 7.05 21.29 7.05C21.59 7.05 21.83 7.15 22.03 7.36C22.93 8.26 23.83 9.16 24.73 10.06C24.8 10.12 24.87 10.18 24.94 10.24C24.74 10.67 24.1 10.73 23.72 10.36C23.03 9.68 22.32 9.02 21.67 8.3C21.26 7.85 20.97 7.72 20.23 7.7C19.68 7.71 9.51 7.71 8.05 7.71C7.83 7.71 7.61 7.71 7.39 7.71C7.16 7.71 6.92 7.71 6.69 7.71C6.05 7.71 5.41 7.71 4.77 7.71C4.6 7.71 4.49 7.76 4.37 7.88C3.55 8.71 2.72 9.54 1.89 10.36C1.59 10.66 0.970004 10.65 0.670004 10.24H0.660004Z" fill="#EE2F66"/>
<path d="M21.01 25.27C17.96 25.27 14.91 25.27 11.86 25.27C10.97 25.27 10.07 25.27 9.18 25.27C8.91 25.27 8.76 25.13 8.75 24.86C8.75 24.48 8.75 24.1 8.75 23.72C9.15 23.72 9.56 23.71 9.96 23.7C11.85 23.7 13.74 23.7 15.63 23.7C16.3 23.72 16.98 23.72 17.65 23.7C17.89 23.7 18.12 23.7 18.36 23.7C18.58 23.7 18.8 23.7 19.02 23.7C19.43 23.7 19.84 23.7 20.25 23.71C20.75 23.71 21.01 23.97 21.02 24.46C21.02 24.73 21.02 25 21.02 25.26L21.01 25.27Z" fill="#ECB3C2"/>
<path d="M5.36 19.04C5.36 18.69 5.36 18.33 5.36 17.98C5.36 17.25 5.71999 16.9 6.43999 16.89C6.51999 16.89 6.58999 16.89 6.66999 16.88C6.89999 16.88 7.14 16.88 7.37 16.88C7.59 16.88 7.80999 16.88 8.02999 16.88C8.21999 16.88 8.4 16.89 8.59 16.9C8.59 17.12 8.57 17.34 8.59 17.56C8.65 17.99 9.01 18.24 9.56 18.24C13.14 18.24 16.72 18.24 20.3 18.24C20.3 18.51 20.3 18.78 20.3 19.05C15.31 19.05 10.32 19.05 5.34 19.05L5.36 19.04Z" fill="#EE2F66"/>
<path d="M20.32 18.23C16.74 18.23 13.16 18.23 9.58001 18.23C9.03001 18.23 8.66001 17.98 8.61001 17.55C8.58001 17.33 8.61001 17.11 8.61001 16.89C9.13001 16.89 9.65001 16.87 10.18 16.86C10.82 16.86 11.46 16.86 12.11 16.86C13.22 16.86 14.33 16.86 15.45 16.86H17.67C17.91 16.86 18.14 16.86 18.38 16.86H19.04C19.2 16.89 19.37 16.86 19.54 16.9C20.06 17.01 20.35 17.34 20.35 17.88C20.35 18 20.35 18.11 20.34 18.23H20.32Z" fill="#ECB3C2"/>
<path d="M19.01 2C16.25 2 13.49 2 10.73 2C10.16 2 9.86999 1.8 9.73999 1.34C9.68999 1.17 9.71999 1.01 9.76999 0.85C10.69 0.85 11.6 0.85 12.52 0.85C14.3 0.85 16.09 0.85 17.87 0.85C18.66 0.85 19.03 1.23 19.01 2.01V2Z" fill="#ECB3C2"/>
<path d="M20.74 19.44C20.83 19.77 20.67 20.07 20.34 20.15C19.99 20.23 19.64 20.17 19.29 20.19C19.2 20.19 19.11 20.19 19.01 20.2C18.79 20.2 18.57 20.2 18.35 20.2C18.11 20.2 17.88 20.2 17.64 20.2C16.97 20.2 16.29 20.2 15.62 20.2C14.44 20.2 13.26 20.2 12.08 20.2C11.37 20.2 10.66 20.2 9.95999 20.2C9.31999 20.2 8.67999 20.2 8.03999 20.2C7.81999 20.2 7.59999 20.2 7.37999 20.2C7.14999 20.2 6.90999 20.2 6.67999 20.2C6.28999 20.2 5.90999 20.2 5.51999 20.19C5.13999 20.19 4.92999 20.04 4.83999 19.75C4.77999 19.57 4.79999 19.4 4.94999 19.27C5.07999 19.5 5.27999 19.6 5.54999 19.6C10.26 19.6 14.97 19.6 19.68 19.6C20.04 19.6 20.4 19.64 20.74 19.45V19.44Z" fill="#EE2F66"/>
<path d="M20.74 19.44C20.41 19.64 20.04 19.59 19.68 19.59C14.97 19.59 10.26 19.59 5.55001 19.59C5.27001 19.59 5.08001 19.5 4.95001 19.26C5.04001 19.09 5.19001 19.05 5.36001 19.03C10.35 19.03 15.34 19.03 20.32 19.03C20.51 19.11 20.68 19.21 20.74 19.43V19.44Z" fill="#ECB3C2"/>
<path d="M7.39 16.87C7.16 16.87 6.92 16.87 6.69 16.87C6.69 13.82 6.69 10.76 6.69 7.71C6.92 7.71 7.16 7.71 7.39 7.71C7.39 10.76 7.39 13.81 7.39 16.86V16.87Z" fill="#EE2F66"/>
<path d="M19.02 16.86C18.8 16.86 18.58 16.86 18.36 16.86C18.36 13.81 18.36 10.76 18.36 7.71C18.58 7.71 18.8 7.71 19.02 7.71C19.02 10.76 19.02 13.81 19.02 16.86Z" fill="#ECB3C2"/>
<path d="M6.67999 20.21C6.90999 20.21 7.14999 20.21 7.38999 20.21C7.38999 21.37 7.38999 22.53 7.38999 23.69C7.14999 23.69 6.91999 23.69 6.67999 23.69C6.67999 22.53 6.67999 21.37 6.67999 20.21Z" fill="#EE2F66"/>
<path d="M18.36 20.21C18.58 20.21 18.8 20.21 19.02 20.21C19.02 21.37 19.02 22.54 19.02 23.7C18.8 23.7 18.58 23.7 18.36 23.7C18.36 22.54 18.36 21.37 18.36 20.21Z" fill="#ECB3C2"/>
<path d="M7.37999 6.08C7.14999 6.08 6.91999 6.08 6.67999 6.08C6.67999 5.3 6.67999 4.53 6.67999 3.75C6.90999 3.75 7.14999 3.77 7.37999 3.77C7.37999 4.53 7.37999 5.3 7.37999 6.06V6.08Z" fill="#EE2F66"/>
<path d="M19.01 6.09C18.79 6.09 18.57 6.09 18.35 6.08C18.35 5.32 18.35 4.55 18.35 3.79C18.57 3.79 18.78 3.77 19 3.76C19 4.54 19 5.31 19 6.09H19.01Z" fill="#ECB3C2"/>
<path d="M8.04 20.21C8.04 21.37 8.04 22.53 8.04 23.69C7.82 23.69 7.6 23.69 7.38 23.69C7.38 22.53 7.38 21.37 7.38 20.21C7.6 20.21 7.82 20.21 8.04 20.21Z" fill="#ECB3C2"/>
<path d="M12.45 6.09C12.45 5.32 12.45 4.55 12.45 3.79C12.71 3.77 12.97 3.77 13.22 3.79C13.22 4.56 13.22 5.33 13.22 6.09C12.97 6.09 12.71 6.09 12.46 6.09H12.45Z" fill="#EE2F66"/>
<path d="M17.66 6.09C17.66 5.32 17.65 4.55 17.64 3.78C17.88 3.78 18.12 3.78 18.36 3.78C18.36 4.54 18.36 5.31 18.36 6.07C18.13 6.07 17.9 6.07 17.66 6.08V6.09Z" fill="#EE2F66"/>
<path d="M8.05 3.79C8.05 4.56 8.05 5.33 8.04 6.1C7.82 6.1 7.6 6.1 7.38 6.09C7.38 5.33 7.38 4.56 7.38 3.8C7.6 3.8 7.82 3.8 8.04 3.8L8.05 3.79Z" fill="#ECB3C2"/>
<path d="M17.65 16.86C17.65 13.81 17.65 10.76 17.65 7.71C17.88 7.71 18.12 7.71 18.35 7.71C18.35 10.76 18.35 13.81 18.35 16.86C18.11 16.86 17.88 16.86 17.64 16.86H17.65Z" fill="#EE2F66"/>
<path d="M8.04 7.71C8.04 10.76 8.04 13.82 8.04 16.87C7.82 16.87 7.6 16.87 7.38 16.87C7.38 13.82 7.38 10.77 7.38 7.72C7.6 7.72 7.82 7.72 8.04 7.72V7.71Z" fill="#ECB3C2"/>
<path d="M12.44 12.66C12.44 11.01 12.44 9.36 12.44 7.71C12.69 7.71 12.95 7.71 13.2 7.71C13.2 9.36 13.2 11.02 13.2 12.67C12.95 12.6 12.7 12.59 12.44 12.66Z" fill="#EE2F66"/>
<path d="M9.96999 23.69C9.96999 22.53 9.96999 21.36 9.96999 20.2C10.68 20.2 11.39 20.2 12.09 20.2C12.09 20.27 12.09 20.33 12.09 20.4C12.03 21.34 12.86 22.24 13.86 22.18C14.45 22.14 15.04 22.18 15.63 22.18C15.63 22.69 15.63 23.19 15.63 23.7C13.74 23.7 11.85 23.7 9.95999 23.7L9.96999 23.69Z" fill="#EE2F66"/>
<path d="M17.65 23.69C17.65 22.53 17.65 21.36 17.65 20.2C17.89 20.2 18.12 20.2 18.36 20.2C18.36 21.36 18.36 22.53 18.36 23.69C18.12 23.69 17.89 23.69 17.65 23.69Z" fill="#EE2F66"/>
<path d="M13.63 14.29C13.9 14.29 14.17 14.29 14.43 14.29C14.89 14.31 15.18 14.58 15.23 15.03C15.3 15.64 15.36 16.25 15.43 16.85C14.32 16.85 13.21 16.85 12.09 16.85C12.09 16.01 12.09 15.16 12.09 14.32C12.14 14.26 12.21 14.27 12.28 14.27C12.73 14.27 13.18 14.27 13.63 14.27V14.29Z" fill="#ECB3C2"/>
<path d="M12.09 14.34C12.09 15.18 12.09 16.03 12.09 16.87C11.45 16.87 10.81 16.87 10.16 16.87C10.23 16.24 10.28 15.6 10.37 14.97C10.42 14.57 10.73 14.32 11.13 14.3C11.4 14.3 11.67 14.3 11.94 14.3C11.98 14.36 12.04 14.34 12.09 14.35V14.34Z" fill="#EE2F66"/>
<path d="M15.63 20.21C15.63 20.87 15.63 21.52 15.63 22.18C13.43 22.34 12.1 22.27 12.1 20.41C12.1 20.34 12.1 20.28 12.1 20.21C13.28 20.21 14.46 20.21 15.64 20.21H15.63Z" fill="#ECB3C2"/>
<path d="M12.09 14.34C12.04 14.34 11.98 14.35 11.94 14.29C11.87 14.06 11.74 13.85 11.76 13.6C11.8 13.15 12.04 12.85 12.44 12.66C12.69 12.59 12.95 12.61 13.2 12.67C13.88 13.11 14 13.59 13.63 14.29C13.18 14.29 12.73 14.29 12.28 14.29C12.21 14.29 12.14 14.28 12.09 14.34ZM12.81 13.9C12.96 13.88 13.06 13.8 13.06 13.64C13.06 13.48 12.95 13.39 12.8 13.4C12.65 13.4 12.55 13.5 12.56 13.66C12.56 13.82 12.67 13.89 12.82 13.9H12.81Z" fill="#EE2F66"/>
</svg>
