<svg width="42" height="40" viewBox="0 0 42 40" fill="none" xmlns="http://www.w3.org/2000/svg">
<path d="M30.64 6.61997C29.88 6.38997 29.11 6.16997 28.35 5.93997C25.29 5.04997 22.24 4.16997 19.18 3.25997C18.41 3.02997 17.62 2.87997 16.93 2.39997C14.73 0.88997 12.28 0.319968 9.65001 0.729968C7.26001 1.09997 5.21001 2.16997 3.58001 3.98997C1.40001 6.40997 0.510006 9.25997 1.01001 12.46C1.55001 15.9 3.44001 18.45 6.53001 20.09C7.22001 20.46 7.98001 20.65 8.70001 20.95C8.70001 24.2 8.70001 27.46 8.70001 30.71C8.70001 31.95 9.27001 32.87 10.41 33.37C10.76 33.52 10.84 33.7 10.84 34.05C10.82 35.53 10.83 37.01 10.84 38.49C10.84 39.13 11.36 39.49 11.87 39.22C12.19 39.06 12.27 38.77 12.26 38.44C12.26 36.92 12.26 35.39 12.26 33.87C12.26 33.66 12.29 33.53 12.52 33.44C13.79 32.93 14.39 31.97 14.39 30.61C14.39 27.33 14.39 24.04 14.39 20.76C14.46 20.65 14.58 20.62 14.69 20.58C15.56 20.27 16.36 19.84 17.12 19.32C17.29 19.2 17.46 19.06 17.65 19.01C19.4 18.49 21.16 17.99 22.91 17.47C25.5 16.71 28.08 15.95 30.67 15.2C31.94 15.62 33.22 16.04 34.49 16.46C35.32 16.74 35.69 16.46 35.69 15.58C35.69 12.46 35.69 9.33997 35.69 6.21997C35.69 5.33997 35.32 5.06997 34.49 5.33997C33.22 5.75997 31.94 6.17997 30.67 6.59997L30.64 6.61997Z" fill="#FDFDFD"/>
<path d="M39.9 7.71997C40.64 7.71997 41.21 7.47997 41.65 7.01997C42 6.65997 42.03 6.25997 41.75 5.96997C41.48 5.68997 41.01 5.69997 40.67 5.97997C40.1 6.45997 39.76 6.40997 39.27 5.80997C38.79 5.20997 38.17 4.87997 37.4 4.89997C37.01 4.90997 36.78 5.15997 36.74 5.54997C36.7 5.92997 36.96 6.27997 37.34 6.28997C37.79 6.29997 38.05 6.55997 38.29 6.85997C38.74 7.42997 39.35 7.65997 39.91 7.72997L39.9 7.71997Z" fill="#FDFDFD"/>
<path d="M39.89 12.68C40.63 12.68 41.2 12.44 41.64 11.98C41.99 11.62 42.03 11.22 41.75 10.93C41.48 10.65 41 10.65 40.67 10.93C40.09 11.41 39.75 11.37 39.27 10.77C38.79 10.17 38.17 9.82996 37.4 9.84996C37.01 9.84996 36.73 10.16 36.73 10.54C36.73 10.93 36.94 11.23 37.32 11.25C37.78 11.27 38.05 11.54 38.3 11.85C38.75 12.41 39.35 12.62 39.89 12.69V12.68Z" fill="#FDFDFD"/>
<path d="M40.03 17.67C40.68 17.63 41.23 17.42 41.66 16.95C41.98 16.6 42.03 16.22 41.77 15.93C41.52 15.64 41.02 15.63 40.69 15.9C40.07 16.4 39.76 16.36 39.26 15.74C38.79 15.16 38.18 14.83 37.42 14.83C37.02 14.83 36.75 15.12 36.73 15.49C36.71 15.87 36.96 16.22 37.34 16.22C37.79 16.23 38.04 16.5 38.28 16.79C38.74 17.36 39.34 17.59 40.02 17.66L40.03 17.67Z" fill="#FDFDFD"/>
<path opacity="0.38" d="M30.64 15.2C28.05 15.96 25.47 16.72 22.88 17.47C21.13 17.98 15.53 20.27 14.66 20.58C14.55 20.62 14.43 20.65 14.36 20.76C14.21 20.72 14.07 20.79 13.93 20.83C12.84 21.13 11.73 21.26 10.61 21.19C9.97 21.15 9.33 21.03 8.69 20.94C7.97 20.64 7.21 20.45 6.52 20.08C3.43 18.44 1.54 15.89 1 12.45C0.500004 9.25998 1.4 6.40998 3.57 3.97998C5.2 2.15998 7.25 1.07998 9.64 0.719984C12.27 0.319984 25.29 5.03998 28.34 5.92998C29.1 6.14998 29.87 6.37998 30.63 6.60998C30.15 6.74998 29.96 7.05998 29.97 7.56998C29.99 9.78998 29.99 12.02 29.97 14.24C29.97 14.74 30.16 15.05 30.63 15.2H30.64ZM11.22 6.29998C8.67001 6.27998 6.58001 8.33998 6.56001 10.88C6.55001 13.41 8.59 15.5 11.11 15.52C13.67 15.54 15.77 13.5 15.79 10.96C15.81 8.39998 13.76 6.30998 11.22 6.28998V6.29998Z" fill="#EE2F66"/>
<path d="M8.69 20.95C9.33 21.03 9.97 21.15 10.61 21.2C11.73 21.28 12.84 21.14 13.93 20.84C14.07 20.8 14.21 20.73 14.36 20.77C14.36 24.05 14.36 27.34 14.36 30.62C14.36 31.98 13.76 32.94 12.49 33.45C12.26 33.54 12.23 33.67 12.23 33.88C12.23 35.4 12.23 36.93 12.23 38.45C12.23 38.78 12.15 39.07 11.84 39.23C11.33 39.49 10.82 39.13 10.81 38.5C10.81 37.02 10.8 35.54 10.81 34.06C10.81 33.71 10.74 33.53 10.38 33.38C9.24 32.88 8.67 31.96 8.67 30.72C8.67 27.47 8.67 24.21 8.67 20.96L8.69 20.95Z" fill="#EE2F66"/>
<path d="M30.64 15.2C30.16 15.06 29.97 14.75 29.98 14.24C30 12.02 30 9.78999 29.98 7.56999C29.98 7.06999 30.16 6.75999 30.64 6.60999C31.91 6.18999 33.19 5.76999 34.46 5.34999C35.29 5.06999 35.66 5.34999 35.66 6.22999C35.66 9.34999 35.66 12.47 35.66 15.59C35.66 16.47 35.29 16.74 34.46 16.47C33.19 16.05 31.91 15.63 30.64 15.21V15.2Z" fill="#EE2F66"/>
<path opacity="0.38" d="M39.9 7.72C39.34 7.66 38.73 7.42999 38.28 6.84999C38.04 6.54999 37.78 6.29 37.33 6.28C36.95 6.28 36.7 5.91 36.73 5.54C36.77 5.15 37 4.9 37.39 4.89C38.16 4.87 38.78 5.21 39.26 5.8C39.75 6.4 40.09 6.45 40.66 5.97C41 5.69 41.47 5.68 41.74 5.96C42.03 6.25 41.99 6.64999 41.64 7.00999C41.2 7.46999 40.63 7.72 39.89 7.71L39.9 7.72Z" fill="#EE2F66"/>
<path opacity="0.38" d="M39.89 12.68C39.35 12.61 38.74 12.4 38.3 11.84C38.05 11.53 37.79 11.26 37.32 11.24C36.94 11.22 36.73 10.93 36.73 10.53C36.73 10.15 37.01 9.85 37.4 9.84C38.17 9.83 38.79 10.17 39.27 10.76C39.75 11.35 40.09 11.4 40.67 10.92C41.01 10.64 41.49 10.64 41.75 10.92C42.03 11.22 41.99 11.61 41.64 11.97C41.2 12.43 40.63 12.68 39.89 12.67V12.68Z" fill="#EE2F66"/>
<path opacity="0.38" d="M40.03 17.67C39.35 17.6 38.75 17.36 38.29 16.8C38.05 16.5 37.8 16.24 37.35 16.23C36.96 16.23 36.72 15.87 36.74 15.5C36.76 15.12 37.03 14.84 37.43 14.84C38.19 14.84 38.79 15.17 39.27 15.75C39.77 16.37 40.08 16.41 40.7 15.91C41.04 15.64 41.53 15.65 41.78 15.94C42.04 16.24 41.99 16.61 41.67 16.96C41.24 17.43 40.69 17.64 40.04 17.68L40.03 17.67Z" fill="#EE2F66"/>
<path d="M11.22 6.29999C13.76 6.31999 15.81 8.40999 15.79 10.97C15.77 13.51 13.67 15.55 11.11 15.53C8.59 15.51 6.55 13.42 6.56 10.89C6.57 8.34999 8.66 6.28999 11.22 6.30999V6.29999Z" fill="#EE2F66"/>
</svg>
