<svg width="38" height="23" viewBox="0 0 38 23" fill="none" xmlns="http://www.w3.org/2000/svg">
<path d="M3.77999 0.57C4.06999 0.57 4.35999 0.59 4.64999 0.59C15.07 0.59 25.5 0.59 35.92 0.59C36.71 0.59 37.17 0.900001 37.34 1.54C37.37 1.66 37.38 1.79 37.38 1.92C37.38 7.39 37.38 12.87 37.38 18.34C37.38 18.4 37.38 18.47 37.37 18.53C27.87 18.53 18.37 18.53 8.85999 18.53C6.87999 18.53 4.90999 18.53 2.92999 18.53C2.92999 12.98 2.92999 7.43 2.92999 1.88C2.92999 1.39 3.15999 1.04 3.54999 0.77C3.62999 0.71 3.74999 0.7 3.75999 0.57H3.77999ZM22.32 5.13C22.57 4.82 22.9 4.6 23.2 4.35C23.42 4.16 23.53 3.94 23.34 3.69C23.15 3.43 22.91 3.4 22.65 3.61C22.34 3.87 22.02 4.12 21.7 4.38C20.96 3.69 20.06 3.34 19.07 3.33C18.26 3.31 17.49 3.57 16.8 4.01C16.55 3.73 16.29 3.45 16.04 3.16C15.85 2.94 15.64 2.83 15.38 3.02C15.12 3.22 15.12 3.47 15.32 3.72C15.41 3.84 15.52 3.95 15.61 4.07C15.77 4.26 15.96 4.43 16.05 4.68C14.76 6.14 14.76 8.15 15.72 9.52C15.43 9.78 15.13 10.04 14.84 10.3C14.62 10.5 14.57 10.84 14.75 11.01C14.96 11.22 15.19 11.22 15.43 11.01C15.73 10.75 16.04 10.51 16.35 10.27C17.86 11.51 19.49 11.64 21.25 10.65C21.54 10.96 21.81 11.27 22.11 11.56C22.38 11.82 22.79 11.71 22.85 11.37C22.89 11.15 22.81 10.98 22.66 10.81C22.42 10.53 22.19 10.25 21.95 9.97C23.17 8.83 23.35 6.52 22.32 5.13ZM4.23999 14.94C4.02999 15.27 3.68999 15.45 3.40999 15.7C3.15999 15.92 3.05999 16.15 3.25999 16.42C3.47999 16.71 3.74999 16.61 3.98999 16.42C4.06999 16.36 4.12999 16.27 4.21999 16.22C4.45999 16.07 4.60999 15.78 4.92999 15.75C4.97999 15.8 5.02999 15.87 5.07999 15.91C6.58999 16.99 8.14999 17.09 9.74999 16.14C9.97999 16.41 10.21 16.68 10.45 16.95C10.73 17.26 10.97 17.31 11.2 17.12C11.43 16.92 11.4 16.68 11.15 16.35C10.93 16.06 10.6 15.84 10.51 15.47C10.55 15.44 10.6 15.42 10.63 15.38C11.75 13.97 11.87 12.26 10.96 10.71C11 10.53 11.14 10.43 11.27 10.34C11.5 10.16 11.72 9.97 11.92 9.76C12.05 9.62 12.09 9.45 11.98 9.27C11.87 9.1 11.72 9.03 11.53 9.04C11.35 9.04 11.23 9.17 11.11 9.27C10.85 9.48 10.62 9.75 10.31 9.9C8.86999 8.62 7.03999 8.52 5.46999 9.45C5.31999 9.42 5.23999 9.3 5.14999 9.2C4.97999 9 4.81999 8.79 4.63999 8.59C4.45999 8.4 4.24999 8.3 4.00999 8.49C3.76999 8.68 3.72999 8.9 3.92999 9.15C4.01999 9.26 4.11999 9.36 4.18999 9.47C4.33999 9.71 4.63999 9.86 4.65999 10.18C3.51999 11.23 3.24999 13.55 4.26999 14.94H4.23999ZM33.57 10.34C33.83 10.06 34.09 9.79 34.36 9.51C34.57 9.29 34.66 9.06 34.44 8.8C34.25 8.58 33.98 8.6 33.71 8.86C33.43 9.12 33.16 9.39 32.89 9.65C31.31 8.52 29.52 8.54 27.99 9.71C27.71 9.44 27.42 9.17 27.14 8.9C26.92 8.68 26.67 8.63 26.44 8.86C26.21 9.1 26.27 9.33 26.49 9.56C26.77 9.84 27.04 10.12 27.31 10.41C26.21 11.95 26.22 13.77 27.33 15.25C27.16 15.6 26.86 15.84 26.6 16.11C26.38 16.35 26.29 16.58 26.52 16.84C26.71 17.07 26.97 17.04 27.25 16.78C27.53 16.52 27.8 16.25 28.07 15.99C28.96 16.66 29.98 16.9 31.06 16.75C31.74 16.66 32.39 16.41 32.91 15.93C33.27 16.07 33.46 16.4 33.73 16.65C34.06 16.95 34.3 17 34.52 16.77C34.73 16.55 34.69 16.31 34.37 15.98C34.13 15.73 33.89 15.49 33.65 15.24C33.7 15.16 33.74 15.09 33.79 15.01C34.75 13.53 34.67 11.73 33.59 10.34H33.57Z" fill="#F9C5D5"/>
<path d="M2.94 18.53C4.92 18.53 6.89 18.53 8.87 18.53C18.37 18.53 27.87 18.53 37.38 18.53C37.38 19.09 37.4 19.65 37.39 20.21C37.38 20.98 36.83 21.51 36.05 21.51C34.89 21.51 33.74 21.51 32.58 21.51C31.61 21.51 30.63 21.51 29.66 21.51C26.7 21.51 23.74 21.51 20.78 21.51C19.81 21.51 18.83 21.51 17.86 21.52C14.88 21.52 11.9 21.52 8.93 21.52C7.96 21.52 6.98 21.52 6.01 21.52C5.32 21.52 4.63 21.52 3.95 21.51C3.24 21.21 2.89 20.69 2.95 19.9C2.98 19.44 2.95 18.99 2.95 18.53H2.94ZM31.03 20.46C32.1 20.46 33.17 20.46 34.24 20.46C34.56 20.46 34.8 20.37 34.84 20.02C34.87 19.73 34.63 19.55 34.23 19.55C32.1 19.55 29.97 19.55 27.84 19.55C27.44 19.55 27.21 19.72 27.22 20.01C27.22 20.3 27.44 20.46 27.85 20.46C28.91 20.46 29.97 20.46 31.02 20.46H31.03ZM24.96 20.46C25.23 20.46 25.5 20.46 25.76 20.46C26.05 20.46 26.22 20.31 26.22 20.01C26.22 19.71 26.03 19.56 25.76 19.55C25.21 19.53 24.66 19.53 24.12 19.55C23.84 19.55 23.67 19.73 23.68 20.02C23.68 20.32 23.87 20.45 24.15 20.45C24.42 20.45 24.69 20.45 24.95 20.45L24.96 20.46Z" fill="#EE2F66"/>
<path d="M2.93999 18.53C2.93999 18.99 2.96999 19.45 2.93999 19.9C2.87999 20.69 3.22999 21.21 3.93999 21.51C3.23999 21.51 2.53999 21.53 1.83999 21.51C1.14999 21.5 0.649994 20.92 0.649994 20.18C0.649994 16.16 0.649994 12.14 0.649994 8.12C0.649994 6.07 0.649994 4.01 0.649994 1.96C0.649994 1.13 1.15999 0.580002 1.98999 0.560002C2.58999 0.550002 3.19 0.560002 3.79 0.560002C3.78 0.690002 3.65999 0.700002 3.57999 0.760002C3.18999 1.03 2.95999 1.38 2.95999 1.87C2.95999 7.42 2.95999 12.97 2.95999 18.52L2.93999 18.53Z" fill="#EE2F66"/>
<path d="M17.85 21.53C18.82 21.53 19.8 21.53 20.77 21.52C20.76 21.78 20.9 22.01 20.97 22.25C21.06 22.55 20.93 22.71 20.65 22.72C19.75 22.74 18.84 22.74 17.94 22.72C17.64 22.72 17.51 22.53 17.62 22.22C17.7 21.99 17.77 21.76 17.84 21.53H17.85Z" fill="#F9C5D5"/>
<path d="M29.66 21.52C30.63 21.52 31.61 21.52 32.58 21.52C32.66 21.76 32.73 22 32.81 22.24C32.91 22.54 32.78 22.7 32.5 22.71C31.6 22.73 30.69 22.73 29.79 22.71C29.48 22.71 29.37 22.52 29.47 22.21C29.54 21.98 29.6 21.75 29.66 21.52Z" fill="#F9C5D5"/>
<path d="M6 21.53C6.97 21.53 7.95 21.53 8.92 21.53C8.99 21.76 9.06 21.99 9.13 22.22C9.23 22.55 9.13 22.72 8.79 22.73C7.91 22.74 7.04 22.74 6.16 22.73C5.82 22.73 5.71 22.56 5.8 22.22C5.86 21.99 5.93 21.76 6 21.53Z" fill="#F9C5D5"/>
<path d="M27.97 9.73C29.5 8.55 31.29 8.53 32.87 9.67C32.71 9.85 32.54 10.02 32.38 10.2C32.18 10.43 32.14 10.67 32.38 10.9C32.62 11.13 32.83 11.06 33.03 10.85C33.2 10.68 33.38 10.52 33.56 10.36C34.64 11.75 34.72 13.55 33.76 15.03C33.71 15.1 33.67 15.18 33.62 15.26C33.44 15.09 33.27 14.93 33.09 14.76C32.87 14.55 32.61 14.48 32.39 14.72C32.18 14.95 32.21 15.19 32.45 15.42C32.61 15.57 32.83 15.69 32.88 15.94C32.36 16.43 31.71 16.68 31.03 16.76C29.95 16.9 28.93 16.67 28.04 16C28.1 15.76 28.31 15.65 28.47 15.49C28.69 15.27 28.76 15.05 28.54 14.79C28.35 14.56 28.1 14.59 27.81 14.83C27.64 14.98 27.53 15.19 27.3 15.26C26.19 13.79 26.18 11.97 27.28 10.42C27.48 10.6 27.66 10.8 27.88 10.95C28.11 11.11 28.37 11.11 28.56 10.86C28.74 10.63 28.64 10.44 28.45 10.26C28.28 10.09 28.12 9.91 27.96 9.73H27.97ZM32.04 12.84C32.17 12.04 31.33 11.18 30.46 11.19C29.62 11.19 28.81 11.97 28.83 12.79C28.85 13.75 29.66 14.41 30.45 14.43C31.3 14.45 32.15 13.61 32.04 12.84Z" fill="#ECB3C2"/>
<path d="M10.95 10.71C11.86 12.27 11.75 13.97 10.62 15.38C10.59 15.42 10.54 15.44 10.5 15.47C10.21 15.41 10.17 15.11 9.96999 14.95C9.73999 14.77 9.51999 14.69 9.28999 14.91C9.06999 15.12 9.10999 15.36 9.28999 15.59C9.43999 15.77 9.58999 15.97 9.73999 16.15C8.12999 17.09 6.56999 16.99 5.06999 15.92C5.00999 15.88 4.96999 15.81 4.91999 15.76C4.98999 15.5 5.21999 15.4 5.39999 15.25C5.61999 15.06 5.68999 14.83 5.50999 14.58C5.31999 14.32 5.09999 14.36 4.83999 14.5C4.61999 14.62 4.50999 14.89 4.23999 14.94C3.21999 13.55 3.48998 11.23 4.62998 10.18C4.88998 10.25 4.98999 10.48 5.13999 10.66C5.30999 10.86 5.52999 10.96 5.77999 10.79C5.99999 10.63 6.07999 10.41 5.92999 10.16C5.84999 10.03 5.74999 9.91 5.64999 9.8C5.55999 9.7 5.44999 9.6 5.44999 9.45C7.00999 8.51 8.83999 8.62001 10.29 9.90001C10.14 10.09 9.95999 10.25 9.76999 10.39C9.53999 10.56 9.44999 10.78 9.64999 11.04C9.83999 11.29 10.04 11.3 10.3 11.14C10.52 11.01 10.66 10.74 10.95 10.71ZM5.99999 12.82C5.87999 13.66 6.78999 14.44 7.56999 14.43C8.37999 14.42 9.17999 13.77 9.21999 12.81C9.25999 11.98 8.42999 11.18 7.56999 11.19C6.77999 11.19 5.88999 11.95 6.00999 12.82H5.99999Z" fill="#ECB3C2"/>
<path d="M21.24 10.64C19.48 11.63 17.85 11.5 16.34 10.26C16.5 10 16.8 9.9 16.98 9.67C17.14 9.46 17.13 9.27 16.96 9.09C16.78 8.9 16.58 8.84 16.35 9.02C16.14 9.18 15.93 9.35 15.73 9.52C14.77 8.16 14.77 6.14 16.06 4.68C16.34 4.75 16.4 5.04 16.59 5.2C16.81 5.4 17.02 5.46 17.26 5.26C17.53 5.03 17.45 4.78 17.26 4.56C17.1 4.38 16.94 4.2 16.81 4C17.5 3.56 18.27 3.31 19.08 3.32C20.07 3.34 20.97 3.68 21.71 4.37C21.58 4.6 21.32 4.69 21.15 4.88C20.96 5.1 20.87 5.33 21.1 5.54C21.33 5.75 21.58 5.73 21.82 5.52C21.98 5.38 22.16 5.25 22.33 5.12C23.36 6.5 23.18 8.81 21.96 9.96C21.8 9.79 21.63 9.61 21.47 9.44C21.27 9.22 21.04 9.18 20.8 9.37C20.53 9.59 20.62 9.84 20.8 10.07C20.95 10.26 21.1 10.44 21.25 10.63L21.24 10.64ZM18.99 8.89C19.96 8.89 20.61 8.26 20.63 7.32C20.65 6.45 19.96 5.71 19.01 5.68C18.15 5.65 17.41 6.41 17.41 7.25C17.41 8.22 18.04 8.88 18.99 8.89Z" fill="#ECB3C2"/>
<path d="M5.46 9.45C5.46 9.61 5.56 9.7 5.66 9.8C5.76 9.91 5.86 10.03 5.94 10.16C6.09 10.41 6.02 10.63 5.79 10.79C5.55 10.96 5.33 10.86 5.15 10.66C5 10.48 4.9 10.25 4.64 10.18C4.62 9.86 4.32 9.71 4.17 9.47C4.1 9.35 4 9.25 3.91 9.15C3.71 8.9 3.76 8.68 3.99 8.49C4.23 8.3 4.44 8.4 4.62 8.59C4.8 8.79 4.96 9 5.13 9.2C5.22 9.3 5.3 9.42 5.45 9.45H5.46Z" fill="#EE2F66"/>
<path d="M27.31 15.25C27.54 15.18 27.65 14.96 27.82 14.82C28.1 14.58 28.35 14.56 28.55 14.78C28.76 15.03 28.69 15.25 28.48 15.48C28.32 15.64 28.11 15.76 28.05 15.99C27.78 16.25 27.51 16.52 27.23 16.78C26.95 17.04 26.69 17.07 26.5 16.84C26.28 16.58 26.36 16.35 26.58 16.11C26.83 15.84 27.13 15.59 27.31 15.25Z" fill="#EE2F66"/>
<path d="M10.95 10.71C10.66 10.73 10.52 11 10.3 11.14C10.03 11.3 9.83001 11.29 9.65001 11.04C9.45001 10.78 9.54001 10.56 9.77001 10.39C9.97001 10.25 10.14 10.09 10.29 9.9C10.6 9.75 10.83 9.49 11.09 9.27C11.22 9.17 11.34 9.05 11.51 9.04C11.7 9.03 11.85 9.1 11.96 9.27C12.07 9.45 12.03 9.62 11.9 9.76C11.71 9.98 11.49 10.17 11.25 10.34C11.12 10.44 10.98 10.53 10.94 10.71H10.95Z" fill="#EE2F66"/>
<path d="M32.89 15.93C32.84 15.68 32.62 15.56 32.46 15.41C32.22 15.18 32.19 14.94 32.4 14.71C32.63 14.47 32.88 14.54 33.1 14.75C33.28 14.92 33.45 15.08 33.63 15.25C33.87 15.5 34.11 15.75 34.35 15.99C34.67 16.32 34.72 16.56 34.5 16.78C34.28 17.01 34.04 16.96 33.71 16.66C33.44 16.42 33.25 16.08 32.89 15.94V15.93Z" fill="#EE2F66"/>
<path d="M16.8 4C16.93 4.2 17.09 4.38 17.25 4.56C17.44 4.78 17.52 5.03 17.25 5.26C17.01 5.46 16.8 5.39 16.58 5.2C16.39 5.04 16.33 4.74 16.05 4.68C15.96 4.44 15.77 4.26 15.61 4.07C15.51 3.95 15.41 3.84 15.32 3.72C15.13 3.47 15.12 3.22 15.38 3.02C15.63 2.83 15.85 2.94 16.04 3.16C16.29 3.45 16.55 3.72 16.8 4.01V4Z" fill="#EE2F66"/>
<path d="M15.72 9.5C15.93 9.33 16.13 9.17 16.34 9C16.56 8.82 16.77 8.88 16.95 9.07C17.12 9.25 17.13 9.44001 16.97 9.65001C16.79 9.89001 16.49 9.99001 16.33 10.24C16.02 10.49 15.71 10.73 15.41 10.98C15.17 11.18 14.95 11.18 14.73 10.98C14.55 10.81 14.6 10.47 14.82 10.27C15.11 10.01 15.41 9.75001 15.7 9.49001L15.72 9.5Z" fill="#EE2F66"/>
<path d="M4.23999 14.94C4.50999 14.89 4.61999 14.62 4.83999 14.5C5.09999 14.36 5.31999 14.32 5.50999 14.58C5.69999 14.83 5.61999 15.06 5.39999 15.25C5.21999 15.4 4.98999 15.5 4.91999 15.76C4.59999 15.78 4.44999 16.08 4.20999 16.23C4.11999 16.28 4.05999 16.37 3.97999 16.43C3.73999 16.61 3.46999 16.72 3.24999 16.43C3.04999 16.16 3.15999 15.93 3.39999 15.71C3.67999 15.46 4.01999 15.27 4.22999 14.95L4.23999 14.94Z" fill="#EE2F66"/>
<path d="M22.32 5.13C22.15 5.26 21.97 5.39 21.81 5.53C21.57 5.74 21.32 5.76 21.09 5.55C20.85 5.33 20.94 5.11 21.14 4.89C21.31 4.7 21.56 4.61 21.7 4.38C22.02 4.12 22.33 3.87 22.65 3.61C22.91 3.4 23.15 3.43 23.34 3.69C23.53 3.95 23.41 4.17 23.2 4.35C22.9 4.61 22.57 4.83 22.32 5.13Z" fill="#EE2F66"/>
<path d="M27.97 9.73C28.13 9.91 28.29 10.09 28.46 10.26C28.64 10.44 28.75 10.62 28.57 10.86C28.38 11.11 28.12 11.11 27.89 10.95C27.67 10.8 27.49 10.6 27.29 10.42C27.02 10.14 26.75 9.85 26.47 9.57C26.25 9.35 26.19 9.11 26.42 8.87C26.65 8.64 26.89 8.69 27.12 8.91C27.4 9.18 27.69 9.45 27.97 9.72V9.73Z" fill="#EE2F66"/>
<path d="M33.57 10.34C33.39 10.5 33.21 10.66 33.04 10.83C32.83 11.05 32.63 11.12 32.39 10.88C32.15 10.64 32.19 10.41 32.39 10.18C32.55 10 32.72 9.83 32.88 9.65C33.15 9.39 33.43 9.12 33.7 8.86C33.97 8.6 34.24 8.58 34.43 8.8C34.65 9.06 34.56 9.29 34.35 9.51C34.09 9.78 33.83 10.06 33.56 10.34H33.57Z" fill="#EE2F66"/>
<path d="M21.24 10.64C21.09 10.45 20.94 10.27 20.79 10.08C20.61 9.85 20.52 9.6 20.79 9.38C21.03 9.18 21.25 9.23 21.46 9.45C21.62 9.62 21.79 9.8 21.95 9.97C22.19 10.25 22.42 10.53 22.66 10.81C22.8 10.97 22.89 11.15 22.85 11.37C22.78 11.71 22.38 11.82 22.11 11.56C21.81 11.27 21.54 10.95 21.25 10.65L21.24 10.64Z" fill="#EE2F66"/>
<path d="M9.75001 16.16C9.60001 15.97 9.45001 15.78 9.30001 15.6C9.11001 15.37 9.07001 15.14 9.30001 14.92C9.53001 14.71 9.75001 14.78 9.98001 14.96C10.18 15.12 10.22 15.42 10.51 15.48C10.61 15.86 10.94 16.07 11.15 16.36C11.4 16.69 11.43 16.93 11.2 17.13C10.97 17.33 10.73 17.28 10.45 16.96C10.21 16.7 9.99001 16.42 9.75001 16.15V16.16Z" fill="#EE2F66"/>
<path d="M31.03 20.46C29.97 20.46 28.91 20.46 27.86 20.46C27.45 20.46 27.24 20.3 27.23 20.01C27.23 19.72 27.45 19.55 27.85 19.55C29.98 19.55 32.11 19.55 34.24 19.55C34.63 19.55 34.88 19.74 34.85 20.02C34.81 20.37 34.57 20.46 34.25 20.46C33.18 20.46 32.11 20.46 31.04 20.46H31.03Z" fill="#F9C5D5"/>
<path d="M24.96 20.46C24.69 20.46 24.42 20.46 24.16 20.46C23.88 20.46 23.69 20.33 23.69 20.03C23.69 19.73 23.85 19.57 24.13 19.56C24.68 19.54 25.23 19.54 25.77 19.56C26.04 19.56 26.23 19.71 26.23 20.02C26.23 20.32 26.05 20.46 25.77 20.47C25.5 20.47 25.23 20.47 24.97 20.47L24.96 20.46Z" fill="#F9C5D5"/>
<path d="M32.04 12.84C32.15 13.61 31.3 14.45 30.45 14.43C29.65 14.41 28.85 13.76 28.83 12.79C28.81 11.96 29.62 11.19 30.46 11.19C31.33 11.19 32.17 12.04 32.04 12.84Z" fill="#EE2F66"/>
<path d="M5.99998 12.82C5.88998 11.95 6.76998 11.2 7.55998 11.19C8.41998 11.19 9.23998 11.98 9.20998 12.81C9.16998 13.77 8.37998 14.42 7.55998 14.43C6.78998 14.44 5.87998 13.66 5.98998 12.82H5.99998Z" fill="#EE2F66"/>
<path d="M18.99 8.89C18.05 8.89 17.41 8.22 17.41 7.25C17.41 6.4 18.15 5.65 19.01 5.68C19.96 5.71 20.65 6.44 20.63 7.32C20.61 8.26 19.96 8.89 18.99 8.89Z" fill="#EE2F66"/>
</svg>
