<svg width="37" height="38" viewBox="0 0 37 38" fill="none" xmlns="http://www.w3.org/2000/svg">
<path d="M26.07 31.8C26.07 32.78 26.09 33.75 26.07 34.73C26.05 36.13 24.89 37.29 23.49 37.29C21.11 37.3 18.72 37.29 16.34 37.29C11.83 37.29 7.32 37.28 2.81 37.29C1.73 37.29 0.919999 36.89 0.359999 35.97C0.179999 35.68 0.069999 35.36 0.039999 35.02C0.029999 34.89 0.0299988 34.75 0.0299988 34.62C0.0299988 26.52 0.0299988 18.42 0.0299988 10.33C0.0299988 9.09 0.789998 8.1 1.98 7.76C2.26 7.68 2.55 7.65 2.85 7.65C5.01 7.65 7.18 7.65 9.34 7.65C9.64 7.65 9.73 7.57 9.73 7.26C9.71 6.09 9.72 4.92 9.73 3.75C9.73 1.81 11.22 0.359999 13.16 0.389999C14.82 0.419999 16.29 1.87 16.31 3.54C16.33 4.77 16.33 6 16.31 7.24C16.31 7.59 16.42 7.66 16.74 7.65C18.93 7.64 21.12 7.65 23.3 7.65C24.68 7.65 25.74 8.5 26.03 9.84C26.06 9.99 26.07 10.15 26.07 10.31C26.07 15.44 26.07 20.58 26.07 25.71C26.07 25.81 26.06 25.9 26.05 26C23.34 23.88 20.63 21.76 17.92 19.65C15.71 17.92 13.5 16.2 11.29 14.47C10.72 14.02 10.14 13.58 9.49 13.08C9.57 13.57 9.63 13.98 9.7 14.38C9.63 14.36 9.6 14.27 9.51 14.3C9.46 14.4 9.55 14.48 9.56 14.58C9.74 16.14 10.26 17.6 10.93 19.01C11.82 20.87 12.96 22.57 14.26 24.18C15.54 25.75 16.95 27.19 18.44 28.56C19.62 29.65 20.87 30.65 22.16 31.61C22.33 31.74 22.47 31.75 22.66 31.68C23.26 31.45 23.87 31.24 24.47 31C24.68 30.92 24.84 30.95 25.01 31.08C25.35 31.33 25.71 31.56 26.06 31.81L26.07 31.8ZM13.03 2.67C12.39 2.67 11.85 3.21 11.86 3.83C11.87 4.44 12.4 4.95 13.03 4.96C13.67 4.96 14.19 4.44 14.19 3.8C14.19 3.19 13.66 2.68 13.03 2.68V2.67Z" fill="#EE2F66"/>
<path d="M9.71 14.39C9.65 13.99 9.58 13.59 9.5 13.09C10.15 13.59 10.72 14.03 11.3 14.48C13.51 16.21 15.72 17.93 17.93 19.66C20.64 21.78 23.35 23.9 26.06 26.01C26.31 26.2 26.55 26.38 26.8 26.57C26.89 26.64 26.96 26.71 26.96 26.84C26.3 27.69 25.65 28.55 24.99 29.4C24.91 29.5 24.79 29.59 24.81 29.74C24.12 29.99 23.43 30.23 22.75 30.49C22.51 30.58 22.33 30.57 22.11 30.41C19.48 28.48 17.1 26.3 14.96 23.85C13.39 22.04 12.02 20.09 10.98 17.93C10.43 16.8 10.04 15.61 9.72 14.4L9.71 14.39Z" fill="#EDEDED"/>
<path d="M24.8 29.74C24.79 29.59 24.9 29.5 24.98 29.4C25.64 28.55 26.29 27.69 26.95 26.84C27.09 26.81 27.17 26.93 27.26 27C30.23 29.32 33.2 31.64 36.18 33.95C36.82 34.44 37.13 35.06 36.95 35.86C36.64 37.22 35.11 37.75 33.98 36.88C32.68 35.89 31.4 34.87 30.11 33.87C28.78 32.84 27.46 31.8 26.13 30.76C25.66 30.45 25.2 30.13 24.8 29.74ZM28.34 29.69C28.34 29.36 28.11 29.11 27.78 29.1C27.46 29.09 27.18 29.34 27.17 29.65C27.17 29.95 27.48 30.26 27.78 30.26C28.07 30.26 28.33 29.99 28.33 29.69H28.34ZM30.69 32.37C30.69 32.64 31 32.96 31.24 32.97C31.53 32.97 31.85 32.67 31.85 32.39C31.85 32.05 31.58 31.79 31.24 31.81C30.93 31.82 30.68 32.08 30.69 32.37ZM35.32 35.16C35.32 34.83 35.06 34.58 34.75 34.59C34.45 34.6 34.22 34.86 34.22 35.17C34.22 35.47 34.47 35.74 34.77 35.75C35.08 35.75 35.33 35.5 35.33 35.16H35.32Z" fill="#EE2F66"/>
<path d="M24.8 29.74C25.2 30.13 25.66 30.46 26.13 30.76C26.02 31.1 26.13 31.46 26.07 31.8C25.72 31.56 25.36 31.32 25.02 31.07C24.85 30.94 24.69 30.91 24.48 30.99C23.88 31.23 23.27 31.44 22.67 31.67C22.48 31.74 22.34 31.73 22.17 31.6C20.88 30.64 19.63 29.64 18.45 28.55C16.96 27.18 15.55 25.74 14.27 24.17C12.97 22.57 11.83 20.87 10.94 19C10.27 17.59 9.75 16.13 9.57 14.57C9.56 14.48 9.47 14.4 9.52 14.29C9.61 14.26 9.64 14.36 9.71 14.37C10.03 15.58 10.42 16.77 10.97 17.9C12.02 20.06 13.38 22.01 14.95 23.82C17.09 26.28 19.47 28.46 22.1 30.38C22.32 30.54 22.5 30.55 22.74 30.46C23.42 30.2 24.11 29.96 24.8 29.71V29.74Z" fill="#ECB3C2"/>
</svg>
