<svg width="14" height="23" viewBox="0 0 14 23" fill="none" xmlns="http://www.w3.org/2000/svg">
    <path d="M13.56 22.6C13.56 22.6 13.56 22.63 13.56 22.65H9.33001C8.27001 19.83 7.22 17.01 6.16 14.2C5.81 13.28 5.46 12.35 5.11 11.43C5.04 11.23 4.97001 11.03 4.90001 10.83C4.45001 9.61002 3.99 8.39002 3.53 7.17002C2.97 5.68002 2.41 4.20002 1.86 2.71002C1.54 1.85002 1.21 0.990022 0.880005 0.130022C0.920005 0.0400218 1.01 0.0900228 1.07 0.0900228C2.35 0.0900228 3.63001 0.0900228 4.90001 0.0900228C5.07001 0.0900228 5.12 0.150024 5.18 0.290024C6.53 3.90002 7.88001 7.51002 9.24001 11.12C9.27001 11.19 9.30001 11.25 9.33001 11.32C9.40001 11.52 9.47 11.72 9.54 11.92C9.99 13.14 10.45 14.36 10.91 15.58C11.47 17.07 12.03 18.55 12.58 20.04C12.9 20.9 13.23 21.76 13.56 22.62V22.6Z"
          fill="#EE2F66"/>
    <path d="M0.880005 0.130005C1.21 0.990005 1.53 1.85 1.86 2.71C2.42 4.19 2.98 5.68 3.53 7.17C3.99 8.39 4.44001 9.61001 4.90001 10.83C4.97001 11.03 5.04 11.23 5.11 11.43C5.11 11.53 5.11 11.64 5.11 11.74C5.11 15.38 5.11 19.02 5.11 22.66H0.880005C0.880005 15.25 0.880005 7.84001 0.880005 0.430006C0.880005 0.330006 0.880005 0.240005 0.880005 0.140005V0.130005Z"
          fill="#ECB3C2"/>
    <path d="M13.56 22.6C13.23 21.74 12.91 20.88 12.58 20.02C12.02 18.54 11.46 17.05 10.91 15.56C10.45 14.34 10 13.12 9.54002 11.9C9.47002 11.7 9.40002 11.5 9.33002 11.3C9.33002 11.2 9.33002 11.09 9.33002 10.99C9.33002 7.44001 9.33002 3.88001 9.33002 0.330008C9.33002 0.110008 9.39001 0.0700073 9.60001 0.0700073C10.86 0.0800073 12.11 0.0700073 13.37 0.0700073C13.53 0.0700073 13.58 0.100008 13.58 0.270008C13.58 7.66001 13.58 15.05 13.58 22.44C13.58 22.49 13.58 22.54 13.58 22.59L13.56 22.6Z"
          fill="#ECB3C2"/>
</svg>
