<svg width="17" height="18" viewBox="0 0 17 18" fill="none" xmlns="http://www.w3.org/2000/svg">
<path d="M6.62 17.12C6.48 17.06 6.32 17.04 6.18 16.96C5.68 16.68 5.38 16.26 5.38 15.67C5.38 14.71 5.38 13.75 5.38 12.79C5.61 12.79 5.84 12.79 6.07 12.79C6.18 12.79 6.29001 12.79 6.40001 12.79C6.40001 13.71 6.40001 14.63 6.40001 15.55C6.40001 15.88 6.53 16.07 6.86 16.08C7.3 16.1 7.75 16.12 8.2 16.06C8.42 16.03 8.61 15.93 8.77 15.77C9.51 15.03 10.26 14.28 11 13.54C11.31 13.23 11.68 13.02 12.12 12.95C12.16 13 12.22 13 12.27 13.02C12.6 13.12 12.88 13.31 13.12 13.55C14.01 14.43 14.89 15.31 15.77 16.2C15.97 16.4 16.01 16.6 15.89 16.87C15.84 16.83 15.79 16.78 15.75 16.74C14.94 15.93 14.12 15.11 13.31 14.3C12.84 13.84 12.2 13.83 11.74 14.3C11.01 15.03 10.27 15.77 9.54 16.5C9.3 16.74 9.02 16.93 8.69 17.03C8.56 17.07 8.43 17.1 8.3 17.13H6.63L6.62 17.12Z" fill="#EE2F66"/>
<path d="M16.18 17.12C16.07 17.04 15.95 16.98 15.88 16.86C16 16.59 15.96 16.39 15.76 16.19C14.88 15.31 14 14.42 13.11 13.54C12.87 13.3 12.59 13.11 12.26 13.01C12.21 12.99 12.15 12.99 12.11 12.94C12.77 12.8 13.37 12.94 13.85 13.4C14.82 14.33 15.76 15.29 16.71 16.25C16.95 16.49 16.87 16.9 16.57 17.05C16.54 17.07 16.5 17.09 16.47 17.1H16.18V17.12Z" fill="#ECB3C2"/>
<path d="M9.26999 9.03C9.06999 9.03 8.87999 9.03 8.67999 9.03C8.67999 8.73 8.67999 8.43 8.67999 8.13C8.67999 7.86 8.49999 7.68 8.22999 7.68C8.08999 7.68 7.94999 7.68 7.80999 7.68C7.80999 7.64 7.80999 7.59 7.80999 7.55C7.87999 7.49 7.95998 7.44 8.02998 7.38C9.09998 6.5 9.52998 5.36 9.25998 4.01C9.00998 2.73 8.20999 1.86 6.96999 1.42C6.47999 1.24 5.96999 1.2 5.44999 1.26C5.35999 1.28 5.27998 1.29 5.18998 1.31C4.37998 1.49 3.69999 1.9 3.17999 2.56C2.42999 3.52 2.25998 4.6 2.59998 5.76C2.75998 6.29 3.04998 6.74 3.43998 7.12C3.58998 7.27 3.73999 7.45 3.96999 7.52C3.96999 7.57 3.96999 7.62 3.96999 7.68C3.81999 7.68 3.67998 7.68 3.52998 7.68C3.26998 7.68 3.08999 7.86 3.08999 8.13C3.08999 8.43 3.08999 8.73 3.08999 9.03C2.60999 9.03 2.12999 9.03 1.64999 9.03C1.12999 9.03 0.669985 8.56 0.659985 8.04C0.659985 7.31 0.659985 6.58 0.659985 5.85C0.659985 4.4 0.679985 2.95 0.659985 1.5C0.649985 0.8 1.19999 0.349998 1.80999 0.349998C4.28999 0.359998 6.76998 0.349998 9.25998 0.349998C9.28998 0.349998 9.32999 0.349998 9.35999 0.349998C9.35999 0.419998 9.42999 0.41 9.46999 0.43C9.87999 0.64 10.12 0.959999 10.12 1.44C10.12 3.63 10.12 5.82 10.12 8.01C10.12 8.36 9.94998 8.62 9.68998 8.83C9.56998 8.92 9.41998 8.94 9.29998 9.02L9.26999 9.03Z" fill="#FFC8DA"/>
<path d="M3.08002 9.03C3.08002 8.73 3.08002 8.43 3.08002 8.13C3.08002 7.87 3.26002 7.69 3.52002 7.68C3.67002 7.68 3.81001 7.68 3.96001 7.68C4.13001 7.68 4.30002 7.68 4.47002 7.68C4.70002 7.68 4.92002 7.68 5.15002 7.68C5.15002 8.49 5.15002 9.3 5.15002 10.11C5.15002 10.6 5.65002 10.95 6.08002 10.81C6.41002 10.71 6.62001 10.43 6.62001 10.04C6.62001 9.25 6.62001 8.46 6.62001 7.67C6.63001 7.67 6.65002 7.66 6.66002 7.65C6.88002 7.65 7.09002 7.69 7.31002 7.63C7.32002 7.66 7.35002 7.67 7.38002 7.67C7.63002 7.8 7.68002 8.01 7.68002 8.27C7.68002 9.1 7.68002 9.93 7.68002 10.75C7.68002 10.89 7.68001 11.02 7.64001 11.15C7.48001 11.85 7.08002 12.35 6.41002 12.63C6.30002 12.68 6.15001 12.65 6.07001 12.77C5.84001 12.77 5.61002 12.77 5.38002 12.77C4.87002 12.77 4.37002 12.71 3.93002 12.39C3.50002 12.08 3.23002 11.67 3.13002 11.15C3.10002 10.99 3.10001 10.84 3.10001 10.68C3.10001 10.12 3.10001 9.56 3.10001 9L3.08002 9.03Z" fill="#EE2F66"/>
<path d="M9.26999 9.03C9.38999 8.95 9.53999 8.93 9.65999 8.84C9.91999 8.63 10.09 8.37 10.09 8.02C10.09 5.83 10.09 3.64 10.09 1.45C10.09 0.97 9.84999 0.649998 9.43999 0.439998C9.39999 0.419998 9.33999 0.43 9.32999 0.36C9.64999 0.36 9.95999 0.319999 10.28 0.389999C10.78 0.499999 11.11 0.899999 11.11 1.41C11.11 3.61 11.11 5.81 11.11 8C11.11 8.59 10.66 9.03 10.07 9.04C9.79999 9.04 9.53999 9.04 9.26999 9.04V9.03Z" fill="#EE2F66"/>
<path d="M14.35 5.13C14.35 4.87 14.35 4.62 14.35 4.36C14.35 4.18 14.29 4.12 14.1 4.11C13.75 4.11 13.4 4.11 13.05 4.11C12.73 4.11 12.56 3.86 12.68 3.57C13.11 2.54 13.53 1.52 13.96 0.499999C14 0.399999 14.07 0.329997 14.18 0.349997C14.3 0.379997 14.34 0.470001 14.34 0.580001C14.34 1.22 14.34 1.86 14.34 2.49C14.34 2.7 14.39 2.76 14.61 2.76C14.73 2.76 14.85 2.76 14.97 2.76C14.97 2.82 15.04 2.82 15.07 2.86C15.17 2.98 15.24 3.12 15.17 3.28C14.95 3.81 14.73 4.35 14.5 4.88C14.46 4.97 14.47 5.09 14.35 5.14V5.13Z" fill="#EE2F66"/>
<path d="M6.05999 12.79C6.13999 12.67 6.28999 12.69 6.39999 12.65C7.06999 12.37 7.46999 11.87 7.62999 11.17C7.65999 11.04 7.66999 10.9 7.66999 10.77C7.66999 9.94 7.66999 9.11 7.66999 8.29C7.66999 8.03 7.61999 7.82 7.36999 7.69C7.50999 7.69 7.65999 7.69 7.79999 7.69C7.93999 7.69 8.07999 7.69 8.21999 7.69C8.48999 7.69 8.66999 7.87 8.66999 8.14C8.66999 8.44 8.66999 8.74 8.66999 9.04C8.66999 9.64 8.66999 10.24 8.66999 10.84C8.66999 11.77 7.96999 12.61 7.05999 12.77C6.83999 12.81 6.60999 12.82 6.37999 12.81C6.26999 12.81 6.15999 12.81 6.04999 12.81L6.05999 12.79Z" fill="#ECB3C2"/>
<path d="M14.35 5.13C14.47 5.09 14.46 4.96 14.5 4.87C14.73 4.34 14.95 3.8 15.17 3.27C15.24 3.11 15.17 2.98 15.07 2.85C15.04 2.81 14.98 2.81 14.97 2.75C15.22 2.74 15.47 2.72 15.72 2.76C15.97 2.8 16.11 3.03 16.02 3.27C15.59 4.31 15.15 5.35 14.72 6.39C14.68 6.49 14.6 6.55 14.49 6.52C14.39 6.5 14.34 6.42 14.34 6.31C14.34 5.91 14.34 5.51 14.34 5.12L14.35 5.13Z" fill="#ECB3C2"/>
<path d="M6.66 7.67C6.66 7.67 6.63 7.68 6.62 7.69C6.13 7.69 5.64 7.69 5.15 7.69C4.92 7.69 4.7 7.69 4.47 7.69C4.47 7.15 4.47 6.61 4.47 6.07C4.47 5.87 4.38 5.76 4.22 5.77C4.05 5.77 3.98 5.86 3.98 6.07C3.98 6.56 3.98 7.05 3.98 7.54C3.75 7.47 3.61 7.29 3.45 7.14C3.07 6.76 2.77 6.3 2.61 5.78C2.27 4.62 2.44 3.55 3.19 2.58C3.71 1.92 4.38 1.51 5.2 1.33C5.28 1.31 5.37 1.3 5.46 1.28C5.69 1.38 5.94 1.41 6.17 1.51C6.94 1.84 7.53 2.35 7.92 3.09C8.23 3.69 8.37 4.31 8.31 4.99C8.26 5.53 8.11 6.03 7.82 6.49C7.82 6.35 7.82 6.21 7.82 6.07C7.82 5.88 7.73 5.77 7.57 5.77C7.39 5.77 7.32 5.86 7.32 6.07C7.32 6.44 7.32 6.81 7.32 7.18C7.11 7.35 6.9 7.52 6.68 7.68L6.66 7.67ZM7.31 4.29C7.31 4.43 7.31 4.57 7.31 4.71C7.31 4.88 7.38 4.96 7.54 4.96C7.68 4.96 7.8 4.87 7.8 4.71C7.8 4.43 7.8 4.15 7.8 3.86C7.8 3.71 7.67 3.61 7.53 3.62C7.41 3.62 7.31 3.74 7.31 3.88C7.31 4.02 7.31 4.15 7.31 4.29ZM4.46 4.32C4.46 4.19 4.46 4.06 4.46 3.93C4.46 3.74 4.36 3.63 4.21 3.63C4.07 3.63 3.97 3.75 3.97 3.92C3.97 4.18 3.97 4.44 3.97 4.7C3.97 4.86 4.07 4.96 4.21 4.96C4.36 4.96 4.46 4.86 4.46 4.7C4.46 4.57 4.46 4.44 4.46 4.31V4.32ZM5.64 5.5C5.64 5.63 5.74 5.75 5.86 5.76C6.01 5.76 6.13 5.65 6.13 5.5C6.13 5.37 6.02 5.27 5.89 5.27C5.73 5.27 5.65 5.35 5.64 5.51V5.5Z" fill="#ECB3C2"/>
<path d="M7.8 6.47C8.09 6.01 8.24 5.51 8.29 4.97C8.35 4.3 8.21001 3.67 7.90001 3.07C7.51001 2.33 6.91001 1.82 6.15001 1.49C5.92001 1.39 5.67 1.37 5.44 1.26C5.96 1.2 6.47 1.24 6.96 1.42C8.2 1.86 8.99 2.73 9.25 4.01C9.52 5.35 9.09 6.5 8.02 7.38C7.95 7.44 7.87 7.49 7.8 7.55C7.8 7.19 7.8 6.83 7.8 6.47Z" fill="#EE2F66"/>
<path d="M3.96 7.52C3.96 7.03 3.96 6.54 3.96 6.05C3.96 5.84 4.03 5.76 4.2 5.75C4.37 5.75 4.45 5.85 4.45 6.05C4.45 6.59 4.45 7.13 4.45 7.67C4.28 7.67 4.11 7.67 3.94 7.67C3.94 7.62 3.94 7.57 3.94 7.51L3.96 7.52Z" fill="#EE2F66"/>
<path d="M7.79999 6.47C7.79999 6.83 7.79999 7.19 7.79999 7.55C7.79999 7.59 7.79999 7.64 7.79999 7.68C7.65999 7.68 7.50999 7.68 7.36999 7.68C7.33999 7.68 7.30999 7.68 7.29999 7.64C7.29999 7.48 7.29999 7.32 7.29999 7.16C7.29999 6.79 7.29999 6.42 7.29999 6.05C7.29999 5.83 7.36999 5.74 7.54999 5.75C7.70999 5.75 7.78999 5.86 7.79999 6.05C7.79999 6.19 7.79999 6.33 7.79999 6.47Z" fill="#EE2F66"/>
<path d="M5.14999 7.68C5.63999 7.68 6.12999 7.68 6.61999 7.68C6.61999 8.47 6.61999 9.26 6.61999 10.05C6.61999 10.43 6.40999 10.71 6.07999 10.82C5.63999 10.95 5.14999 10.61 5.14999 10.12C5.14999 9.31 5.14999 8.5 5.14999 7.69V7.68Z" fill="#ECB3C2"/>
<path d="M7.29002 7.16C7.29002 7.32 7.29002 7.48 7.29002 7.64C7.08002 7.7 6.86001 7.67 6.64001 7.66C6.85001 7.49 7.06001 7.32 7.28001 7.16H7.29002Z" fill="#EE2F66"/>
<path d="M7.31 4.29C7.31 4.15 7.31 4.02 7.31 3.88C7.31 3.74 7.40999 3.63 7.52999 3.62C7.66999 3.61 7.8 3.71 7.8 3.86C7.8 4.14 7.8 4.42 7.8 4.71C7.8 4.87 7.68 4.96 7.54 4.96C7.38 4.96 7.31 4.88 7.31 4.71C7.31 4.57 7.31 4.43 7.31 4.29Z" fill="#EE2F66"/>
<path d="M4.46 4.32C4.46 4.45 4.46 4.58 4.46 4.71C4.46 4.87 4.36 4.97 4.21 4.97C4.06 4.97 3.97 4.87 3.97 4.71C3.97 4.45 3.97 4.19 3.97 3.93C3.97 3.75 4.07 3.64 4.21 3.64C4.36 3.64 4.46 3.75 4.46 3.94C4.46 4.07 4.46 4.2 4.46 4.33V4.32Z" fill="#EE2F66"/>
<path d="M5.64001 5.5C5.64001 5.34 5.73001 5.26 5.89001 5.26C6.02001 5.26 6.13002 5.37 6.13002 5.49C6.13002 5.64 6.01002 5.76 5.86002 5.75C5.74002 5.75 5.64001 5.63 5.64001 5.49V5.5Z" fill="#EE2F66"/>
</svg>
