<svg width="34" height="25" viewBox="0 0 34 25" fill="none" xmlns="http://www.w3.org/2000/svg">
    <path d="M2.92 23.43C2.58 23.43 2.23 23.42 1.89 23.43C1.41 23.45 1.06 23.27 0.860003 22.83C0.830003 22.76 0.800001 22.72 0.720001 22.72C0.720001 18.93 0.720001 15.14 0.720001 11.35C0.760001 11.33 0.820002 11.32 0.830002 11.29C1.04 10.76 1.46 10.63 1.99 10.63C5.37 10.64 8.74 10.63 12.12 10.63C12.27 10.63 12.42 10.63 12.57 10.64C11.86 11.83 11.58 13.11 11.76 14.5C12.11 17.17 14.64 19.35 17.32 19.27V19.29C17.32 20.66 17.32 22.04 17.32 23.41C13.16 23.41 9.01 23.41 4.85 23.41C4.2 23.41 3.56 23.41 2.91 23.41L2.92 23.43ZM7.25 16.2C7.84 16.2 8.43 16.2 9.02 16.2C9.57 16.2 10.02 15.76 10.02 15.24C10.02 14.71 9.59 14.27 9.03 14.27C7.84 14.27 6.64 14.27 5.45 14.27C4.91 14.27 4.46 14.73 4.46 15.25C4.46 15.77 4.92 16.21 5.46 16.21C6.05 16.21 6.64 16.21 7.23 16.21L7.25 16.2ZM7.22 19.81C7.82 19.81 8.42 19.81 9.03 19.81C9.57 19.81 10.02 19.36 10.02 18.84C10.02 18.31 9.58 17.87 9.03 17.87C7.85 17.87 6.66 17.87 5.48 17.87C4.92 17.87 4.46 18.32 4.47 18.85C4.47 19.37 4.93 19.8 5.48 19.8C6.06 19.8 6.64 19.8 7.22 19.8V19.81Z"
          fill="#F7C1D1"/>
    <path d="M17.32 23.43C17.32 22.06 17.32 20.68 17.32 19.31C17.58 19.29 17.83 19.27 18.09 19.24C20.77 18.91 22.89 16.55 22.94 13.85C22.96 12.7 22.65 11.65 22.07 10.66C22.13 10.66 22.2 10.65 22.26 10.65C25.8 10.65 29.33 10.65 32.87 10.65C33.37 10.65 33.64 10.97 33.85 11.36V22.73C33.58 23.34 33.08 23.5 32.46 23.44C32.22 23.42 31.97 23.44 31.72 23.44C31.07 23.44 30.43 23.44 29.78 23.44C25.63 23.44 21.47 23.44 17.32 23.44V23.43ZM27.38 16.2C27.99 16.2 28.61 16.2 29.22 16.2C29.74 16.2 30.18 15.74 30.17 15.23C30.17 14.73 29.74 14.27 29.23 14.27C28 14.27 26.78 14.26 25.55 14.27C25.23 14.27 24.96 14.42 24.77 14.71C24.33 15.37 24.86 16.24 25.66 16.21C26.23 16.19 26.8 16.21 27.37 16.21L27.38 16.2ZM27.41 17.88C26.8 17.88 26.18 17.88 25.57 17.88C25.05 17.88 24.61 18.34 24.62 18.85C24.62 19.35 25.05 19.8 25.56 19.81C26.79 19.81 28.01 19.82 29.24 19.81C29.56 19.81 29.82 19.66 30.02 19.37C30.46 18.71 29.93 17.84 29.13 17.87C28.56 17.89 27.99 17.87 27.42 17.87L27.41 17.88Z"
          fill="#EE2F66"/>
    <path d="M22.07 10.66C22.65 11.64 22.96 12.7 22.94 13.85C22.88 16.55 20.77 18.91 18.09 19.24C17.83 19.27 17.58 19.29 17.32 19.31V19.29C17.32 18.65 17.32 18 17.32 17.36C19.32 17.36 21 15.69 21 13.71C21 11.67 19.35 9.99998 17.32 9.99998C17.32 9.35998 17.32 8.71998 17.32 8.06998C19.23 8.07998 20.74 8.88998 21.88 10.4C21.94 10.48 22.01 10.57 22.07 10.66Z"
          fill="#ECB3C2"/>
    <path d="M17.32 17.36C17.32 18 17.32 18.65 17.32 19.29C14.64 19.37 12.11 17.19 11.76 14.52C11.58 13.13 11.86 11.85 12.57 10.66C13.48 9.32999 14.7 8.46999 16.29 8.15999C16.63 8.09999 16.97 8.03999 17.32 8.06999C17.32 8.70999 17.32 9.34999 17.32 9.99999C15.32 9.99999 13.64 11.66 13.64 13.65C13.64 15.7 15.28 17.36 17.32 17.36Z"
          fill="#ECB3C2"/>
    <path d="M17.32 0.829987C19.81 0.839987 22.12 1.48999 24.22 2.84999C24.48 3.01999 24.76 3.14999 24.93 3.43999C25.14 3.79999 25.11 4.24999 24.83 4.57999C24.6 4.84999 24.16 4.95999 23.8 4.83999C23.37 4.68999 23.03 4.37999 22.63 4.15999C21.48 3.50999 20.25 3.09999 18.94 2.89999C18.4 2.81999 17.86 2.75999 17.31 2.76999C17.31 2.11999 17.31 1.47999 17.31 0.829987H17.32Z"
          fill="#EE2F66"/>
    <path d="M17.32 0.829987C17.32 1.47999 17.32 2.11999 17.32 2.76999C15.11 2.78999 13.08 3.38999 11.24 4.61999C10.91 4.83999 10.57 4.98999 10.16 4.80999C9.82 4.66999 9.63 4.40999 9.57 4.06999C9.51 3.68999 9.65 3.34999 9.96 3.13999C11.52 2.07999 13.22 1.34999 15.09 1.02999C15.83 0.899987 16.57 0.809987 17.32 0.839987V0.829987Z"
          fill="#ECB3C2"/>
    <path d="M17.32 6.37998C15.85 6.39998 14.48 6.76997 13.28 7.61997C12.55 8.13997 11.8 7.68997 11.67 7.13997C11.58 6.74997 11.72 6.29998 12.04 6.07998C13.26 5.23998 14.61 4.71997 16.07 4.50997C16.48 4.44997 16.9 4.38997 17.32 4.42997C17.32 5.07997 17.32 5.71997 17.32 6.36997V6.37998Z"
          fill="#ECB3C2"/>
    <path d="M17.32 6.37997C17.32 5.72997 17.32 5.08997 17.32 4.43997C19.21 4.43997 20.93 4.97997 22.5 6.02997C23 6.36997 23.15 6.91997 22.86 7.38997C22.55 7.88997 22.01 8.01997 21.46 7.65997C20.89 7.28997 20.3 6.96997 19.65 6.74997C18.89 6.49997 18.11 6.37997 17.32 6.36997V6.37997Z"
          fill="#EE2F66"/>
    <path d="M29.78 23.43C30.43 23.43 31.07 23.43 31.72 23.43C31.7 24.06 31.31 24.47 30.73 24.46C30.17 24.46 29.79 24.04 29.78 23.43Z" fill="#ECB3C2"/>
    <path d="M2.92001 23.43C3.57001 23.43 4.21001 23.43 4.86001 23.43C4.89001 24.07 4.37001 24.47 3.88001 24.46C3.40001 24.45 2.91001 24.06 2.93001 23.43H2.92001Z" fill="#ECB3C2"/>
    <path d="M7.25001 16.2C6.66001 16.2 6.07001 16.2 5.48001 16.2C4.94001 16.2 4.48001 15.76 4.48001 15.24C4.48001 14.72 4.93001 14.27 5.47001 14.26C6.66001 14.26 7.86001 14.26 9.05001 14.26C9.60001 14.26 10.04 14.7 10.04 15.23C10.04 15.75 9.59001 16.19 9.04001 16.19C8.45001 16.19 7.86001 16.19 7.27001 16.19L7.25001 16.2Z"
          fill="#ECB3C2"/>
    <path d="M7.22 19.81C6.64 19.81 6.06 19.81 5.48 19.81C4.93 19.81 4.48 19.38 4.47 18.86C4.47 18.32 4.92 17.88 5.48 17.88C6.66 17.88 7.85 17.88 9.03 17.88C9.58 17.88 10.02 18.31 10.02 18.85C10.02 19.37 9.57 19.82 9.03 19.82C8.43 19.82 7.83 19.82 7.22 19.82V19.81Z"
          fill="#ECB3C2"/>
    <path d="M27.38 16.2C26.81 16.2 26.24 16.18 25.67 16.2C24.87 16.23 24.34 15.36 24.78 14.7C24.97 14.41 25.24 14.27 25.56 14.26C26.79 14.25 28.01 14.25 29.24 14.26C29.74 14.26 30.17 14.72 30.18 15.22C30.18 15.74 29.75 16.19 29.23 16.19C28.62 16.19 28 16.19 27.39 16.19L27.38 16.2Z"
          fill="#ECB3C2"/>
    <path d="M27.41 17.88C27.98 17.88 28.55 17.9 29.12 17.88C29.92 17.85 30.45 18.72 30.01 19.38C29.82 19.67 29.55 19.81 29.23 19.82C28 19.83 26.78 19.83 25.55 19.82C25.05 19.82 24.62 19.36 24.61 18.86C24.61 18.34 25.04 17.89 25.56 17.89C26.17 17.89 26.79 17.89 27.4 17.89L27.41 17.88Z"
          fill="#ECB3C2"/>
    <path d="M17.32 10C19.35 10 21 11.67 21 13.71C21 15.69 19.32 17.36 17.32 17.36C17.32 16.46 17.32 15.55 17.32 14.65C17.91 14.64 18.29 14.25 18.29 13.68C18.29 13.11 17.91 12.72 17.32 12.71C17.32 11.81 17.32 10.9 17.32 10Z"
          fill="#EE2F66"/>
    <path d="M17.32 9.99999C17.32 10.9 17.32 11.81 17.32 12.71C16.74 12.75 16.35 13.15 16.35 13.69C16.35 14.21 16.76 14.61 17.32 14.64C17.32 15.55 17.32 16.45 17.32 17.35C15.28 17.35 13.64 15.69 13.64 13.64C13.64 11.65 15.32 9.98999 17.32 9.98999V9.99999Z"
          fill="#F7C1D1"/>
    <path d="M17.32 12.71C17.91 12.72 18.29 13.11 18.29 13.68C18.29 14.25 17.91 14.64 17.32 14.65C17.32 14 17.32 13.36 17.32 12.71Z" fill="#F7C1D1"/>
    <path d="M17.32 12.71C17.32 13.36 17.32 14 17.32 14.65C16.76 14.61 16.36 14.22 16.35 13.7C16.35 13.15 16.74 12.76 17.32 12.72V12.71Z" fill="#F9DCE5"/>
</svg>
