<svg width="21" height="29" viewBox="0 0 21 29" fill="none" xmlns="http://www.w3.org/2000/svg">
<path d="M19.82 8.07999C19.96 8.59999 20.02 9.13 20.08 9.66C20.22 10.74 20.31 11.83 20.37 12.92C20.43 13.97 20.43 15.02 20.4 16.07C20.37 17.08 20.27 18.1 20.15 19.11C20 20.36 19.78 21.59 19.53 22.82C18.27 22.82 17 22.82 15.74 22.82C14.45 22.82 13.16 22.82 11.87 22.82C11.72 22.82 11.58 22.84 11.7 22.61C12.04 21.97 12.16 21.29 12.06 20.58C11.94 19.65 11.53 18.86 10.8 18.26C10.73 18.21 10.67 18.09 10.58 18.12C10.47 18.17 10.53 18.3 10.53 18.39C10.53 21.84 10.53 25.29 10.53 28.75C8.26001 28.75 5.99002 28.75 3.72002 28.75C3.11002 28.5 3.04002 27.88 2.86002 27.37C2.35002 25.97 1.93002 24.54 1.59002 23.09C1.58002 23.04 1.58002 22.98 1.58002 22.93C2.83002 22.93 4.09002 22.93 5.34002 22.93C5.46002 22.93 5.63002 22.99 5.49002 22.75C4.66002 21.36 4.94002 19.35 6.33002 18.26C7.35002 17.46 8.47002 17.28 9.70002 17.65C9.99002 17.74 10.24 17.9 10.53 18.02C10.53 14.7 10.53 11.4 10.53 8.10999C10.59 8.10999 10.66 8.10001 10.72 8.10001C13.75 8.08001 16.78 8.07999 19.82 8.07999ZM13.49 13.08C12.44 13.08 11.5 13.99 11.52 15.03C11.54 16.14 12.38 16.99 13.51 16.98C14.58 16.97 15.39 16.11 15.42 15.06C15.43 13.99 14.53 13.08 13.49 13.08Z" fill="#EE2F66"/>
<path d="M10.52 28.75C10.52 25.3 10.52 21.85 10.52 18.39C10.52 18.3 10.46 18.16 10.57 18.12C10.66 18.08 10.72 18.2 10.79 18.26C11.53 18.86 11.93 19.64 12.05 20.58C12.14 21.29 12.03 21.97 11.69 22.61C11.57 22.84 11.71 22.82 11.86 22.82C13.15 22.82 14.44 22.82 15.73 22.82C16.99 22.82 18.26 22.82 19.52 22.82C19.11 24.6 18.59 26.35 17.94 28.07C17.82 28.39 17.62 28.61 17.33 28.76C15.06 28.75 12.79 28.75 10.52 28.75Z" fill="#EE2F66"/>
<path d="M10.52 8.09C10.52 11.39 10.52 14.68 10.52 18C10.22 17.88 9.97 17.72 9.69 17.63C8.46 17.26 7.34 17.44 6.32 18.24C4.93 19.34 4.64 21.35 5.48 22.73C5.62 22.97 5.45 22.91 5.33 22.91C4.08 22.91 2.82 22.91 1.57 22.91C1.39 22.32 1.29 21.71 1.19 21.11C1.07 20.41 0.97 19.71 0.87 19.01C0.81 18.61 0.780001 18.2 0.750001 17.79C0.630001 16.36 0.600003 14.93 0.650003 13.5C0.680003 12.41 0.760003 11.32 0.900003 10.24C0.990003 9.54999 1.11 8.86001 1.19 8.17001C1.19 8.14001 1.22 8.10999 1.24 8.07999C3.02 8.07999 4.8 8.07999 6.59 8.07999C7.91 8.07999 9.22 8.07001 10.54 8.07001L10.52 8.09ZM9.7 11.39C9.7 10.94 9.34 10.57 8.89 10.56C8.42 10.55 8.05 10.91 8.05 11.38C8.05 11.84 8.42 12.21 8.88 12.21C9.33 12.2 9.7 11.84 9.7 11.39Z" fill="#F9C5D5"/>
<path d="M19.82 8.07999C16.79 8.07999 13.75 8.07999 10.72 8.07999C10.66 8.07999 10.59 8.09 10.53 8.09L10.54 8.07001C10.54 6.71001 10.53 5.36 10.54 4C10.54 3.73 10.46 3.67001 10.2 3.67001C9.24999 3.69001 8.29999 3.67999 7.33999 3.67999C6.88999 3.67999 6.68999 3.48 6.67999 3.03C6.67999 2.22 6.67999 1.41999 6.67999 0.609985C8.02999 0.609985 9.36999 0.600006 10.72 0.600006C12.81 0.600006 14.89 0.600006 16.98 0.600006C17.53 0.600006 17.75 0.759989 17.95 1.26999C18.76 3.38999 19.38 5.56999 19.8 7.79999C19.81 7.89999 19.81 7.98999 19.82 8.07999Z" fill="#EE2F66"/>
<path d="M6.67999 0.619995C6.67999 1.43 6.67999 2.23001 6.67999 3.04001C6.67999 3.49001 6.88999 3.69 7.33999 3.69C8.28999 3.69 9.23999 3.69999 10.2 3.67999C10.46 3.67999 10.54 3.74001 10.54 4.01001C10.53 5.37001 10.54 6.71999 10.54 8.07999C9.21999 8.07999 7.90999 8.09 6.58999 8.09C4.80999 8.09 3.02999 8.09 1.23999 8.09C1.31999 7.31 1.51999 6.55 1.70999 5.78C2.07999 4.24 2.55999 2.74001 3.11999 1.26001C3.29999 0.78001 3.53999 0.609985 4.04999 0.609985C4.91999 0.609985 5.79999 0.609995 6.67999 0.619995Z" fill="#ECB3C2"/>
<path d="M13.49 13.08C14.54 13.08 15.44 13.98 15.41 15.06C15.39 16.11 14.57 16.96 13.5 16.98C12.37 16.99 11.54 16.14 11.51 15.03C11.49 13.99 12.43 13.09 13.49 13.08Z" fill="#F9C5D5"/>
<path d="M9.69999 11.39C9.69999 11.84 9.32999 12.21 8.87999 12.21C8.41999 12.21 8.04999 11.84 8.04999 11.38C8.04999 10.91 8.41999 10.55 8.88999 10.56C9.33999 10.56 9.69999 10.93 9.69999 11.39Z" fill="#EE2F66"/>
</svg>
