<svg width="28" height="38" viewBox="0 0 28 38" fill="none" xmlns="http://www.w3.org/2000/svg">
<path d="M11.25 34.05C11.32 32.81 11.39 31.58 11.45 30.34C11.59 27.5 11.72 24.66 11.86 21.81C11.93 20.29 12.01 18.78 12.09 17.26C12.21 14.88 12.34 12.5 12.47 10.11C15.74 10.11 19.02 10.11 22.29 10.11C22.23 10.56 22.36 11 22.37 11.44C22.39 12.35 22.47 13.27 22.51 14.18C22.58 15.79 22.67 17.41 22.75 19.02C22.8 19.97 22.86 20.92 22.9 21.87C22.97 23.46 23.05 25.04 23.13 26.63C23.18 27.61 23.25 28.58 23.28 29.56C23.32 31.05 23.48 32.53 23.45 34.02C19.39 34.02 15.33 34.02 11.27 34.02L11.25 34.05ZM17.36 18.94C15.87 19.43 14.89 20.86 14.91 22.5C14.93 24.03 16.02 25.46 17.52 25.91C18.73 26.38 20.42 25.93 21.33 24.9C22.81 23.23 22.58 20.76 20.79 19.43C19.75 18.66 18.59 18.48 17.36 18.94Z" fill="#ECB3C2"/>
<path d="M4.02 13.19C4.65 14.14 5.27001 15.09 5.90001 16.03C6.18001 16.45 6.32 16.88 6.32 17.39C6.32 23.32 6.3 29.26 6.32 35.19C6.32 36.28 5.43 37.15 4.48 37.13C3.41 37.11 2.62 36.3 2.62 35.17C2.62 29.5 2.62 23.84 2.62 18.17C2.62 17.9 2.56 17.68 2.41 17.46C1.78 16.54 1.17 15.61 0.550003 14.69C0.280003 14.3 0.160004 13.87 0.160004 13.39C0.160004 9.9 0.160004 6.41 0.160004 2.92C0.160004 1.87 0.690004 1.12 1.59 0.910001C2.46 0.700001 3.27 1.14 3.73 2.06C3.74 2.08 3.76 2.1 3.77 2.12C3.84 2.38 3.85 2.64 3.85 2.91C3.85 3.47 3.85 4.02 3.85 4.58C3.85 4.99 3.85 5.4 3.85 5.81C3.85 6.22 3.85 6.63 3.85 7.03C3.85 7.44 3.85 7.85 3.85 8.26C3.85 8.67 3.85 9.08 3.85 9.48C3.85 9.89 3.85 10.3 3.85 10.71C3.85 11.39 3.85 12.08 3.84 12.76C3.84 12.93 3.9 13.05 4.01 13.17L4.02 13.19Z" fill="#EE2F66"/>
<path d="M23.43 34.05C23.46 32.56 23.3 31.08 23.26 29.59C23.24 28.61 23.16 27.64 23.11 26.66C23.03 25.07 22.95 23.49 22.88 21.9C22.84 20.95 22.78 20 22.73 19.05C22.65 17.44 22.56 15.83 22.49 14.21C22.45 13.3 22.37 12.38 22.35 11.47C22.35 11.02 22.22 10.59 22.27 10.14V10.12C23.09 10.12 23.91 10.13 24.72 10.14C24.8 11.67 24.88 13.2 24.96 14.73C25.08 16.97 25.21 19.21 25.32 21.46C25.39 22.73 25.43 24.01 25.5 25.28C25.59 27.06 25.69 28.85 25.78 30.63C25.84 31.78 25.89 32.92 25.94 34.07C25.41 34.07 24.88 34.08 24.35 34.09L23.43 34.06V34.05Z" fill="#EE2F66"/>
<path d="M23.43 34.05C23.74 34.05 24.04 34.07 24.35 34.08C24.64 34.25 24.75 34.51 24.74 34.84C24.72 35.54 24.72 36.24 24.74 36.94C24.75 37.29 24.64 37.56 24.35 37.75C19.81 37.75 15.28 37.75 10.74 37.75C10.2 37.75 9.98999 37.54 9.98999 37.02C9.98999 36.29 9.98999 35.56 9.98999 34.84C9.98999 34.28 10.19 34.08 10.75 34.08C10.92 34.08 11.08 34.08 11.25 34.08C15.31 34.08 19.37 34.08 23.43 34.08V34.05Z" fill="#F9C5D5"/>
<path d="M22.28 10.13C19.01 10.13 15.73 10.13 12.46 10.13C12.38 9.68 12.76 9.47 12.98 9.2C13.71 8.29 14.47 7.4 15.23 6.51C15.26 6.48 15.32 6.46 15.36 6.44C16.7 6.44 18.03 6.43 19.37 6.42C19.4 6.42 19.42 6.44 19.45 6.44C19.5 6.53 19.54 6.62 19.61 6.7C20.44 7.69 21.27 8.67 22.1 9.66C22.21 9.79 22.3 9.93 22.28 10.1V10.12V10.13Z" fill="#F9C5D5"/>
<path d="M19.36 6.42C18.02 6.42 16.69 6.43 15.35 6.44C15.63 6.02 15.6 5.52 15.67 5.05C15.84 3.88 15.98 2.71 16.14 1.54C16.2 1.09 16.4 0.919998 16.85 0.919998C17.31 0.919998 17.77 0.919998 18.22 0.929998C18.39 1.05 18.56 1.18 18.59 1.39C18.73 2.4 18.84 3.42 18.99 4.43C19.09 5.1 19.05 5.8 19.37 6.42H19.36Z" fill="#ECB3C2"/>
<path d="M19.36 6.42C19.04 5.79 19.08 5.09 18.98 4.43C18.83 3.42 18.72 2.4 18.58 1.39C18.55 1.17 18.38 1.05 18.21 0.929998C18.94 0.929998 19.66 0.929998 20.39 0.919998C20.77 0.919998 20.99 1.1 21.05 1.47C21.18 2.41 21.3 3.36 21.43 4.3C21.51 4.89 21.59 5.48 21.66 6.08C21.68 6.21 21.77 6.28 21.84 6.37C21.73 6.49 21.58 6.44 21.45 6.44C20.78 6.44 20.11 6.44 19.44 6.45C19.41 6.45 19.39 6.43 19.36 6.43V6.42Z" fill="#EE2F66"/>
<path d="M19.44 6.44C20.11 6.44 20.78 6.44 21.45 6.43C21.58 6.43 21.73 6.48 21.84 6.36C22.75 7.47 23.66 8.57 24.56 9.68C24.67 9.81 24.75 9.95 24.73 10.13C23.91 10.13 23.09 10.12 22.28 10.11C22.3 9.93 22.21 9.8 22.1 9.67C21.27 8.68 20.44 7.7 19.61 6.71C19.55 6.63 19.5 6.54 19.45 6.45L19.44 6.44Z" fill="#ECB3C2"/>
<path d="M24.35 37.74C24.64 37.55 24.75 37.29 24.74 36.93C24.72 36.23 24.72 35.53 24.74 34.83C24.74 34.49 24.64 34.24 24.35 34.07C24.88 34.07 25.41 34.06 25.94 34.05C27.16 34.01 27.21 34.17 27.19 35.32C27.18 35.89 27.19 36.47 27.19 37.04C27.19 37.52 26.97 37.74 26.49 37.74C25.78 37.74 25.06 37.74 24.35 37.74Z" fill="#ECB3C2"/>
<path d="M5 2.14C6.02 2.14 7.04 2.14 8.07 2.14C8.54 2.14 8.76 2.36 8.77 2.81C8.77 3.41 8.77 4.01 8.77 4.61C7.55 4.61 6.32 4.6 5.1 4.59C5.07 3.78 5.17 2.96 5.02 2.15L5 2.14Z" fill="#ECB3C2"/>
<path d="M8.76001 10.72C8.76001 11.32 8.77001 11.92 8.76001 12.52C8.76001 12.97 8.53001 13.19 8.06001 13.19C7.09001 13.19 6.12001 13.19 5.15001 13.19C5.09001 13 5.07001 12.8 5.07001 12.6C5.07001 11.98 5.07001 11.37 5.07001 10.75C6.29001 10.75 7.52001 10.74 8.74001 10.73L8.76001 10.72Z" fill="#ECB3C2"/>
<path d="M5.08 4.58C6.3 4.58 7.53 4.59 8.75 4.6C8.75 5 8.75 5.4 8.75 5.8C7.53 5.8 6.3 5.82 5.08 5.82C4.68 5.82 4.27 5.82 3.87 5.82C3.87 5.41 3.87 5 3.87 4.59C4.27 4.59 4.68 4.59 5.08 4.59V4.58Z" fill="#EE2F66"/>
<path d="M3.87 8.28C3.87 7.87 3.87 7.46 3.87 7.05C4.27 7.05 4.68 7.05 5.08 7.05C6.3 7.05 7.53 7.07 8.75 7.07C8.75 7.47 8.75 7.87 8.75 8.27C7.53 8.27 6.3 8.29 5.08 8.29C4.68 8.29 4.27 8.29 3.87 8.29V8.28Z" fill="#EE2F66"/>
<path d="M8.76 10.72C7.54 10.72 6.31 10.73 5.09 10.74C4.69 10.74 4.28 10.74 3.88 10.74C3.88 10.33 3.88 9.92 3.88 9.51C4.28 9.51 4.69 9.51 5.09 9.51C6.31 9.51 7.54 9.53 8.76 9.53C8.76 9.93 8.76 10.33 8.76 10.73V10.72Z" fill="#EE2F66"/>
<path d="M8.75999 7.06C7.53999 7.06 6.31 7.04 5.09 7.04C5.09 6.64 5.09 6.23 5.09 5.83C6.31 5.83 7.53999 5.82 8.75999 5.81C8.75999 6.23 8.75999 6.65 8.75999 7.07V7.06Z" fill="#ECB3C2"/>
<path d="M8.75999 9.52C7.53999 9.52 6.31 9.5 5.09 9.5C5.09 9.1 5.09 8.69 5.09 8.29C6.31 8.29 7.53999 8.28 8.75999 8.27C8.75999 8.69 8.75999 9.11 8.75999 9.53V9.52Z" fill="#ECB3C2"/>
<path d="M3.87001 10.73C4.27001 10.73 4.68001 10.73 5.08001 10.73C5.08001 11.35 5.08001 11.96 5.08001 12.58C5.08001 12.78 5.10001 12.98 5.16001 13.17C4.78001 13.17 4.40001 13.17 4.02001 13.17C3.91001 13.06 3.85001 12.93 3.85001 12.76C3.86001 12.08 3.86001 11.39 3.86001 10.71L3.87001 10.73Z" fill="#ECB3C2"/>
<path d="M5.08001 4.58C4.68001 4.58 4.27001 4.58 3.87001 4.58C3.87001 4.02 3.86001 3.47 3.87001 2.91C3.87001 2.64 3.87001 2.38 3.79001 2.12C4.20001 2.12 4.60001 2.12 5.01001 2.12C5.16001 2.93 5.06001 3.75 5.09001 4.56L5.08001 4.58Z" fill="#ECB3C2"/>
<path d="M17.51 25.91C16.01 25.46 14.92 24.03 14.9 22.5C14.88 20.86 15.87 19.43 17.35 18.94C18.74 19.39 19.79 20.76 19.79 22.33C19.79 23.8 19.12 24.93 17.81 25.65C17.69 25.71 17.53 25.73 17.5 25.9L17.51 25.91Z" fill="#ECB3C2"/>
<path d="M17.51 25.91C17.54 25.74 17.7 25.72 17.82 25.66C19.13 24.94 19.81 23.81 19.8 22.34C19.8 20.77 18.74 19.39 17.36 18.95C18.59 18.49 19.75 18.67 20.79 19.44C22.58 20.77 22.8 23.24 21.33 24.91C20.42 25.94 18.72 26.39 17.52 25.92L17.51 25.91Z" fill="#EE2F66"/>
<path d="M5.08 5.83C5.08 6.23 5.08 6.64 5.08 7.04C4.68 7.04 4.27 7.04 3.87 7.04C3.87 6.63 3.87 6.22 3.87 5.82C4.27 5.82 4.68 5.82 5.08 5.82V5.83Z" fill="#ECB3C2"/>
<path d="M5.08 8.28C5.08 8.68 5.08 9.09 5.08 9.49C4.68 9.49 4.27 9.49 3.87 9.49C3.87 9.08 3.87 8.67 3.87 8.27C4.27 8.27 4.68 8.27 5.08 8.27V8.28Z" fill="#ECB3C2"/>
</svg>
