<svg width="25" height="25" viewBox="0 0 25 25" fill="none" xmlns="http://www.w3.org/2000/svg">
    <path d="M0.589996 22.12V8.47001C0.739996 8.21001 0.959996 8.13 1.26 8.13C8.34 8.13 15.41 8.13 22.49 8.13C22.65 8.13 22.8 8.13 22.96 8.13C23.19 8.3 23.25 8.53001 23.24 8.81001C23.24 13.02 23.24 17.23 23.24 21.44C23.24 21.8 23.3 22.18 23.01 22.48C22.46 22.48 21.91 22.48 21.36 22.48C20.64 22.48 19.92 22.48 19.2 22.48C19.08 22.48 18.96 22.48 18.85 22.48C15.43 22.48 12.02 22.48 8.59999 22.48C7.76999 22.48 6.94 22.48 6.11 22.48C5.39 22.48 4.67 22.48 3.95 22.48C3.05 22.48 2.15 22.48 1.24 22.48C0.939996 22.48 0.719997 22.39 0.599997 22.11L0.589996 22.12ZM9.38 13.61C9.3 13.56 9.3 13.5 9.29 13.45C9.1 12.81 8.91 12.17 8.72 11.53C8.65 11.28 8.48 11.17 8.25 11.19C8.01 11.21 7.88999 11.36 7.84999 11.58C7.80999 11.8 7.77 12.03 7.73 12.25C7.58 13.05 7.44 13.85 7.29 14.66C7.24 14.92 7.36 15.11 7.58 15.15C7.78 15.19 7.94999 15.06 8.00999 14.81C8.03999 14.68 8.06 14.55 8.08 14.42C8.16 13.95 8.25 13.49 8.33 13.02C8.41 13.09 8.43 13.15 8.45 13.22C8.6 13.74 8.76 14.26 8.91 14.78C8.99 15.06 9.14 15.19 9.36 15.18C9.58 15.18 9.72 15.04 9.8 14.76C9.89 14.47 9.97 14.17 10.05 13.88C10.14 13.58 10.22 13.28 10.31 12.99C10.38 13.09 10.4 13.18 10.42 13.28C10.52 13.78 10.61 14.28 10.71 14.78C10.76 15.05 10.92 15.18 11.14 15.15C11.37 15.11 11.48 14.92 11.43 14.65C11.24 13.65 11.05 12.65 10.86 11.65C10.8 11.35 10.67 11.21 10.44 11.2C10.19 11.19 10.05 11.31 9.96 11.62C9.77 12.28 9.58 12.95 9.39 13.62L9.38 13.61ZM16.56 13.83C16.56 13.83 16.62 13.83 16.62 13.84C16.96 14.22 17.3 14.6 17.64 14.98C17.83 15.2 18.04 15.23 18.21 15.08C18.38 14.93 18.38 14.72 18.19 14.5C17.98 14.25 17.76 14 17.54 13.76C17.4 13.61 17.42 13.56 17.61 13.48C18.15 13.25 18.43 12.71 18.32 12.17C18.21 11.61 17.74 11.21 17.16 11.18C16.86 11.17 16.56 11.18 16.27 11.18C15.98 11.18 15.86 11.3 15.86 11.6C15.86 12.65 15.86 13.7 15.86 14.75C15.86 15.02 16.01 15.18 16.22 15.17C16.44 15.17 16.57 15 16.57 14.73C16.57 14.43 16.57 14.14 16.57 13.82L16.56 13.83ZM13.64 14.38H13.83C14.19 14.38 14.4367 14.5467 14.57 14.88C14.67 15.13 14.85 15.23 15.06 15.16C15.27 15.08 15.35 14.89 15.25 14.63C14.86 13.59 14.47 12.55 14.07 11.51C14 11.31 13.87 11.2 13.65 11.2C13.43 11.2 13.3 11.32 13.23 11.51C12.83 12.56 12.42 13.62 12.03 14.67C11.95 14.89 12.03 15.08 12.22 15.16C12.41 15.24 12.65 15.16 12.69 14.94C12.79 14.41 13.12 14.32 13.57 14.39C13.59 14.39 13.62 14.39 13.64 14.39V14.38ZM5.37 11.19C5.32 11.19 5.26 11.19 5.21 11.19C4.63 11.23 4.18 11.6 4.09 12.13C4.01 12.63 4.27 13.02 4.83 13.26C5.15 13.4 5.48999 13.48 5.77999 13.66C6.08999 13.85 6.08 14.16 5.77 14.35C5.66 14.41 5.54 14.45 5.41 14.45C5.06 14.45 4.77 14.33 4.52 14.09C4.35 13.93 4.14 13.94 3.99 14.09C3.84 14.24 3.85 14.44 4.02 14.61C4.31 14.91 4.66 15.09 5.07 15.15C5.67 15.25 6.2 15.11 6.56 14.59C6.96 14.01 6.70999 13.29 6.00999 12.96C5.70999 12.82 5.39 12.7 5.07 12.58C4.92 12.52 4.79 12.45 4.81 12.27C4.83 12.09 4.95 12 5.11 11.96C5.45 11.87 5.74 11.99 6.02 12.17C6.24 12.31 6.44 12.28 6.56 12.11C6.68 11.94 6.63 11.72 6.43 11.58C6.11 11.35 5.76 11.21 5.36 11.22L5.37 11.19ZM14.24 18.67C14.19 18.55 14.17 18.5 14.15 18.44C13.91 17.74 13.67 17.05 13.42 16.35C13.33 16.08 13.14 15.98 12.92 16.06C12.72 16.13 12.65 16.33 12.74 16.59C13.1 17.62 13.45 18.65 13.81 19.68C13.88 19.9 14.02 20.03 14.26 20.03C14.48 20.03 14.61 19.89 14.68 19.68C14.78 19.37 14.88 19.07 14.98 18.77C15.22 18.04 15.47 17.31 15.71 16.58C15.79 16.33 15.71 16.12 15.5 16.06C15.29 15.99 15.11 16.1 15.02 16.35C15 16.42 14.98 16.48 14.95 16.55C14.72 17.23 14.5 17.91 14.25 18.66L14.24 18.67ZM10.44 18.27C10.44 18.72 10.44 19.16 10.44 19.61C10.44 19.93 10.7 20.12 10.95 20C11.13 19.91 11.17 19.75 11.17 19.57C11.17 18.78 11.17 17.99 11.17 17.19C11.17 16.9033 11.31 16.76 11.59 16.76C11.64 16.76 11.7 16.76 11.75 16.76C11.94 16.73 12.06 16.61 12.07 16.41C12.07 16.21 11.96 16.07 11.77 16.05C11.14 16.01 10.5 16.02 9.87 16.05C9.67 16.05 9.57 16.2 9.55 16.4C9.54 16.58 9.68 16.74 9.88 16.76C9.99 16.77 10.1 16.78 10.21 16.76C10.4 16.74 10.45 16.83 10.44 17C10.44 17.42 10.44 17.85 10.44 18.27ZM19.76 13.44C19.76 13.89 19.76 14.35 19.76 14.8C19.76 15.02 19.92 15.17 20.11 15.18C20.31 15.18 20.47 15.04 20.49 14.81C20.49 14.74 20.49 14.67 20.49 14.6C20.49 13.86 20.49 13.13 20.49 12.39C20.49 12.0767 20.6433 11.9167 20.95 11.91C20.95 11.91 21.01 11.91 21.04 11.91C21.24 11.89 21.38 11.74 21.39 11.56C21.39 11.38 21.26 11.2 21.06 11.2C20.43 11.19 19.81 11.19 19.18 11.2C18.98 11.2 18.87 11.35 18.86 11.55C18.85 11.73 18.99 11.89 19.19 11.91C19.31 11.92 19.44 11.92 19.57 11.91C19.72 11.9 19.76 11.96 19.76 12.1C19.76 12.55 19.76 12.99 19.76 13.44ZM5.77999 18.4C6.26999 18.4 6.75 18.4 7.24 18.4C7.51 18.4 7.68 18.26 7.68 18.04C7.68 17.82 7.51 17.66 7.23 17.66C6.26 17.66 5.3 17.66 4.33 17.66C4.05 17.66 3.88 17.81 3.88 18.03C3.88 18.25 4.05 18.39 4.34 18.39C4.82 18.39 5.29999 18.39 5.77999 18.39V18.4ZM19.5 18.4C19.98 18.4 20.46 18.4 20.94 18.4C21.23 18.4 21.4 18.27 21.4 18.04C21.4 17.82 21.24 17.66 20.95 17.66C19.98 17.66 19.02 17.66 18.05 17.66C17.77 17.66 17.59 17.81 17.6 18.03C17.6 18.25 17.78 18.39 18.06 18.39C18.54 18.39 19.02 18.39 19.5 18.39V18.4Z"
          fill="#EE2F66"/>
    <path d="M21.12 24.38C20.47 23.76 19.81 23.15 19.19 22.5C19.91 22.5 20.63 22.5 21.35 22.5C21.87 23.01 22.39 23.53 22.92 24.04C23.03 24.14 23.08 24.24 23 24.38H21.12Z" fill="#ECB3C2"/>
    <path d="M2.28999 24.38C2.19999 24.24 2.25999 24.14 2.36999 24.04C2.89999 23.53 3.40999 23.01 3.93999 22.5C4.65999 22.5 5.37999 22.5 6.09999 22.5C5.47999 23.15 4.82999 23.77 4.16999 24.38H2.28999Z"
          fill="#ECB3C2"/>
    <path d="M22.96 8.13998C23.35 8.13998 23.74 8.13998 24.14 8.13998C24.54 8.13998 24.7 8.30999 24.7 8.71999C24.7 12.08 24.7 15.45 24.7 18.81C24.7 19.84 24.7 20.88 24.7 21.91C24.7 22.32 24.53 22.49 24.11 22.5C23.74 22.5 23.37 22.5 23 22.5C23.3 22.2 23.23 21.83 23.23 21.46C23.23 17.25 23.23 13.04 23.23 8.82999C23.23 8.54999 23.18 8.31999 22.95 8.14999L22.96 8.13998Z"
          fill="#ECB3C2"/>
    <path d="M9.38001 13.61C9.57001 12.94 9.76001 12.27 9.95001 11.61C10.04 11.3 10.18 11.18 10.43 11.19C10.66 11.2 10.79 11.34 10.85 11.64C11.04 12.64 11.23 13.64 11.42 14.64C11.47 14.92 11.36 15.11 11.13 15.14C10.92 15.17 10.75 15.03 10.7 14.77C10.6 14.27 10.51 13.77 10.41 13.27C10.39 13.17 10.37 13.08 10.3 12.98C10.21 13.28 10.13 13.57 10.04 13.87C9.96001 14.16 9.88001 14.46 9.79001 14.75C9.71001 15.03 9.56001 15.16 9.35001 15.17C9.13001 15.17 8.98001 15.04 8.90001 14.77C8.74001 14.25 8.59001 13.73 8.44001 13.21C8.42001 13.14 8.39001 13.07 8.32001 13.01C8.24001 13.48 8.15001 13.94 8.07001 14.41C8.05001 14.54 8.03001 14.67 8.00001 14.8C7.94001 15.05 7.78001 15.18 7.57001 15.14C7.35001 15.1 7.24001 14.91 7.28001 14.65C7.42001 13.85 7.57001 13.05 7.72001 12.24C7.76001 12.02 7.80001 11.79 7.84001 11.57C7.88001 11.35 8.00001 11.2 8.24001 11.18C8.47001 11.16 8.63001 11.28 8.71001 11.52C8.90001 12.16 9.09001 12.8 9.28001 13.44C9.29001 13.49 9.29001 13.55 9.37001 13.6L9.38001 13.61Z"
          fill="#FEFEFE"/>
    <path d="M16.56 13.83C16.56 14.14 16.56 14.44 16.56 14.74C16.56 15.01 16.43 15.17 16.21 15.18C15.99 15.18 15.85 15.02 15.85 14.76C15.85 13.71 15.85 12.66 15.85 11.61C15.85 11.32 15.97 11.2 16.26 11.19C16.56 11.19 16.86 11.19 17.15 11.19C17.73 11.21 18.2 11.62 18.31 12.18C18.42 12.72 18.13 13.26 17.6 13.49C17.42 13.57 17.39 13.62 17.53 13.77C17.76 14.01 17.97 14.26 18.18 14.51C18.37 14.73 18.38 14.94 18.2 15.09C18.03 15.24 17.82 15.2 17.63 14.99C17.29 14.61 16.95 14.23 16.61 13.85C16.61 13.85 16.6 13.85 16.55 13.84L16.56 13.83ZM16.96 11.9C16.52 11.9 16.57 11.86 16.56 12.25C16.56 12.41 16.56 12.56 16.56 12.72C16.56 12.79 16.56 12.88 16.65 12.88C16.87 12.88 17.11 12.92 17.32 12.81C17.49 12.72 17.59 12.58 17.59 12.38C17.59 12.18 17.47 12.05 17.3 11.96C17.18 11.9 17.04 11.9 16.95 11.9H16.96Z"
          fill="#FEFEFE"/>
    <path d="M13.64 14.38C13.64 14.38 13.59 14.38 13.57 14.38C13.12 14.31 12.79 14.4 12.69 14.93C12.65 15.15 12.41 15.23 12.22 15.15C12.03 15.07 11.94 14.88 12.03 14.66C12.43 13.6 12.83 12.55 13.23 11.5C13.3 11.31 13.44 11.19 13.65 11.19C13.87 11.19 14 11.31 14.07 11.5C14.46 12.54 14.86 13.58 15.25 14.62C15.35 14.88 15.27 15.07 15.06 15.15C14.85 15.22 14.67 15.12 14.57 14.87C14.4367 14.5367 14.19 14.37 13.83 14.37H13.64V14.38ZM14.11 13.65C13.96 13.25 13.82 12.88 13.65 12.44C13.5 12.85 13.37 13.18 13.24 13.52C13.2 13.63 13.24 13.66 13.34 13.66C13.58 13.66 13.82 13.66 14.1 13.66L14.11 13.65Z"
          fill="#FEFEFE"/>
    <path d="M5.37001 11.19C5.77001 11.19 6.12001 11.33 6.44001 11.55C6.64001 11.69 6.69001 11.91 6.57001 12.08C6.45001 12.25 6.25001 12.28 6.03001 12.14C5.75001 11.96 5.46001 11.84 5.12001 11.93C4.96001 11.98 4.83001 12.06 4.82001 12.24C4.80001 12.43 4.93001 12.5 5.08001 12.55C5.39001 12.67 5.71001 12.79 6.02001 12.93C6.72001 13.26 6.97001 13.98 6.57001 14.56C6.21001 15.09 5.68001 15.22 5.08001 15.12C4.67001 15.05 4.32001 14.88 4.03001 14.58C3.87001 14.41 3.86001 14.21 4.00001 14.06C4.14001 13.91 4.36001 13.9 4.53001 14.06C4.78001 14.3 5.07001 14.42 5.42001 14.42C5.55001 14.42 5.67001 14.39 5.78001 14.32C6.09001 14.14 6.10001 13.82 5.79001 13.63C5.49001 13.45 5.15001 13.37 4.84001 13.23C4.27001 12.98 4.01001 12.59 4.10001 12.1C4.19001 11.58 4.64001 11.2 5.22001 11.16C5.27001 11.16 5.33001 11.16 5.38001 11.16L5.37001 11.19Z"
          fill="#FEFEFE"/>
    <path d="M14.24 18.67C14.49 17.92 14.72 17.24 14.94 16.56C14.96 16.49 14.98 16.43 15.01 16.36C15.1 16.11 15.28 16 15.49 16.07C15.7 16.13 15.78 16.34 15.7 16.59C15.46 17.32 15.22 18.05 14.97 18.78C14.87 19.08 14.76 19.39 14.67 19.69C14.6 19.9 14.47 20.03 14.25 20.04C14.02 20.04 13.88 19.91 13.8 19.69C13.45 18.66 13.09 17.63 12.73 16.6C12.64 16.34 12.71 16.14 12.91 16.07C13.13 15.99 13.32 16.09 13.41 16.36C13.66 17.05 13.9 17.75 14.14 18.45C14.16 18.51 14.19 18.56 14.23 18.68L14.24 18.67Z"
          fill="#FEFEFE"/>
    <path d="M10.44 18.27C10.44 17.85 10.44 17.42 10.44 17C10.44 16.82 10.4 16.73 10.21 16.76C10.1 16.77 9.99 16.76 9.88 16.76C9.68 16.74 9.54 16.58 9.55 16.4C9.56 16.21 9.67 16.06 9.87 16.05C10.5 16.02 11.14 16.02 11.77 16.05C11.97 16.06 12.08 16.21 12.07 16.41C12.07 16.61 11.95 16.73 11.75 16.76C11.7 16.76 11.64 16.76 11.59 16.76C11.31 16.76 11.17 16.9033 11.17 17.19C11.17 17.98 11.17 18.77 11.17 19.57C11.17 19.76 11.13 19.92 10.95 20C10.7 20.12 10.44 19.93 10.44 19.61C10.44 19.16 10.44 18.72 10.44 18.27Z"
          fill="#FEFEFE"/>
    <path d="M19.76 13.44C19.76 12.99 19.76 12.55 19.76 12.1C19.76 11.96 19.72 11.9 19.57 11.91C19.45 11.91 19.32 11.91 19.19 11.91C18.99 11.89 18.85 11.73 18.86 11.55C18.87 11.35 18.98 11.21 19.18 11.2C19.81 11.19 20.43 11.19 21.06 11.2C21.26 11.2 21.39 11.38 21.39 11.56C21.39 11.74 21.24 11.89 21.04 11.91C21.01 11.91 20.98 11.91 20.95 11.91C20.6433 11.91 20.49 12.07 20.49 12.39C20.49 13.13 20.49 13.86 20.49 14.6C20.49 14.67 20.49 14.74 20.49 14.81C20.47 15.04 20.31 15.19 20.11 15.18C19.92 15.18 19.77 15.02 19.76 14.8C19.76 14.35 19.76 13.89 19.76 13.44Z"
          fill="#FEFEFE"/>
    <path d="M5.78 18.4C5.3 18.4 4.82 18.4 4.34 18.4C4.05 18.4 3.89 18.26 3.88 18.04C3.88 17.82 4.05001 17.67 4.33001 17.67C5.30001 17.67 6.26 17.67 7.23 17.67C7.51 17.67 7.68 17.83 7.68 18.05C7.68 18.26 7.50001 18.4 7.24001 18.41C6.75001 18.41 6.27 18.41 5.78 18.41V18.4Z"
          fill="#FEFEFE"/>
    <path d="M19.5 18.4C19.02 18.4 18.54 18.4 18.06 18.4C17.78 18.4 17.6 18.26 17.6 18.04C17.6 17.82 17.77 17.67 18.05 17.67C19.02 17.67 19.98 17.67 20.95 17.67C21.23 17.67 21.4 17.83 21.4 18.05C21.4 18.27 21.23 18.41 20.94 18.41C20.46 18.41 19.98 18.41 19.5 18.41V18.4Z"
          fill="#FEFEFE"/>
    <path d="M15.94 2.68C15.37 2.36 14.79 2.07 14.15 1.92C11.97 1.42 10.05 1.92 8.41 3.45C8.17 3.67 7.91 3.77 7.6 3.67C7.33 3.58 7.17 3.38 7.12 3.11C7.07 2.83 7.18 2.61 7.38 2.42C8.53 1.32 9.88 0.620004 11.45 0.370004C11.58 0.350004 11.71 0.300003 11.84 0.320003C11.87 0.430003 11.98 0.410003 12.05 0.430003C13.29 0.700003 14.4 1.24 15.37 2.06C15.58 2.24 15.82 2.41 15.93 2.68H15.94Z"
          fill="#ECB3C2"/>
    <path d="M15.94 2.67999C15.83 2.40999 15.59 2.23999 15.38 2.05999C14.41 1.23999 13.3 0.699994 12.06 0.429994C11.98 0.409994 11.88 0.429993 11.85 0.319993C12.85 0.189993 13.84 0.289993 14.8 0.579993C15.99 0.929993 17.02 1.53999 17.91 2.40999C18.27 2.75999 18.3 3.18999 17.99 3.50999C17.69 3.81999 17.23 3.79999 16.88 3.45999C16.59 3.16999 16.25 2.94999 15.94 2.67999Z"
          fill="#EE2F66"/>
    <path d="M13.49 5.17C13.07 5.08 12.65 5.03 12.23 5.09C11.65 5.18 11.14 5.43 10.72 5.84C10.5 6.05 10.24 6.13 9.93998 6.03C9.66998 5.94 9.50998 5.74 9.45998 5.47C9.40998 5.21 9.49998 4.99 9.68998 4.81C10.23 4.27 10.88 3.92 11.61 3.72C11.66 3.84 11.78 3.84 11.88 3.88C12.26 4.04 12.63 4.21 12.94 4.48C13.16 4.67 13.46 4.82 13.5 5.17H13.49Z"
          fill="#ECB3C2"/>
    <path d="M13.49 5.16999C13.45 4.81999 13.15 4.67999 12.93 4.47999C12.62 4.20999 12.25 4.03999 11.87 3.87999C11.77 3.83999 11.65 3.82999 11.6 3.71999C13.1 3.37999 14.43 3.71999 15.56 4.76999C15.91 5.08999 15.93 5.54999 15.63 5.84999C15.34 6.13999 14.88 6.13999 14.56 5.82999C14.25 5.52999 13.87 5.34999 13.49 5.15999V5.16999Z"
          fill="#EE2F66"/>
    <path d="M16.96 11.9C17.05 11.9 17.19 11.9 17.31 11.96C17.48 12.05 17.6 12.18 17.6 12.38C17.6 12.58 17.5 12.72 17.33 12.81C17.12 12.92 16.89 12.88 16.66 12.88C16.56 12.88 16.57 12.79 16.57 12.72C16.57 12.56 16.57 12.41 16.57 12.25C16.57 11.86 16.53 11.91 16.97 11.9H16.96Z"
          fill="#EE2F66"/>
    <path d="M14.11 13.65C13.83 13.65 13.59 13.65 13.35 13.65C13.25 13.65 13.2 13.62 13.25 13.51C13.38 13.18 13.51 12.84 13.66 12.43C13.83 12.87 13.97 13.24 14.12 13.64L14.11 13.65Z" fill="#EE2F66"/>
</svg>
