<svg width="23" height="28" viewBox="0 0 23 28" fill="none" xmlns="http://www.w3.org/2000/svg">
    <path d="M22.79 6.37C22.79 8.12 22.79 9.87 22.79 11.62C22.79 16.47 22.79 21.31 22.79 26.16C22.79 26.96 22.37 27.38 21.57 27.38C14.88 27.38 8.20001 27.38 1.51001 27.38C0.710006 27.38 0.290009 26.96 0.290009 26.16C0.290009 19.66 0.290009 13.16 0.290009 6.66C0.290009 6.56 0.290009 6.46 0.290009 6.37C0.370009 6.37 0.450008 6.37 0.530008 6.37C7.87001 6.37 15.21 6.37 22.54 6.37C22.62 6.37 22.7 6.37 22.78 6.37H22.79ZM11.54 24.55C15.81 24.55 19.26 21.11 19.27 16.85C19.27 12.59 15.82 9.13 11.57 9.12C7.32001 9.12 3.85001 12.58 3.84001 16.83C3.84001 21.09 7.28001 24.55 11.55 24.55H11.54Z"
          fill="#EE2F66"/>
    <path d="M22.79 6.36999C22.71 6.36999 22.63 6.36999 22.55 6.36999C15.21 6.36999 7.87002 6.36999 0.54002 6.36999C0.46002 6.36999 0.380018 6.36999 0.300018 6.36999C0.300018 4.86999 0.300018 3.36999 0.300018 1.86999C0.300018 1.23999 0.78002 0.799988 1.45002 0.799988C5.93002 0.799988 10.41 0.799988 14.89 0.799988C17.13 0.799988 19.37 0.799988 21.61 0.799988C22.35 0.799988 22.79 1.23999 22.79 1.97999C22.79 3.43999 22.79 4.90999 22.79 6.36999ZM5.62002 4.44999C6.76002 4.44999 7.90002 4.44999 9.04002 4.44999C9.24002 4.44999 9.30002 4.39999 9.29002 4.19999C9.27002 3.76999 9.29002 3.33999 9.29002 2.91999C9.29002 2.77999 9.25002 2.72999 9.11002 2.73999C8.83002 2.73999 8.56002 2.73999 8.28002 2.73999C6.27002 2.73999 4.27002 2.73999 2.26002 2.73999C2.05002 2.73999 1.99002 2.79999 2.00002 3.00999C2.02002 3.40999 2.02002 3.80999 2.00002 4.20999C2.00002 4.40999 2.05002 4.46999 2.25002 4.45999C3.37002 4.44999 4.50002 4.45999 5.62002 4.45999V4.44999ZM14.22 3.57999C14.22 4.30999 14.78 4.87999 15.49 4.87999C16.2 4.87999 16.79 4.28999 16.78 3.58999C16.78 2.90999 16.2 2.31999 15.52 2.31999C14.8 2.31999 14.22 2.86999 14.21 3.58999L14.22 3.57999ZM19.79 2.30999C19.07 2.30999 18.51 2.87999 18.51 3.60999C18.51 4.31999 19.08 4.87999 19.79 4.87999C20.5 4.87999 21.08 4.28999 21.08 3.57999C21.08 2.88999 20.48 2.30999 19.79 2.30999ZM11.84 4.02999C12.04 4.02999 12.25 4.02999 12.45 4.02999C12.7 4.01999 12.86 3.85999 12.88 3.63999C12.9 3.40999 12.74 3.19999 12.49 3.18999C12.05 3.16999 11.62 3.16999 11.18 3.18999C10.95 3.18999 10.79 3.39999 10.79 3.61999C10.79 3.85999 10.96 4.01999 11.22 4.02999C11.42 4.02999 11.63 4.02999 11.83 4.02999H11.84Z"
          fill="#ECB3C2"/>
    <path d="M11.54 24.55C7.28002 24.55 3.83002 21.09 3.83002 16.83C3.83002 12.58 7.30002 9.10999 11.56 9.11999C15.82 9.11999 19.27 12.59 19.26 16.85C19.26 21.11 15.8 24.56 11.53 24.55H11.54ZM16.22 20.59C16.82 19.87 17.22 19.05 17.4 18.12C17.58 17.35 17.59 16.57 17.45 15.78C16.76 11.85 12.42 9.66999 8.86002 11.47C6.64002 12.59 5.21001 15.04 5.62001 17.74C5.76001 18.75 6.14001 19.67 6.78001 20.47C7.82001 21.85 9.22002 22.63 10.93 22.81C12.2 22.95 13.41 22.7 14.53 22.06C15.19 21.68 15.77 21.2 16.23 20.58L16.22 20.59Z"
          fill="#ECB3C2"/>
    <path d="M5.62001 4.44998C4.50001 4.44998 3.37001 4.44998 2.25001 4.44998C2.05001 4.44998 1.99001 4.38998 2.00001 4.19998C2.02001 3.79998 2.02001 3.39998 2.00001 2.99998C2.00001 2.78998 2.05001 2.72998 2.26001 2.72998C4.27001 2.72998 6.27001 2.72998 8.28001 2.72998C8.56001 2.72998 8.83001 2.72998 9.11001 2.72998C9.25001 2.72998 9.29001 2.77998 9.29001 2.90998C9.29001 3.33998 9.28001 3.76998 9.29001 4.18998C9.29001 4.38998 9.24001 4.44998 9.04001 4.43998C7.90001 4.42998 6.76001 4.43998 5.62001 4.43998V4.44998Z"
          fill="#EE2F66"/>
    <path d="M14.22 3.57998C14.22 2.86998 14.81 2.29997 15.53 2.30997C16.21 2.30997 16.79 2.89998 16.79 3.57998C16.79 4.28998 16.2 4.87997 15.5 4.86997C14.78 4.86997 14.22 4.28997 14.23 3.56997L14.22 3.57998Z"
          fill="#EE2F66"/>
    <path d="M19.79 2.31C20.48 2.31 21.07 2.89 21.08 3.58C21.08 4.29 20.5 4.88 19.79 4.88C19.08 4.88 18.51 4.32 18.51 3.61C18.51 2.89 19.07 2.32 19.79 2.31Z" fill="#EE2F66"/>
    <path d="M11.84 4.02999C11.64 4.02999 11.43 4.02999 11.23 4.02999C10.97 4.02999 10.8 3.84999 10.8 3.61999C10.8 3.39999 10.95 3.19999 11.19 3.18999C11.63 3.16999 12.06 3.16999 12.5 3.18999C12.75 3.19999 12.91 3.40999 12.89 3.63999C12.87 3.85999 12.71 4.01999 12.46 4.02999C12.26 4.02999 12.05 4.02999 11.85 4.02999H11.84Z"
          fill="#EE2F66"/>
    <path d="M5.61001 17.74C5.21001 15.05 6.64001 12.59 8.85001 11.47C12.41 9.67 16.75 11.85 17.44 15.78C17.58 16.56 17.57 17.34 17.39 18.12C17.34 18.12 17.28 18.12 17.23 18.14C16.09 18.45 14.93 18.49 13.76 18.29C12.9 18.14 12.1 17.83 11.27 17.56C10.52 17.32 9.76001 17.15 8.97001 17.1C7.79001 17.03 6.67001 17.26 5.59001 17.74H5.61001Z"
          fill="#FEFEFE"/>
    <path d="M5.61002 17.74C6.69002 17.26 7.81002 17.02 8.99002 17.1C9.78002 17.15 10.54 17.32 11.29 17.56C12.11 17.82 12.92 18.14 13.78 18.29C14.95 18.5 16.1 18.46 17.25 18.14C17.3 18.13 17.35 18.13 17.41 18.12C17.24 19.05 16.84 19.87 16.23 20.59C16.12 20.59 16.02 20.56 15.92 20.52C15.33 20.28 14.74 20.08 14.13 19.91C12.8 19.55 11.46 19.28 10.06 19.4C9.53002 19.45 9.01001 19.57 8.51001 19.77C7.93001 20 7.36001 20.24 6.78001 20.47C6.14001 19.66 5.76001 18.75 5.62001 17.74H5.61002Z"
          fill="#F9C5D5"/>
    <path d="M6.78 20.47C7.36 20.23 7.93 20 8.51 19.77C9.01 19.57 9.52 19.45 10.06 19.4C11.45 19.28 12.8 19.55 14.13 19.91C14.74 20.07 15.34 20.28 15.92 20.52C16.02 20.56 16.12 20.58 16.23 20.59C15.77 21.21 15.19 21.68 14.53 22.07C13.41 22.72 12.2 22.96 10.93 22.82C9.22 22.64 7.82 21.86 6.78 20.48V20.47Z"
          fill="#EE2F66"/>
</svg>
