<svg width="19" height="14" viewBox="0 0 19 14" fill="none" xmlns="http://www.w3.org/2000/svg">
<path d="M9.52 0.189991C10.12 0.169991 10.71 0.229992 11.3 0.319992C12.38 0.469992 13.42 0.779992 14.42 1.22999C15.77 1.82999 16.97 2.65999 18.02 3.70999C18.28 3.96999 18.41 4.27999 18.52 4.60999V5.16999C18.42 5.49999 18.29 5.80999 18.04 6.05999C17.38 6.72999 16.35 6.74999 15.68 6.09999C14.97 5.40999 14.19 4.82999 13.29 4.39999C12.44 3.98999 11.56 3.72999 10.62 3.60999C10.25 3.56999 9.89 3.54999 9.52 3.52999C9.52 2.40999 9.52 1.29999 9.52 0.179993V0.189991Z" fill="#EE2F66"/>
<path d="M9.52 0.190002C9.52 1.31 9.52 2.42 9.52 3.54C8.49 3.54 7.5 3.71 6.53 4.07C5.34 4.51 4.31 5.18001 3.41 6.06001C3.09 6.37001 2.71 6.55 2.27 6.57C1.59 6.6 0.970004 6.2 0.680004 5.57C0.400004 4.95 0.520004 4.24001 1.02 3.72001C1.76 2.97001 2.59 2.33001 3.5 1.81001C4.96 0.970005 6.52 0.460004 8.19 0.270004C8.63 0.220004 9.07 0.190005 9.52 0.200005V0.190002Z" fill="#ECB3C2"/>
<path d="M9.52 5.35998C10.27 5.33998 11.01 5.47998 11.72 5.71998C12.72 6.04998 13.59 6.58998 14.33 7.33998C14.81 7.81998 14.99 8.39998 14.78 9.04998C14.57 9.69998 14.1 10.11 13.42 10.22C12.86 10.31 12.38 10.12 11.97 9.71998C11.51 9.25998 10.96 8.95998 10.32 8.80998C10.06 8.74998 9.79 8.71998 9.52 8.70998C9.52 7.58998 9.52 6.47998 9.52 5.35998Z" fill="#EE2F66"/>
<path d="M9.52001 5.35999C9.52001 6.47999 9.52001 7.58998 9.52001 8.70998C8.54001 8.71998 7.71001 9.08999 7.00001 9.76999C6.33001 10.41 5.33001 10.38 4.68001 9.72998C4.02001 9.06998 4.00001 8.05999 4.65001 7.39999C5.68001 6.34999 6.93001 5.70998 8.38001 5.45998C8.75001 5.38998 9.13001 5.35998 9.51001 5.36998L9.52001 5.35999Z" fill="#ECB3C2"/>
<path d="M9.52 10.52C10.22 10.46 10.94 11.02 11.14 11.78C11.4 12.77 10.68 13.8 9.66 13.87C9.61 13.87 9.57 13.87 9.52 13.87C9.52 12.76 9.52 11.64 9.52 10.53V10.52Z" fill="#EE2F66"/>
<path d="M9.52 10.52C9.52 11.63 9.52 12.75 9.52 13.86C8.63 13.87 7.89 13.16 7.84 12.25C7.8 11.39 8.47001 10.62 9.33001 10.53C9.39001 10.53 9.46 10.53 9.52 10.52Z" fill="#ECB3C2"/>
</svg>
